<?xml version="1.0" encoding="UTF-8"?>
<svg  className="fill-cyan-500 hover:fill-cyan-700" xmlns="http://www.w3.org/2000/svg" xmlns:xlink="http://www.w3.org/1999/xlink" viewBox="0 0 3895 1468">
  <defs>
    <style>
      .cls-1 {
        fill: #d41216;
      }

      .cls-1, .cls-2, .cls-3, .cls-4, .cls-5, .cls-6, .cls-7, .cls-8, .cls-9, .cls-10, .cls-11, .cls-12, .cls-13, .cls-14, .cls-15, .cls-16, .cls-17, .cls-18, .cls-19, .cls-20, .cls-21, .cls-22, .cls-23, .cls-24, .cls-25, .cls-26, .cls-27, .cls-28, .cls-29, .cls-30, .cls-31, .cls-32, .cls-33, .cls-34, .cls-35, .cls-36, .cls-37, .cls-38, .cls-39, .cls-40, .cls-41, .cls-42, .cls-43, .cls-44, .cls-45, .cls-46, .cls-47, .cls-48, .cls-49, .cls-50, .cls-51, .cls-52, .cls-53, .cls-54, .cls-55, .cls-56, .cls-57, .cls-58, .cls-59, .cls-60, .cls-61, .cls-62, .cls-63, .cls-64, .cls-65, .cls-66, .cls-67, .cls-68, .cls-69, .cls-70, .cls-71, .cls-72, .cls-73, .cls-74, .cls-75, .cls-76, .cls-77, .cls-78, .cls-79, .cls-80, .cls-81, .cls-82, .cls-83, .cls-84, .cls-85, .cls-86, .cls-87, .cls-88, .cls-89, .cls-90, .cls-91, .cls-92, .cls-93, .cls-94 {
        stroke: #1d1d1b;
        stroke-miterlimit: 10;
      }

      .cls-1, .cls-2, .cls-3, .cls-4, .cls-5, .cls-6, .cls-7, .cls-8, .cls-9, .cls-10, .cls-11, .cls-12, .cls-13, .cls-14, .cls-15, .cls-16, .cls-17, .cls-18, .cls-19, .cls-20, .cls-21, .cls-22, .cls-23, .cls-24, .cls-25, .cls-26, .cls-27, .cls-28, .cls-29, .cls-30, .cls-31, .cls-32, .cls-33, .cls-34, .cls-35, .cls-36, .cls-37, .cls-38, .cls-39, .cls-40, .cls-41, .cls-42, .cls-43, .cls-44, .cls-45, .cls-46, .cls-47, .cls-48, .cls-49, .cls-50, .cls-51, .cls-52, .cls-53, .cls-54, .cls-55, .cls-56, .cls-57, .cls-58, .cls-59, .cls-60, .cls-61, .cls-62, .cls-63, .cls-65, .cls-66, .cls-67, .cls-68, .cls-69, .cls-70, .cls-71, .cls-72, .cls-73, .cls-74, .cls-75, .cls-76, .cls-77, .cls-78, .cls-79, .cls-80, .cls-81, .cls-82, .cls-83, .cls-84, .cls-85, .cls-86, .cls-87, .cls-88, .cls-89, .cls-90, .cls-91, .cls-92, .cls-93, .cls-94 {
        stroke-width: 2px;
      }

      .cls-2 {
        fill: #fdeb19;
      }

      .cls-3 {
        fill: #fcc009;
      }

      .cls-4 {
        fill: #e72481;
      }

      .cls-5 {
        fill: #7e3b8f;
      }

      .cls-6 {
        fill: #77aa2c;
      }

      .cls-7 {
        fill: #ffe98f;
      }

      .cls-8 {
        fill: #e94c45;
      }

      .cls-9 {
        fill: #2c4b9b;
      }

      .cls-10 {
        fill: #fecb40;
      }

      .cls-11 {
        fill: url(#Gradiente_sem_nome_101);
      }

      .cls-12 {
        fill: #e72060;
      }

      .cls-13 {
        fill: #e84826;
      }

      .cls-14 {
        fill: #f49623;
      }

      .cls-15 {
        fill: #e94462;
      }

      .cls-16 {
        fill: #74cbf4;
      }

      .cls-17 {
        fill: #efc0db;
      }

      .cls-18 {
        fill: #fbb90f;
      }

      .cls-19 {
        fill: #4fa6dd;
      }

      .cls-20 {
        fill: #ffde07;
      }

      .cls-21 {
        fill: url(#Gradiente_sem_nome_101-3);
      }

      .cls-22 {
        fill: #76c6c3;
      }

      .cls-23 {
        fill: #337abe;
      }

      .cls-24 {
        fill: #fec902;
      }

      .cls-25 {
        fill: #fdc52c;
      }

      .cls-26 {
        fill: #78b829;
      }

      .cls-27 {
        fill: #f59c1a;
      }

      .cls-28 {
        fill: #feeb18;
      }

      .cls-29 {
        fill: #60ab30;
      }

      .cls-30 {
        fill: #ffd002;
      }

      .cls-31 {
        fill: #e97d03;
      }

      .cls-32 {
        fill: #eb599b;
      }

      .cls-33 {
        fill: #6ec3c1;
      }

      .cls-34 {
        fill: #fcbf2d;
      }

      .cls-35 {
        fill: #f18618;
      }

      .cls-36 {
        fill: #d43116;
      }

      .cls-37 {
        fill: #3fad57;
      }

      .cls-38 {
        fill: #9159a0;
      }

      .cls-39 {
        fill: #e73635;
      }

      .cls-40 {
        fill: #e8398d;
      }

      .cls-41 {
        fill: #ffde29;
      }

      .cls-42 {
        fill: url(#Gradiente_sem_nome_101-2);
      }

      .cls-43 {
        fill: #f2b4d3;
      }

      .cls-44 {
        fill: #e7e231;
      }

      .cls-45 {
        fill: #02567f;
      }

      .cls-46 {
        fill: #eada00;
      }

      .cls-47 {
        fill: #ef791a;
      }

      .cls-48 {
        fill: #db398d;
      }

      .cls-49 {
        fill: #d44215;
      }

      .cls-50 {
        fill: #ffe13f;
      }

      .cls-51 {
        fill: #e83d35;
      }

      .cls-52 {
        fill: #1d1d1b;
      }

      .cls-53 {
        fill: #fec803;
      }

      .cls-54 {
        fill: #264395;
      }

      .cls-55 {
        fill: #d52416;
      }

      .cls-56 {
        fill: #d40f37;
      }

      .cls-57 {
        fill: #f18731;
      }

      .cls-58 {
        fill: #fff;
      }

      .cls-59 {
        fill: #e73452;
      }

      .cls-60 {
        fill: #d45a14;
      }

      .cls-61 {
        fill: #c4d321;
      }

      .cls-62 {
        fill: #4677bb;
      }

      .cls-63 {
        fill: #69230b;
      }

      .cls-64, .cls-84 {
        fill: #e31013;
      }

      .cls-65 {
        fill: none;
      }

      .cls-66 {
        fill: #009481;
      }

      .cls-67 {
        fill: #f6a031;
      }

      .cls-68 {
        fill: #4db9a7;
      }

      .cls-69 {
        fill: #6fb52c;
      }

      .cls-70 {
        fill: #d43616;
      }

      .cls-71 {
        fill: #c0153e;
      }

      .cls-72 {
        fill: #ed698b;
      }

      .cls-73 {
        fill: #ead900;
      }

      .cls-74 {
        fill: #d41116;
      }

      .cls-75 {
        fill: #e9560d;
      }

      .cls-76 {
        fill: #e8490f;
      }

      .cls-77 {
        fill: #f8e939;
      }

      .cls-78 {
        fill: #6eb52c;
      }

      .cls-79 {
        fill: #774b98;
      }

      .cls-80 {
        fill: #24204d;
      }

      .cls-81 {
        fill: #bf3d17;
      }

      .cls-82 {
        fill: #514a99;
      }

      .cls-83 {
        fill: #e9c501;
      }

      .cls-85 {
        fill: #334a9a;
      }

      .cls-86 {
        fill: #7e1432;
      }

      .cls-87 {
        fill: #7f2910;
      }

      .cls-88 {
        fill: #e73b1e;
      }

      .cls-89 {
        fill: #916b3f;
      }

      .cls-90 {
        fill: #8ebf22;
      }

      .cls-91 {
        fill: #c6d543;
      }

      .cls-92 {
        fill: #e60d7d;
      }

      .cls-93 {
        fill: #74c9e1;
      }

      .cls-94 {
        fill: #2a4899;
      }
    </style>
    <linearGradient id="Gradiente_sem_nome_101" data-name="Gradiente sem nome 101" x1="2392.68" y1="1045.62" x2="2392.68" y2="413.33" gradientUnits="userSpaceOnUse">
      <stop offset="0" stop-color="#e2972c"/>
      <stop offset="0" stop-color="#dc922b"/>
      <stop offset=".79" stop-color="#975718"/>
      <stop offset="1" stop-color="#975918"/>
    </linearGradient>
    <linearGradient id="Gradiente_sem_nome_101-2" data-name="Gradiente sem nome 101" x1="1499.99" y1="1045.78" x2="1499.99" y2="431.73" xlink:href="#Gradiente_sem_nome_101"/>
    <linearGradient id="Gradiente_sem_nome_101-3" data-name="Gradiente sem nome 101" x1="1933.25" y1="643.44" x2="1933.25" y2="584.44" xlink:href="#Gradiente_sem_nome_101"/>
  </defs>
  <g id="Camada_21" data-name="Camada 21">
    <rect class="cls-7" x="2.71" width="3892.29" height="1467.57"/>
  </g>
  <g id="d_e_listras" data-name="d/e listras">
    <g>
      <path class="cls-8" d="m2709.74,679.8L3839.28-81.43s149.65,38.81,143.25,42.89-71.41,120.51-71.41,120.51l-1201.37,633.4v-35.59Z"/>
      <polygon class="cls-69" points="2739.03 738.76 3970.81 265.89 3895.07 90.44 2689.48 720.41 2739.03 738.76"/>
      <polygon class="cls-35" points="2726.06 850.36 3937.85 1360.7 3924.28 1101.77 2709.74 814.47 2726.06 850.36"/>
      <polygon class="cls-41" points="2743.9 757.88 3937.85 865.24 3895.07 1094.86 2671.41 803.64 2743.9 757.88"/>
    </g>
    <g>
      <path class="cls-38" d="m1199.24,540.73L-111.74-51.72s-30.15,272.68-18.14,269.62,1358.56,377.06,1358.56,377.06l-29.44-54.22Z"/>
      <polygon class="cls-47" points="1148.51 840.39 -60.17 1276.97 -123.78 989.2 1181.32 800.53 1148.51 840.39"/>
      <polygon class="cls-36" points="1228.68 800.53 -60.17 1276.97 -60.17 1444.45 1181.32 865.24 1228.68 800.53"/>
    </g>
  </g>
  <g id="Esquerda">
    <g>
      <path class="cls-93" d="m1199.24,552.09s-33.88,35.79-124.77-127.25c-90.89-163.04-128.68-298.87-408.51-316.23,0,0-91.91-21.45-103.15,59.23s41.87,144.69,41.87,144.69c0,0,38.75,57.52-43.43,67.73s-145.5-61.28-198.61-146.04-113.36-142.98-190.98-115.4,18.38,85.79,0,94.98c-18.38,9.19-62.22,9.19-80.13-80.68S-31.57,13.64-31.57,13.64L.07,143.34s119.5,194.99,214.48,198.09,10.21-127.62,10.21-127.62c0,0-10.21-30.64,37.79-30.64s99.06,138.89,105.19,149.11c6.13,10.21,15.32,78.19,167.49,137.14,0,0,107.23,37.5,177.7-103.43,0,0,15.66-38.81-26.89-106.21s83.57-73.53,141.02-45.96c57.45,27.57,123.83,80.17,154.47,196.34,30.64,116.17,187.98,201.88,187.98,201.88"/>
      <path class="cls-83" d="m.07,143.34s121.55,191.92,214.48,198.09c92.94,6.17,10.21-127.62,10.21-127.62,0,0-11.23-35.74,37.79-30.64s93.14,122.6,105.19,149.11,146.55,206.3,290.3,108.77,0,0,0,0c0,0,103.23-37.28,28-181.28,0,0-45.62-65.2,71.83-61.19,117.45,4,176.34,97.8,205.41,158.25s18.38,137.68,206.23,255.21c187.85,117.53-1.83,6.1-1.83,6.1,0,0-24.62,36.48-30.32,30.55-5.7-5.93-120.09.54-264.09-156.4-144-156.94-175.04-13.87-175.04-13.87,0,0-15.94,86.64-176.28,41.24s-154.21-132.72-226.72-109.49c0,0-5.11,7.91-9.87,21.87-4.77,13.96-42.21,65.7-298.55-195.74S.07,143.34.07,143.34Z"/>
      <path class="cls-70" d="m1098.95,640.51s-90.87-10.7-225.67-148.23c-134.81-137.53-174.3-16.68-174.3-16.68,0,0-49.25,156.46-337.69-49.09,0,0-60.97-59.49-77.43,8.8,0,0-14.25,40.57-138.67-52.8,0,0-117.01-104.87-158.38-146.23-39.14-39.13-30.38,57.45-30.38,57.45L0,344.28s49.7,42.89,91.53,100.34,127.62,160.09,161.32,135.57c33.7-24.51-41.36-78.13-14.55-86.55s98.04-8.3,173.11,41.42,127.91,145.29,252,130.83c0,0,54.38-2.11,43.66-53.86-10.72-51.75,77.36-56.35,107.23-30.3,29.87,26.04,135.65,126.16,275.4,92.57"/>
      <path class="cls-6" d="m-11.48,330.96c.82.95,30.29,23.85,64.93,62.85,15.7,17.68,31.21,41.6,49.02,62.55,57.09,67.17,121.28,141.45,150.38,123.83,29.11-17.62-31.66-71.74-26.04-82.47s74.65-26.73,151.45,18.3c0,0,58.74,28.72,99.94,74.4,13.57,15.04,32.89,27.03,51.59,38.7,38.09,23.79,83.57,44.26,133.45,35.06,75-13.83,28.3-65.87,46.64-82.21,0,0,16.14-18.24,45.16-20.82,19.86-1.76,40.99,2.31,55.61,15.88,6.63,6.16,17.19,15.56,30.3,23.83,93.28,58.88,126.64,94.15,241.69,75.01,113.84-18.94,65.89,42.69,65.89,42.69,0,0-17.27,34.76-100.94,31.75-75.19-2.7-134.82-2.47-194.06-69.46-9.57-10.82-17.22-23.14-23.4-36.2-4.1-8.68-13.02-18.97-31.98-16.21-31.59,4.6-46.91,9.7-47.42,34.72s1.53,70.98-34.21,79.15-116.43-6.32-194.55-52.09c0,0-101.62-59.74-143.49-103.15-41.87-43.4-93.45-30.77-93.45-30.77,0,0-10.21,1.66-.51,16.47s40.34,44.43-6.13,65.87c-46.47,21.45-198.13-128.56-231.32-185.3s-255.83-122.4-255.83-122.4H-11.48Z"/>
      <path class="cls-73" d="m15.16,957.96s47.82-23.58,254.17,53c13.65,5.07,0,0,0,0,0,0,72.87,103.35,122.66-33,49.79-136.34,392.94-181.37,456.25-155.79s66.75,44,122.23-11.68c55.48-55.68,83.29-15.88,89.18-19.93,5.88-4.05,81.94-4.97,96.83-32.61,0,0,1.77-49.77-8.49-38.63s-29.19,38.36-151.82,27.44c-122.63-10.92-153.12-85.41-165.11-103.66s-25.18-17.2-52.51-10.44-25.29,16.29-28.35,31.27c-3.06,14.98,7,69.41-36.25,78.23s-144.5-24.44-190.98-53.45-109.79-70.64-144.68-105.19-80.18-31.85-93.8-26.45,7.83,25.49,11.23,32.3,20.09,25.19-7.83,43.91-93.89-.94-232.52-172.34c-4.1-5.07-8.02-10.31-11.62-15.74-6.18-9.34-24.61-30.89-68.72-43.35-57.44-16.23-104.93,238.07-104.93,238.07l62.81,274.21,62.81,46.72,19.42-2.89Z"/>
      <path class="cls-94" d="m1151.62,764.24c-1,.94-29.83,27.61-111.2,22.16-81.36-5.45-69.95,24.08-69.95,24.08,0,0-35.6,41.23-56.34,36.36s-46.64-20.05-65.89-24.68-43.39-10.91-70.29-14.66-150.13,28.6-150.13,28.6c0,0-184.02,30.26-235.84,141.85-51.82,111.59-87.53,58.92-102.99,53.85s-3.44,1.89-3.44,1.89l-16.23-22.75s-170.16-98.81-254.17-53c-84.01,45.81-59.57,115.51-59.57,115.51,0,0,186.96-74.3,317.18,24.51,130.21,98.81,144-43.88,182.3-78.62,38.3-34.74,206.81-207.93,342.38-159.63s111.83,65.15,146.3,36.81,93.45-80.21,176.17-77.26c82.72,2.96,57.45-55.04,57.45-55.04h-25.74Z"/>
      <path class="cls-32" d="m-44.41,1073.47s131.95-50.6,214.69-21.43c82.74,29.17,43.72,8.43,111.23,52.34s106.18,35.64,140.8-31.99c34.62-67.62,49.95-71.86,49.95-71.86,0,0,153.79-159.76,287.75-148.73s132.15,84.06,183.74,44.73,102.16-81.74,162.91-77.26c60.75,4.49,74.35,22.87,74.35,22.87l-16.52,8.78s-71.37-9.55-187.8,90.02c-116.43,99.57-178.63,30.64-204.21-6.13s-106.45-64.34-208.1,58.21c-101.65,122.55-149.91,254.3-277.82,214.47,0,0-39.06-14.92-72-75.25-32.94-60.33-192.26,26.22-220.6,53.8-28.34,27.57-38.37-112.6-38.37-112.6Z"/>
    </g>
  </g>
  <g id="FLOR_1" data-name="FLOR 1">
    <g>
      <path class="cls-59" d="m880.36,358.71s6.45-67.92,76.66-63.2c0,0,32.68.77,48.26,44.17,0,0,6.13,15.57-10.21,24.77-16.34,9.19-18.64,29.62-18.64,29.62l-77.36,16.09-18.71-51.44Z"/>
      <path class="cls-59" d="m798.4,401.66s-46.1-49.98-31.06-74.74,31.64-48.51,57.68-45.45,34.98,7.66,46.98,21.45,0,62.55,0,62.55l-73.6,36.19Z"/>
      <path class="cls-59" d="m698.24,478.4s-5.21-2.89-23.6-4.68-16.6-32.68-16.6-32.68c0,0,.51-60.77,42.64-76.6,0,0,43.27-15.98,84.95,21.5,41.69,37.48,41.43,47.95,41.43,47.95,0,0-73.28,36.77-75.32,37.79l-53.51,6.72"/>
      <path class="cls-3" d="m889.96,361.44s5.15-52.36,61.2-48.72c0,0,26.09.59,38.52,34.05,0,0,4.89,12.01-8.15,19.09-13.04,7.09-14.88,22.83-14.88,22.83l-61.76,12.4-14.93-39.66Z"/>
      <path class="cls-3" d="m808.22,396.3s-35.21-41.25-23.72-61.69,24.17-40.04,44.06-37.51c19.31,2.45,26.72,6.32,35.88,17.7,9.17,11.38,0,51.63,0,51.63l-56.22,29.87Z"/>
      <path class="cls-3" d="m715.77,469.41s-3.85-2.2-17.43-3.55c-13.58-1.36-12.26-24.82-12.26-24.82,0,0,.38-46.16,31.5-58.18,0,0,31.97-12.14,62.77,16.33,30.8,28.47,30.61,36.42,30.61,36.42,0,0-54.14,27.93-55.65,28.7l-39.53,5.11"/>
      <path class="cls-62" d="m819.71,463.56s-34.95-49.58-15.88-77.16c19.06-27.57,50.04-32,71.49-28.6s48,12.6,46.64,39.49-32.69,62.21-32.69,62.21l-20.42,32.77-25.19-9.53-22.47-18.38-1.48-.8Z"/>
      <path class="cls-62" d="m776.07,535.06s-11.39-11.13-49.52-4.32-30.98-44.26-27.57-55.15c3.4-10.89,14.3-55.15,50.38-57.87s59.91,17.7,60.6,18.72,28.6,48.68,28.6,48.68c0,0-1.36,34.04-2.72,35.06s-59.76,14.87-59.76,14.87h0"/>
      <path class="cls-62" d="m902,484.19c.77-1.24,34.25-24.59,60.81-26.98s38.47-22.81,26.55-47.66c-11.91-24.85-30.3-41.19-51.06-29.28s-41.87,49.97-41.87,49.97c0,0-17.35,28.48-15.99,31.81s21.57,22.14,21.57,22.14"/>
      <path class="cls-78" d="m1167.68,618.13s-63.09-57.85-112.87-47.89c0,0-28.34,2.72-27.57,33.15,0,0,6.13,22.42,32.94,0,26.81-22.42,70.13,2.6,71.83,9.41,1.7,6.81,13.96,23.49-62.64,32.34-76.6,8.85-151.15-48.34-151.15-48.34,0,0-44.6-40.51-56.51-65.02,0,0,2.04-17.7,16.68-27.23s31.32-22.47,25.53-34.04-21.11-23.15-46.3,16.68c0,0,3.74-46.3-24.17-35.74-27.91,10.55-9.19,39.49-5.11,49.36,0,0-39.83-24.85-51.74,4.09-11.91,28.94,5.79,35.4,5.79,35.4,0,0,15.32,4.09,38.13-2.38,22.81-6.47,25.53,5.45,25.53,5.45,0,0,11.91,40.17,80.34,85.11,68.43,44.94,140.43,50.74,182.3,43.75s35.23,46.04-23.49,48.38c0,0-20.94,5.91-64.34-18.6-43.4-24.51-49.53-11.36-49.02-6.96s9.76,36.42,83.74,43.73c51.57,5.1,61.09-4.76,97.02-32.18,0,0,23.53-88.05,15.09-88.45"/>
    </g>
  </g>
  <g id="flor_2" data-name="flor 2">
    <g id="branco">
      <path class="cls-58" d="m.07,519.68s43.42-3.57,44.44,54.64c0,0,53.62-33.19,71.49-4.09,0,0,56.65,93.45-115.93,129.7S.07,519.68.07,519.68Z"/>
      <path class="cls-58" d="m.07,900.62c0,2.55,35.09,50.78,63.5,38.13,5.71-2.54,10.54-4.18,14.89-7.91,15.19-13.02,10.85-25.76-6.89-62.39,0,0,48,38.3,81.19,7.66s-56.68-113.36-56.68-113.36c0,0-109.79-17.36-111.32-14.3s-32.68,67.91-32.68,67.91L.07,900.62Z"/>
      <path class="cls-58" d="m.07,760.19c0,1.85,109.08,74.18,169.05,59.19,10.99-2.75,19.64-11.17,22.74-22.06,5.71-20.07,6.46-56.05-50.84-74.91,0,0,57.36-25.71,19.91-64.85s-197.11,63.83-197.11,63.83L.07,760.19Z"/>
    </g>
    <g id="rosa">
      <path class="cls-48" d="m-2.43,552.12s32.68-2.57,33.45,39.28c0,0,40.36-23.86,53.81-2.94,0,0,42.65,67.19-87.26,93.25-129.91,26.07,0-129.6,0-129.6Z"/>
      <path class="cls-48" d="m117.92,816.84c-10.8-2.21-22.63-5.94-32.43-10.97-.48-.18-4.16-1.94-4.64-2.12-6.73-2.52-9.51-3.22-17.62-6.79-2.59-1.14-7.35-3.77-9.76-5.18-9.03-3.64-16.81-9.63-25.77-13.46-5.76-2.46-10.42-6.35-15.68-9.74-3.31-2.14-8.93-5.64-11.96-8.39-.99-.46-.68,1.03-1.66.57-1.44-.68-2.22-1.73-2.47-2.87-6.91-.69-11.46-.94-11.73-.43-1.23,2.31-26.22,51.25-26.22,51.25l38.5,63.58c0,1.93,28.16,38.32,50.95,28.77,4.58-1.92,8.45-3.15,11.95-5.97,12.19-9.83,8.7-19.44-5.53-47.08,0,0,38.51,28.9,65.14,5.78,10.14-8.8,5.96-23.29-3.09-37.87-.83-.28,2.84,1.21,2.01.91Z"/>
      <path class="cls-48" d="m7.82,754.78c0,1.38,87.67,55.42,135.87,44.22,8.83-2.05,15.79-8.34,18.28-16.48,4.59-15,5.19-41.88-40.86-55.97,0,0,46.11-19.21,16.01-48.45-30.1-29.24-158.42,47.69-158.42,47.69l29.13,28.99Z"/>
    </g>
    <path class="cls-78" d="m1155.46,808.4s-398.09-141.14-655.2,124.9c0,0-183.83,223.66,82.72,270.38,0,0,62.04-2.3,42.13-32.94-19.91-30.64-36,0-54.38-4.6-18.38-4.6-146.3-22.21-75.83-166.98,70.47-144.77,280.34-177.75,280.34-177.75,0,0,211.54-38.29,386.88,19.94,175.34,58.23,0,0,0,0,0,0-5.35-24.67-6.66-32.97"/>
    <path class="cls-78" d="m.07,987.34s91.93,155.83,233.63,75.41c141.7-80.43,234.38-124.85,266.55-129.45,0,0,41.27-38.39,44.04-40.64s-180.38,56.73-299.1,132.55c-118.72,75.83-203.75-30.64-203.75-30.64L.07,935.6l-54.37,12.26L.07,987.34Z"/>
    <path class="cls-78" d="m2825.45,689.72s91.4-44.54,114.38-8.49c12.45,19.53,15.01,35.23,10.84,49.65s6.31,29.58,21.64,29.78c23.87.3,48.67,7.43,50.24,35.34,3.06,54.57-38.3,63.76-47.49,63.76s178.65,57.65,417.1-63.2c.77-.39,1.52-.82,2.24-1.3,14.39-9.39,160.52-106.97,86.19-151.84,0,0-34.49-24.42-84.18,47.02-1.34,1.92-2.96,3.62-4.82,5.04-9.82,7.5-40.59,25.44-70.32-15.69-36-49.82,63.57-154.75,134.04-170.84,69.98-15.97,127.87-30.44,161.68,54.88.51,1.3.9,2.64,1.17,4.01,2.8,14.27,15.27,94.64-44.94,154.68-14.23,14.18-5.2,38.43,14.85,39.64,39.51,2.38,95.62-6.89,147.57-60.91.4-.42.83-.81,1.26-1.19,2.73-2.39,15.99-17.31,19.42-83.87,3.83-74.3,95.74-146.3,170.04-150.13,67.1-3.46-12.54,110.54-28.6,132.65-1.71,2.36-3.86,4.37-6.32,5.93-18.03,11.47-96.53,64.46-70.02,101.16,21.1,29.21,67.03,5.32,92.19-11.24,10.11-6.65,23.62-4.47,31.07,5.07l7.08,9.06c10.55,13.51,3.3,33.41-13.48,36.96l-37.4,7.92c-3.96.84-7.62,2.69-10.64,5.38-14.09,12.55-51.77,49.21-9.84,47.94.51-.02,1.01-.03,1.51-.05,20.19-.75,31.6,22.9,18.46,38.25l-2.28,2.66c-2.52,2.95-5.73,5.24-9.36,6.59-10.97,4.1-33.63,7.2-46.6-28.93-2.53-7.05-8.26-12.45-15.46-14.53-24.6-7.11-86.71-17.67-193.68,9.79-143.23,36.77-160.09,40.6-165.45,39.83s100.23,23.54,52.69,177.31c-.32,1.04-.59,2.1-.77,3.17-1.65,9.93-18.43,75.45-172.17,57.73,0,0-86.17-9.89-66.56-70.36,1.79-5.51,5.57-10.13,10.58-13.03,7.55-4.35,20.48-9.76,37.6-9.3,28.34.77,161.62,22.98,153.19-52.09-8.43-75.06-37.78-114.89-82.08-114.13s-177.58,52.85-225.83,72c-48.26,19.15-348.41,135.04-415.66-100.6-53.78-188.45-27.47-158.63-14.78-139.13,3.78,5.81,9.97,9.61,16.86,10.38l64.82,7.22"/>
  </g>
  <g id="direita">
    <g>
      <path class="cls-20" d="m2813.43,658.53s112.61-213.92,271.93-317.07c159.32-103.15,108.26,13.28,85.79,67.4-22.47,54.13-16.34,116.43,46.98,113.36s163.4-231.83,163.4-231.83c0,0,70.5-186.4,222.78-229.54,13.49-3.82,27.81-4.04,41.29-.19,18.29,5.22,38.66,18.59,38.11,52.3-.24,14.8-4.55,29.26-12.09,42-22.39,37.85-86.23,155.64-19.46,165.05,79.66,11.23,185.87-98.04,234.89-98.04s7.94,60.26,7.94,60.26c0,0-232.62,112.34-307.17,83.74-74.55-28.6,7.15-87.83-5.11-147.06-9.4-45.46-53.34-50.54-100.43-8.51-14.27,12.74-30.3,39.15-44.26,71.15-21.66,49.65-80,222.3-231.15,319.32,0,0-67.6,40.22-102.63-27.13-8.95-17.21-13.09-36.5-12.65-55.89.78-34.22-4.05-106.24-63.7-57.91-76.6,62.04-133.4,101.73-202.21,219.86-25.01,42.93,12.55-19.51-.62-6.94,0,0-.52-14.02-11.65-14.32"/>
      <path class="cls-14" d="m2830.57,671.53s17.15-30.76,46.03-68.58c43.41-56.83,111.48-131.83,173.01-160.04,0,0,34.7-18.24,41.09,47.69,6.4,65.93,1.84,82.41,37.82,111.92,30.79,25.25,100.82-8.66,153.84-62.76,8.94-9.13,18.81-20.24,27.08-31.11,57.35-75.35,53.56-85.01,74.12-119.18,9.56-15.89,25.78-46.95,37.79-74.55,13.81-31.74,28.83-58.8,29.11-59.32.51-.96,25.51-85.1,102.13-76.51,0,0,60.35,12.72,18.89,105.19s54.22,91.86,100.98,79.6c46.77-12.27,171.65-51.84,226.52-88.1s35.56,29.95,35.56,29.95l-39.55,36.77s-213.41,103.03-281.13,87.32c-99.06-22.98-73.53-52.6-75.57-80.17-2.04-27.57-22.98-30.13-52.6,7.15-29.62,37.28-74.04,108.77-82.72,123.57s-55.15,150.13-188.94,196.6c-133.79,46.47-161.36-22.98-161.36-22.98,0,0-20.65-66.97-48-83.74-31.4-19.26-103.15,52.43-111.84,97.94,0,0-22.06,3.93-62.26,19.19-40.2,15.26,0,0,0,0,0,0,1.55-7.81,0-15.83Z"/>
      <path class="cls-51" d="m3909.9,330.06c-156.65,75.4-260.79,110.72-294.5,99.75-33.7-10.98-74.3-30.38-74.26-68.16.03-37.77-22.17-35.6-22.17-35.6-33.63-7.5-115.22,148.44-115.22,148.44-73.47,174.56-188.17,202.47-188.17,202.47-135.15,45.79-161.36-22.98-161.36-22.98-24.85-72.51-42.89-109.28-97.29-71.52-54.4,37.75-62.55,85.72-62.55,85.72,32.67-7.25,46.99,13.06,46.99,13.06,26.04,43.6-12.26,85.08-12.26,85.08,17.87-4.09,40.35-5.63,40.35-5.63,17.88-52.61,32.16-61.26,32.16-61.26,30.64-23.49,24,27.57,28.6,64.85,4.6,37.28,8.17,67.4,144.51,27.06,136.34-40.34,168.48-91.71,168.48-91.71-9.61-7.39-53.07-34.42-6.07-101.3,47-66.88,116.48-88.58,116.48-88.58,48.1-79.5,56.61-27.04,57.21-15.95.37,1.42.6,2.86.77,4.38.05-.01.1-.02.16-.03,65.37-13.78,92.99,38.14,92.99,38.14,66.68,49.55,291.81-97.91,291.81-97.91l24.49-28.23s145.53-155.49-11.12-80.09Z"/>
      <path class="cls-92" d="m3895.11,472.88s-98.81,22.2-134.82,122.2c0,0-102.11,43.87-139.91,26.36,0,0,2-63.05-17.95-88.86,0,0,28.45,62.71,292.68-92.67,0,0,124.83-45.85,122.53-43.55-2.3,2.3-122.53,76.52-122.53,76.52Z"/>
      <path class="cls-92" d="m2975.17,859.51s136.62,42.94,323.37-23.34c0,0,128.64-111.05,151.7-193.6,0,0-29.36,10.05-49.84,40.97-6.39,9.65-16.05,16.78-27.34,19.34-8.84,2-19.7,2.03-31.29-3.5,0,0-35.71,60.35-221.07,105.26,0,0-88.19,23.97-87.43-43.69.77-67.66-21.83-114.16-65.25-.53,0,0,52.33-3.17,54.63,35.31,2.3,38.49-26.04,59.93-47.49,63.76Z"/>
      <path class="cls-92" d="m3453.97,509.11s41.74-10.24,57.97-11.57c0,0-1.61-30.98-17.45-31.55,0,0-16.2.26-40.53,43.12Z"/>
      <path class="cls-5" d="m3117.05,931.93s-12.52,81.87,124.06,35.07c73.02-25.02,176.63-94.05,190.04-118.89,0,0-16.63-23.13-112.06,10.69-95.43,33.82-108.33,39.44-149.41,54.84-41.08,15.4-51.4,17.92-52.63,18.29Z"/>
      <path class="cls-5" d="m3299.97,836.43s127.87-118.96,146.08-192.06c0,0,41.7-21.98,56.76,27.01,15.06,48.99-104.66,142.73-202.84,165.05Z"/>
      <path class="cls-5" d="m3595.01,695.08c-.71.89,35.76,22.89,155.85-31.83,0,0,3.93-21.78,5.54-51.52,0,0,1.1-11.87,3.5-18.18,0,0-107.98,43.87-139.91,26.36,0,0-3.41,48.2-24.99,75.17Z"/>
      <path class="cls-85" d="m3830.2,658.7s35.42,49.14,77.8,0c42.38-49.14-11.4-56.29-11.4-56.29,0,0-55.72,36.9-66.41,56.29Z"/>
      <path class="cls-85" d="m3470.65,900.45s-12.7-40.69-39.5-52.35c0,0-18.01,21.57-59.57,49.45-36.48,24.47-95.56,54.98-115.74,63.98,0,0-112.26,47.43-135.24-5.47,0,0-5.56-12.05-3.55-24.13,0,0-46.15,15.21-84.15,19.67,0,0,108.64,159.23,196.12,108.17,0,0,36-15.38,55.79-38.84,0,0,10.6-16.11,44.13-14.86,1.36.05,137.75-45.33,145.36-90.98.85-5.11-1.53-10.2-3.64-14.63Z"/>
      <path class="cls-85" d="m3506.47,887.29s16.05-24.78,38.49-44.11c0,0-74.24,20.33-77.39,17.35,0,0,22.56,7.65,38.9,26.76Z"/>
      <path class="cls-85" d="m3750.88,663.76s3.95,45.75-70.66,79.69c-74.61,33.94-116.14,29.85-115.46-3.51,0,0,2.75-12.71,10.72-21.96,21.39-24.8,19.39-22.51,19.54-22.38,0,0,41.03,20.67,155.85-31.83Z"/>
      <path class="cls-53" d="m3828.41,659.21c.98-1.25,30.9,42.09,69.33,8.64,38.43-33.45-2.92,38.27-2.92,38.27,0,0-48.06,29.68-70.93,3.49,0,0-21.19-17.43,4.52-50.41Z"/>
      <path class="cls-53" d="m3895,758.67c-2.14,1.27-41.19,30.25-33.42,44.43,7.78,14.17,19.77,2.87,33.86,10.39s18.91-30.6,18.91-30.6l-19.35-24.22Z"/>
      <path class="cls-53" d="m3735.29,803.64c.62-.04,27.18,9.66,33.65,54.26,6.47,44.6,13.62,49.95,52.43,29.4,38.81-20.55,48.19-31.29,48.19-31.29,0,0-15.45,2.02-27.39-30.56-11.94-32.58-106.87-21.81-106.87-21.81Z"/>
      <path class="cls-80" d="m2750.81,841.24s37.53,166.44,78.38,198.61c40.85,32.17,68.94,30.64,84.77,20.94,15.83-9.7-17.87-32.78-14.81-57.58,1.05-8.54,4.6-44.25,41.36-20.91,36.77,23.34,64.59,65.15,94.85,88.41,30.26,23.26,90.66,81.72,158.43,63.09,7.77-2.14,62.81-18.93,93.66-61.04,0,0-19.47-16.36-7.54-43.53,0,0-51.9,39.72-87.65,41.25-35.74,1.53-85.72-29.19-118.32-67.28-32.59-38.09-41.89-50.76-41.89-50.76,0,0-103.28,21.02-182.94-19.83,0,0-69.96-31.66-91.91-123.57l-1.15-2.3s-4.72,31.52-5.23,34.5"/>
      <path class="cls-80" d="m3328.09,1006.91s122.72-39.74,145.36-90.98c0,0,26.68,69.66-15.42,83-42.11,13.34-42.62,12.32-129.94,7.98Z"/>
      <path class="cls-80" d="m3528.01,932.55s45.18-59.26,88.08-44.41c42.89,14.85,35.85,78.17,41.16,100.64,5.31,22.47,19.61,83.74,82.93,66.89,63.32-16.85,96.7-40.85,154.05-98.04,57.35-57.19,32.33-69.49,32.33-69.49l-32.17,7.71s-72.51,81.19-129.7,72c-57.19-9.19-48.51-28.18-65.87-79.71-17.36-51.53-16.25-48.7-55.87-69.26,0,0-90.11,22.8-98.83,25.15-8.72,2.35-36.1,35.38-38.49,44.11,0,0,18.87,19.3,22.39,44.41Z"/>
      <path class="cls-85" d="m3911.12,843.19l-14.35,9.43s-17.14,6-26.1,4.44c-.02.01-.03.03-.04.04-.42.35-.85.7-1.33.98.15.1.25.16.25.16,0,0-71.08,48.64-85.38,37.15-14.3-11.49-13.39-27.75-15.23-37.49-1.84-9.74-9.25-47.32-33.65-54.26,0,0-47.31,3.19-91.5,14.39,0,0,37.49,16.5,46.68,42.88,9.19,26.38,15.11,70.56,27.23,86,12.43,15.83,37.54,31.24,84.72,17.19,14.86-4.43,57.58-24.68,92.82-69.11,35.23-44.43,15.88-51.81,15.88-51.81Z"/>
    </g>
  </g>
  <g id="listrones">
    <g id="listras_2" data-name="listras 2">
      <g>
        <polygon class="cls-63" points="1616.49 1007.53 2472.59 1503.41 2100.33 1487.41 1573.29 1025.09 1616.49 1007.53"/>
        <polyline class="cls-12" points="1533.45 1024.82 1856.76 1494.63 2100.33 1478.63 1573.29 1016.31 1533.45 1024.82 1573.29 1016.31"/>
        <polyline class="cls-40" points="1492.68 1032.87 1533.45 1024.82 1845.75 1478.63 1651.15 1494.63 1493.77 1032.75"/>
        <path class="cls-1" d="m1443.66,1035.59l-14.82,442.59h216.7l-151.78-445.43s-49.38-18.73-50.11,2.83c-.72,21.57,0,0,0,0"/>
        <polyline class="cls-24" points="1402.55 1035.04 1245.52 1532.38 1428.84 1494.63 1443.66 1035.59"/>
        <path class="cls-57" d="m1382.88,1034.08l-279.83,491.61,154.39-31.06,145.11-459.59s-10.47-108.07-22.73-69.51"/>
        <path class="cls-88" d="m1359.2,1031.93s-350.34,507.69-347.16,507.69,117.8-60.98,117.8-60.98l253.04-444.55"/>
        <polyline class="cls-87" points="1299.07 1019.36 889.61 1539.61 1052.47 1478.63 1359.2 1031.93 1299.07 1019.36"/>
        <path class="cls-71" d="m1279.27,1017.59l-434.6,487.16,82.64-8.27,371.76-472.35s6.12-35.59-19.8-6.54"/>
      </g>
    </g>
    <g id="listras">
      <g>
        <polygon class="cls-54" points="2624.77 1002.36 3492.85 1491.63 3120.6 1476.37 2579.57 1023.84 2624.77 1002.36"/>
        <polyline class="cls-46" points="2553.71 1035.28 2877.02 1483.26 3120.6 1468 2593.55 1027.16 2553.71 1035.28 2593.55 1027.16"/>
        <polyline class="cls-33" points="2512.95 1042.95 2553.71 1035.28 2866.01 1468 2671.41 1483.26 2514.03 1042.84"/>
        <path class="cls-37" d="m2463.93,1045.55l-14.82,422.03h216.7l-151.78-424.73s-49.38-17.86-50.11,2.7c-.72,20.56,0,0,0,0"/>
        <polyline class="cls-66" points="2422.81 1045.02 2265.79 1519.26 2449.11 1483.26 2463.93 1045.55"/>
        <path class="cls-29" d="m2404.29,1042.97l-279.83,468.77,154.39-29.62,145.11-438.24s-10.47-103.05-22.73-66.28"/>
        <path class="cls-44" d="m2380.6,1040.91s-350.34,484.09-347.16,484.09,117.8-58.15,117.8-58.15l253.04-423.89"/>
        <polyline class="cls-68" points="2320.47 1028.93 1911.01 1525.01 2073.88 1466.86 2380.6 1040.91 2320.47 1028.93"/>
        <path class="cls-45" d="m2300.68,1022.7l-434.6,464.52,82.64-7.89,371.76-450.4s6.12-33.94-19.8-6.23"/>
      </g>
    </g>
    <g id="redondo">
      <path class="cls-64" d="m1831.54,569.22s-11.93-26.68-17.16-35.15"/>
      <path class="cls-84" d="m1831.54,569.22s92.33-62.29,197.84-3.4c105.51,58.89,0,0,0,0,0,0,4.39-17.57,13.25-31.74,0,0-101.1-76.33-228.25,0-127.15,76.33,0,0,0,0,0,0,9.98,14.96,17.16,35.15"/>
      <path class="cls-28" d="m1787.16,497.16s126.43-102.46,285.16-1.93c158.73,100.54,0,0,0,0,0,0-12.38,9.32-29.7,38.84-17.32,29.52,0,0,0,0,0,0-97.53-74.46-228.25,0-130.72,74.46,0,0,0,0,0,0-6.7-17.59-27.22-36.91"/>
    </g>
  </g>
  <g id="oculos">
    <g id="frame">
      <path class="cls-65" d="m2109.36,478.32c-5.63,5.15-39.15,20.43-68.77,103.66-27.09,76.14,28.78,182.22,45.09,215.72.94,1.92,1.97,3.78,2.87,5.71,8.08,17.21,52.52,107.42,119.52,157.97,74.29,56.05,142.98,64.34,142.98,64.34,0,0,145.42,36.4,296.94-33.26,6.64-3.05,12.71-7.03,18.06-12,11.99-11.13,34.54-31.31,46.53-56.36,17.36-36.26,39.83-120.51,36.26-224.68-3.57-104.17-44.43-182.81-125.11-232.85-80.68-50.04-254.3-46.47-254.3-46.47,0,0-131.05,3.89-204.26,31.66,0,0-41.7,13.62-55.83,26.55Z"/>
      <path class="cls-65" d="m1717.98,465.74s76.53,19.23,109.64,154.59c33.11,135.36-154.53,329.15-154.53,329.15,0,0-29.43,38.46-94.92,61.39-65.49,22.93-186.17,40.68-292.13,0-105.96-40.68-124.36-222.64-124.36-222.64,0,0-11.77-147.19,39-221.9,50.77-74.71,110.38-90.24,164.09-104.29,53.72-14.05,252.39-36.24,353.2,3.7Z"/>
      <g>
        <path class="cls-11" d="m2213.7,979.77s70.98,57.7,189.45,64.34c118.47,6.64,189.45-8.68,255.83-44.94,66.38-36.26,90.38-146.04,90.38-146.04,0,0,22.47-112.34,9.19-194.55s-58.21-160.85-103.15-186.38c-44.94-25.53-70.47-42.38-179.23-54.64-108.77-12.26-210.38,4.6-290.55,19.4-80.17,14.81-108.77,54.13-108.77,54.13,0,0-44.94,37.28-51.57,95.49-6.64,58.21-.51,84.77,13.79,129.7,14.3,44.94,37.79,93.96,72.51,150.64,34.72,56.68,83.59,100.2,102.13,112.85Z"/>
        <path class="cls-42" d="m1727.86,454.56c2.92,1.15,85.81,30.22,116.4,154.62,34.47,140.17-159.06,347.86-159.06,347.86,0,0-30.64,39.83-98.81,63.57-68.17,23.74-193.79,42.13-304.09,0-110.3-42.13-129.45-230.55-129.45-230.55,0,0-12.26-152.43,40.6-229.79,52.85-77.36,114.89-93.45,170.81-108,55.2-14.37,258.3-39.1,363.6,2.28Z"/>
        <path class="cls-89" d="m1687.53,442.68s336.49,7.42,527.08-10.95c0,0,96.09-15.28,133.36-16.78,0,0-12.48-9.4-27.8-10.16s-566.81,43.2-759.06,19.69c0,0-26.04,3.14-41.36,8.96,0,0,101.36-8.01,167.79,9.25Z"/>
        <path class="cls-89" d="m2758.55,658.57s49.28-2.55,61.02,2.04c20.27,7.93,7.68,44.77.51,44.81-3.74.02-47.4-6.68-57.53-1.66,0,0,.2-20-4-45.19Z"/>
        <path class="cls-89" d="m1156.6,673.69s-50.3-4.6-61.02,2.04c-10.72,6.64-4.21,44.3-.51,44.81,3.7.51,47.19-5.84,57.31-.81,0,0,.85-20.82,4.22-46.04Z"/>
        <path class="cls-21" d="m1848.37,626.4s.23-11.23,4.99-11.91,85.79-7.49,158.3-3.74c0,0,6.81,2.72,6.47,15.66-.34,12.94,4.95,17.03,4.95,17.03,0,0-.34-20.27,1.27-48.1,0,0-4.18-8.08-8.95-8.08s-48.34-3.4-81.36-2.72-83.18,6.13-85.68,7.15-7.13,5.93-6.07,9.92,4.41,15.02,5.19,26.17l.88-1.37Z"/>
      </g>
    </g>
    <g id="LISTRAS">
      <path class="cls-67" d="m2624.77,1002.36s3.64-85.77,24.32-134.03c20.68-48.26,34.97-90.5-13.16-106.58s-35.43-35.63,5.42-96.91c43.2-64.8,83.29-96.35,43.61-146.19-39.67-49.84-112.15-75.07-123.99-77.56,0,0,27.61,22.9-23.46,67.84-51.06,44.94-91.57,133.11-99.74,148.09-8.17,14.98-26.21,71.83-29.28,86.81s-10.21,63.66,37.11,57.19c47.32-6.47,65.02-16.34,85.79,22.47,0,0,21.45,23.83,10.55,50.38-10.89,26.55-35.06,63.32-20.43,93.28,14.64,29.96,29.07,42.49,40.71,53.27,0,0,42.07-9.42,62.55-18.05Z"/>
      <path class="cls-60" d="m2528.03,433.43s4.22,9.23-10.24,40.29c-13.28,28.51-47.58,62.61-82.64,125.45-18.04,32.34-44.77,82.86-52.94,132.54-8.17,49.68,2.41,73.41,24.44,93.84,22.03,20.43,40.92,17.36,64.41,15.32,23.49-2.04,15.32,30.64,15.32,30.64,0,0-22.47,60.77-7.66,95.23,12.96,30.16,57.04,51.13,74.99,57.1l8.51-3.43s-27.58-24.3-38.82-53.92c-11.23-29.62-3.49-41.87,18.98-91.23,22.47-49.36-28.84-90.83-67.31-79.25,0,0-2.72,1.9-26.72,4.62s-47.84-2.9-37.03-53.54c10.81-50.64,24.17-83.49,26.89-88.68,2.72-5.19,50.21-106.64,99.74-148.09,49.53-41.45,29.22-67.58,25.21-68.68s-35.14-8.21-35.14-8.21Z"/>
      <path class="cls-75" d="m2220.95,436.48s-72.41,109.82-78.23,151.8c-4.85,34.98,25.53,85.62,108.77,124.94,35.85,16.94,51.62,41.36,57.95,63.67,6.61,23.29,3.49,48.23-7.82,69.63-7.24,13.7-23.58,36.87-19.75,43.89,6.13,11.23,26.55,22.47,50.04,28.09s61.99,18.16,101.33,116.57c0,0,69.32,2.73,120.46-11.22,0,0-58.31-20.59-72.43-59.9,0,0-10.16-17.93,5.11-92.43,0,0,7.66-32.34-15.32-30.64-22.98,1.7-41.16,5.79-64.41-15.32-23.25-21.11-49.55-80.26,28.5-226.38,0,0,30.35-58.55,87.39-121.53,1.82-2.01,3.36-4.27,4.52-6.72,4.11-8.63,12.09-28.95.97-37.49,0,0-132.08-29.6-307.08,3.05Z"/>
      <path class="cls-86" d="m2039.74,584.48s-5.96,109.33,42.72,137.25c0,0,35.4,25.19,90.21,46.98,49.15,19.54,57.78,36.13,49.22,76.67-1.46,6.89-3.37,13.69-5.76,20.31-4.37,12.08-11.72,41.18,14.76,49.74,33.7,10.89,106.85,18.51,133.94,113.08,0,0,16.47,3.97,68.42,6.55,0,0-34.18-108.74-102.1-120.15s-34.05-58.54-29.53-68.4c4.53-9.86,42.63-89.05-50.13-133.3s-105.25-84.52-101.93-124.17c1.29-15.45,16.97-51.13,32.66-80.77,15.32-28.94,24.93-48.42,38.74-71.8,0,0-95.49,18.66-134.06,59.2-15.47,16.26-28.54,32.53-35.74,47.66-10.76,22.6-11.4,41.14-11.4,41.14Z"/>
      <path class="cls-56" d="m2364.83,1028.51s-7.21-91.13-133.94-113.08c0,0-30.7-9.35-14.76-49.74,15.55-39.37,20.02-77.33-38.79-95.61-3.88-1.21-7.67-2.69-11.39-4.35-10.23-4.58-30.3-13.75-47.07-22.56-20.21-10.61-34.26-19.35-41.71-26.21-16.67-15.33-33.61-50.83-33.61-153.47,0,0-22.38,68.7-4.05,126.57,17.74,56.03,18.85,51.57,49.05,113.35,33.17,67.87,73.06,122.74,119.52,157.97,46.47,35.23,89.83,54.08,156.75,67.13Z"/>
      <path class="cls-10" d="m2624.77,1002.36s52.15-11.77,87.83-78.25c35.68-66.48,36.71-194.91,36.63-203.75-.08-8.84,5.01-130.28-68.07-206.25,0,0,36.6,40.04-13.64,110.04-37.68,52.5-50.02,67.01-54.33,71.53-2.43,2.55-4.65,5.3-6.64,8.21-8.97,13.1-25.91,43.45,3.77,51.7,38.62,10.73,74.53,17.03,48.66,84.78-10.72,28.07-13.57,36.58-19.4,54.13-8.6,25.86-12.97,60.5-14.81,107.87Z"/>
    </g>
    <g id="LISTRAS_3" data-name="LISTRAS 3">
      <path class="cls-75" d="m2767.19,702.5s6.67-28.52,18.76-45.42l11.95.08s-18.4,22.32-19.42,44.42c0,0-2.83-.27-11.3.91Z"/>
      <path class="cls-56" d="m2797.9,657.17s5.5.1,8.24.38c0,0-16.09,29.27-12.86,45.32,0,0-8.91-.72-14.8-1.27,0,0,2.4-22.66,19.42-44.42Z"/>
      <path class="cls-86" d="m2793.28,702.87s-1.34-19.4,12.86-45.32c0,0,6.5.82,7.29.98s-9.56,17.4-4.96,45.87l-15.19-1.54Z"/>
      <path class="cls-23" d="m1139.19,673.13c1.03.51-3.57,20.92,9.32,45.44,0,0-10.22-.88-14.3-.75s0-.52,0-.52c0,0-9.96-14.56-7.66-45.13,0,0,11.1.2,12.64.96Z"/>
      <path class="cls-22" d="m1124.17,717.88s-11.66-25.29-5.91-45.68c0,0,7.65-.05,8.3-.03,0,0-3.57,23.69,7.66,45.13l-10.05.58Z"/>
      <path class="cls-90" d="m1102.16,673.57s-7.37,20.01,8.2,45.78c0,0,10.16-1.26,13.81-1.47,0,0-10.64-23.89-5.91-45.68,0,0-11.55.16-16.1,1.37Z"/>
    </g>
    <g id="LISTRAS_2" data-name="LISTRAS 2">
      <path class="cls-39" d="m1640.73,978.74s-27.54-50.81,29.9-96.76,100.34-86.18,50.55-148.41c-49.79-62.23-13.02-63.76,27.57-95.17,40.6-31.4,61.9-51.28,63.12-67.39,0,0,12.33,28,15.73,49.31,3.4,21.31,16.22,57.58-28.64,152.34s-129.18,184.11-158.25,206.07Z"/>
      <path class="cls-34" d="m1569.24,1013.85s-88.3-37.66,12.3-155.11c0,0,21.45-25.53,40.85-42.38,19.4-16.85,0-66.89-37.28-65.36-37.28,1.53-82.72-13.28-80.17-54.64s20.94-94.47,53.11-136.85,104.21-110.11,76.09-112.52c0,0,59.72,4.35,87.14,18.39,28.6,14.64,64.68,35.06,90.61,105.64,0,0,10.67,11.98-63.12,67.39,0,0-34.98,22.98-39.57,27.06s-29.87,21.06,12,68.1c41.87,47.05,26.04,93.26-50.55,148.41,0,0-51.38,35.74-29.9,96.76,0,0-40.61,26.64-71.5,35.11Z"/>
      <path class="cls-91" d="m1559.84,1016.71c.33-.1,9.4-2.85,9.4-2.85-14.08-10.08-40.55-20.55-34.35-71.86,6.2-51.31,87.5-125.63,87.5-125.63,0,0,16.34-14.04,1.63-41.48-14.71-27.44-38.91-23.88-38.91-23.88-81.19.51-80.26-52.09-80.26-52.09,7.57-102.13,74.26-164.95,113.52-210.25,39.26-45.3,15.77-41.67,15.77-41.67l-43.93-3.23c-43.92,60.93-113.35,230.13-125.61,290.24-12.26,60.11,19.02,62.26,24.32,63.21,16.24,2.93,36.45-1.79,45.13,5.36s-8.81,43.57-18.72,60.43c-7.96,13.52-16.93,22.24-25.53,51.4-2.12,7.19-5.71,19.59-5.11,31.32,2.82,54.67,74.82,71.08,74.82,71.08l.33-.1Z"/>
      <path class="cls-90" d="m1381.62,458.29s-65.79,130.32-49.45,180.71c0,0,5.11,30.3,46.3,45.96,41.19,15.66,25.53,81.36,10.55,100.77-14.98,19.4-32,64-26.21,81.7,5.79,17.7,12.6,26.21,38.47,29.96s34.72,3.06,48,50.04c0,0,1.36,19.4-7.15,40.51-8.51,21.11,2.07,38.88,10.91,46.5,0,0,60.45-2.9,106.47-17.64.65-1.06-132.12-23.68-44.19-153.8,0,0,14.41-25.81,19.91-43.74,3.22-10.48,1.9-19.77-8.85-21.96-3.98-.81-15.66-.71-22.09-1.62-18.6-2.64-54.76,1.61-39.06-65.26,15.82-67.38,102.83-260.62,124.96-286.66,0,0-47.89-3.18-111.14,1.37-30.26,2.17-62.47,6.13-97.45,13.17Z"/>
      <path class="cls-22" d="m1381.62,458.29s-62.38,123.85-49.45,180.71c0,0,5.11,30.64,46.3,45.96,41.19,15.32,26.21,77.28,10.55,100.77-15.66,23.49-30.98,63.32-26.21,81.7,4.77,18.38,16,27.23,38.47,29.96s42.55,2.38,48,50.04c0,0,2.62,22.06-6.4,41.59-2.47,5.35-3.47,11.16-3.11,17.05.53,8.53,3.08,20,13.27,28.38,0,0-19.8.95-30.31.73,0,0-1.02-102.89-98.04-105.96-97.02-3.06-18.38-80.68-12.77-110.81,5.62-30.13,5.62-92.22-32.17-87.98-37.79,4.24-106.45,34.79-97.65-127.04,0,0,12.51-46.8,61.4-87.27,30.19-24.99,73.9-44.99,138.13-57.81Z"/>
      <path class="cls-23" d="m1182.09,603.38s-9.25,113.08,36.88,128.48c0,0,15.03,9.11,51.01,0,35.65-9.03,55.92,6.95,44.48,75.65l-2.78,12.33c-5.39,17.29-2.81,11.57-21.91,42.54-22.63,36.7-19.57,65.64,34.9,66.83s92.94,29.28,98.04,105.96c0,0-28.33.23-51.65-3.41,0,0,21.35-38.38-24.95-51.66-46.3-13.28-58.89-8.85-64-10.55-5.11-1.7-70.13-12.26-31.32-118.81,0,0,13.62-27.23,21.45-41.87,7.83-14.64,5.79-55.49-37.11-58.89-42.89-3.4-63.51-14.62-71.41-62.29,0,0,7.85-67.5,18.36-84.31Z"/>
      <path class="cls-82" d="m1371.08,1031.76s38.71-64.93-88.95-62.21c0,0-69.45-8.51-31.32-118.81,0,0,17.26-35.18,22.76-44.82s4.47-53.56-38.42-55.94c-42.89-2.38-61.46-15.64-71.41-62.29,0,0-5.87,54.07-3.23,89.35,1.69,22.51,9.29,94.62,42.38,154.72,18.77,34.09,43.19,64.19,77.87,78.26,0,0,56.02,21.65,90.31,21.74Z"/>
    </g>
  </g>
  <g id="BOLAS_LOL" data-name="BOLAS LOL">
    <g>
      <circle class="cls-9" cx="280.64" cy="90.44" r="46"/>
      <circle class="cls-49" cx="113.8" cy="1207.07" r="42.45"/>
      <circle class="cls-31" cx="824.9" cy="37.47" r="52.43"/>
      <circle class="cls-81" cx="898.28" cy="1339.27" r="57.96"/>
      <circle class="cls-77" cx="452.97" cy="1395.87" r="91.35"/>
      <circle class="cls-52" cx="75.01" cy="1443.76" r="50.87"/>
      <circle class="cls-52" cx="863.77" cy="76.33" r="38.86"/>
      <circle class="cls-52" cx="296.44" cy="92.14" r="15.81"/>
      <circle class="cls-52" cx="75.61" cy="237.44" r="34.17"/>
      <circle class="cls-52" cx="607.74" cy="47.68" r="10.21"/>
      <circle class="cls-52" cx="1027.88" cy="1064.46" r="37.3"/>
      <circle class="cls-52" cx="312.47" cy="1020.97" r="48.89"/>
      <circle class="cls-52" cx="147.41" cy="1198.23" r="33.61"/>
      <circle class="cls-52" cx="520.88" cy="1440.3" r="47.42"/>
      <circle class="cls-13" cx="572.44" cy="896.69" r="55.91"/>
      <circle class="cls-52" cx="620.22" cy="1347.41" r="12.48"/>
      <circle class="cls-52" cx="172.51" cy="1404.38" r="8.51"/>
      <circle class="cls-52" cx="204.03" cy="1174.25" r="9.64"/>
      <circle class="cls-52" cx="518.36" cy="805.54" r="5"/>
      <circle class="cls-52" cx="998.05" cy="1389.62" r="7.47"/>
      <circle class="cls-52" cx="433.37" cy="52.79" r="5.1"/>
      <circle class="cls-52" cx="22.22" cy="22.22" r="22.22"/>
      <circle class="cls-30" cx="292.39" cy="523.64" r="47.37"/>
      <circle class="cls-50" cx="967.01" cy="841.01" r="45"/>
      <circle class="cls-27" cx="1184.19" cy="1072.52" r="54.32"/>
      <g>
        <circle class="cls-43" cx="847.74" cy="1301.73" r="41.87"/>
        <circle class="cls-52" cx="781.59" cy="168.8" r="9.12"/>
        <circle class="cls-52" cx="120.88" cy="41.49" r="4.02"/>
        <circle class="cls-52" cx="529.96" cy="387.95" r="36.59"/>
        <circle class="cls-52" cx="-13.29" cy="402.07" r="41.01"/>
        <circle class="cls-52" cx="1016.55" cy="55.19" r="32.97"/>
        <circle class="cls-25" cx="551.4" cy="420.99" r="33.04"/>
        <circle class="cls-72" cx="1038.26" cy="76.9" r="21.71"/>
        <circle class="cls-72" cx="43.36" cy="245.24" r="27.68"/>
        <circle class="cls-16" cx="406.02" cy="1207.87" r="23.98"/>
        <circle class="cls-61" cx="15.71" cy="1306.52" r="37.07"/>
        <circle class="cls-9" cx="3303.58" cy="-6.22" r="46"/>
        <ellipse class="cls-49" cx="3865.34" cy="1193.03" rx="34.65" ry="33.96" transform="translate(-15.13 2335.89) rotate(-33.56)"/>
        <circle class="cls-31" cx="2919.9" cy="383.42" r="52.43"/>
        <ellipse class="cls-81" cx="3221.23" cy="1245.09" rx="47.3" ry="46.36" transform="translate(-151.3 1988.47) rotate(-33.56)"/>
        <ellipse class="cls-77" cx="3575.76" cy="1321.11" rx="74.56" ry="73.07" transform="translate(-134.22 2197.15) rotate(-33.56)"/>
        <ellipse class="cls-52" cx="3876.68" cy="1385.51" rx="41.52" ry="40.69" transform="translate(-119.65 2374.25) rotate(-33.56)"/>
        <circle class="cls-52" cx="2925.64" cy="438.08" r="38.86"/>
        <circle class="cls-52" cx="3294.95" cy="7.13" r="15.81"/>
        <circle class="cls-52" cx="3694.6" cy="680.19" r="34.17"/>
        <circle class="cls-52" cx="3064.5" cy="221.08" r="10.21"/>
        <ellipse class="cls-52" cx="3139.84" cy="1015.78" rx="30.45" ry="29.84" transform="translate(-38.1 1905.24) rotate(-33.56)"/>
        <ellipse class="cls-52" cx="3720.74" cy="1030.12" rx="39.91" ry="39.11" transform="translate(50.83 2228.78) rotate(-33.56)"/>
        <ellipse class="cls-52" cx="3838.96" cy="1183.63" rx="27.44" ry="26.89" transform="translate(-14.33 2319.74) rotate(-33.56)"/>
        <ellipse class="cls-52" cx="3517.22" cy="1352.07" rx="38.7" ry="37.93" transform="translate(-161.1 2169.94) rotate(-33.56)"/>
        <ellipse class="cls-13" cx="3521.46" cy="912.56" rx="45.64" ry="44.72" transform="translate(82.6 2099.01) rotate(-33.56)"/>
        <ellipse class="cls-52" cx="3444.9" cy="1270.74" rx="10.19" ry="9.98" transform="translate(-128.19 2116.4) rotate(-33.56)"/>
        <ellipse class="cls-52" cx="3801.33" cy="1347.23" rx="6.95" ry="6.81" transform="translate(-111.05 2326.21) rotate(-33.56)"/>
        <ellipse class="cls-52" cx="3795.31" cy="1160.5" rx="7.87" ry="7.71" transform="translate(-8.82 2291.75) rotate(-33.56)"/>
        <ellipse class="cls-52" cx="3572.78" cy="843.18" rx="4.08" ry="4" transform="translate(129.51 2115.82) rotate(-33.56)"/>
        <ellipse class="cls-52" cx="3136.49" cy="1278.6" rx="6.1" ry="5.98" transform="translate(-183.96 1947.2) rotate(-33.56)"/>
        <circle class="cls-52" cx="3178.2" cy="88.78" r="5.1"/>
        <circle class="cls-52" cx="3842.68" cy="515.12" r="22.22"/>
        <circle class="cls-30" cx="3632.85" cy="275.53" r="47.37"/>
        <ellipse class="cls-50" cx="3207.8" cy="840.77" rx="36.73" ry="36" transform="translate(69.99 1913.63) rotate(-33.56)"/>
        <ellipse class="cls-27" cx="3013.05" cy="1011.49" rx="44.33" ry="43.45" transform="translate(-56.86 1834.43) rotate(-33.56)"/>
        <ellipse class="cls-43" cx="3265.18" cy="1218.45" rx="34.17" ry="33.49" transform="translate(-129.25 2008.32) rotate(-33.56)"/>
        <circle class="cls-52" cx="3049.22" cy="432.4" r="9.12"/>
        <circle class="cls-52" cx="3746.5" cy="485.89" r="4.02"/>
        <circle class="cls-52" cx="3377.89" cy="374.77" r="36.59"/>
        <circle class="cls-52" cx="3695.93" cy="867.28" r="41.01"/>
        <circle class="cls-52" cx="2813.06" cy="543.51" r="32.97"/>
        <circle class="cls-25" cx="3390.07" cy="412.22" r="33.04"/>
        <circle class="cls-72" cx="2816.27" cy="574.04" r="21.71"/>
        <circle class="cls-72" cx="3719.43" cy="702.2" r="27.68"/>
        <ellipse class="cls-16" cx="3629.49" cy="1173.57" rx="19.57" ry="19.18" transform="translate(-43.69 2202.25) rotate(-33.56)"/>
        <ellipse class="cls-79" cx="3871.18" cy="1082.61" rx="32.22" ry="37.59"/>
        <ellipse class="cls-17" cx="3796.6" cy="38.73" rx="46.08" ry="44.95"/>
        <circle class="cls-17" cx="2925.86" cy="1099.28" r="16.67"/>
        <circle class="cls-26" cx="3727.36" cy="1435.41" r="49.9"/>
        <circle class="cls-55" cx="3603.96" cy="534.54" r="25.44"/>
        <circle class="cls-15" cx="3821.87" cy="223.35" r="36.09"/>
      </g>
    </g>
    <g>
      <polygon class="cls-58" points="713.96 136.44 684.31 118.26 652.54 132.38 660.66 98.57 637.42 72.71 672.09 69.99 689.5 39.89 702.8 72.02 736.8 79.28 710.35 101.86 713.96 136.44"/>
      <polygon class="cls-58" points="681.7 807.98 656.54 799.1 634.97 814.79 635.64 788.12 614.05 772.45 639.62 764.85 647.86 739.48 662.99 761.45 689.66 761.44 673.44 782.62 681.7 807.98"/>
      <polygon class="cls-52" points="656.21 1259.72 636.84 1255.75 622.59 1269.45 620.38 1249.8 602.95 1240.48 620.95 1232.31 624.43 1212.85 637.76 1227.45 657.34 1224.74 647.58 1241.93 656.21 1259.72"/>
      <polygon class="cls-76" points="1148.51 981.45 1138.4 977.68 1129.56 983.88 1130.01 973.09 1121.39 966.6 1131.79 963.7 1135.29 953.49 1136.92 966.84 1152.06 962.67 1145.35 971.13 1148.51 981.45"/>
      <polygon class="cls-76" points="986.23 1236.19 1003.42 1215.05 995.76 1188.91 1021.17 1198.73 1043.67 1183.35 1042.19 1210.56 1063.76 1227.21 1037.43 1234.2 1028.26 1259.86 1013.47 1236.98 986.23 1236.19"/>
      <polygon class="cls-74" points="79.11 968.69 50.28 962.3 28.68 982.43 25.85 953.04 .03 938.72 27.1 926.94 32.74 897.96 52.31 920.07 81.62 916.48 66.64 941.92 79.11 968.69"/>
      <polygon class="cls-52" points="160.12 410.15 143.1 398.08 123.51 405.25 129.73 385.34 116.85 368.92 137.72 368.68 149.35 351.36 156.03 371.13 176.09 376.84 159.35 389.3 160.12 410.15"/>
      <polygon class="cls-4" points="392.26 296.87 353.12 296.35 330.51 328.29 318.91 290.91 281.55 279.27 313.52 256.69 313.04 217.56 344.39 240.99 381.46 228.44 368.87 265.49 392.26 296.87"/>
      <polygon class="cls-4" points="296.44 829.93 291.53 826.06 285.55 827.91 287.72 822.04 284.11 816.93 290.36 817.17 294.11 812.16 295.8 818.18 301.73 820.2 296.53 823.67 296.44 829.93"/>
      <polygon class="cls-52" points="373.87 613.94 381.72 602.25 376.53 589.16 390.08 593.01 400.92 584.03 401.45 598.1 413.33 605.64 400.12 610.49 396.62 624.13 387.92 613.05 373.87 613.94"/>
      <polygon class="cls-18" points="767.34 1443.76 709.03 1432.45 666.65 1474.08 659.38 1415.12 606.7 1387.68 660.52 1362.56 670.34 1303.97 710.87 1347.39 769.62 1338.62 740.85 1390.59 767.34 1443.76"/>
      <polygon class="cls-58" points="3066.63 359.48 3071.16 325 3102.13 309.19 3070.74 294.23 3065.27 259.89 3041.34 285.12 3006.99 279.71 3023.59 310.27 3007.83 341.26 3042.02 334.91 3066.63 359.48"/>
      <polygon class="cls-58" points="3440.79 833.91 3461.83 828.52 3477.92 842.58 3479.62 821.15 3498.36 810.06 3478.37 802.21 3473.87 781.3 3459.81 797.88 3438.28 796.03 3449.59 814.13 3440.79 833.91"/>
      <polygon class="cls-52" points="3423.26 1197.94 3439.22 1196.09 3449.56 1208.06 3453 1192.45 3467.85 1186.18 3454.02 1178.39 3452.85 1162.54 3440.86 1173.33 3425.29 1169.81 3431.72 1184.27 3423.26 1197.94"/>
      <polygon class="cls-76" points="3049.51 940.91 3057.99 938.58 3064.6 944.16 3065.14 935.48 3072.65 930.87 3064.5 927.83 3062.53 919.4 3060.1 929.99 3048.23 925.61 3052.93 932.85 3049.51 940.91"/>
      <polygon class="cls-76" points="3158.96 1156.37 3146.87 1138.23 3155.27 1117.79 3133.93 1123.92 3117.08 1110.04 3115.98 1131.96 3097.17 1143.83 3117.83 1151.25 3123.06 1172.46 3136.92 1155.13 3158.96 1156.37"/>
      <polygon class="cls-74" points="3815.55 913.38 3828.73 886.96 3857.96 882.84 3836.91 862.14 3842.03 833.06 3815.83 846.69 3789.76 832.84 3794.63 861.96 3773.39 882.48 3802.59 886.85 3815.55 913.38"/>
      <polygon class="cls-52" points="3627.88 101.32 3629.21 80.5 3647.12 69.79 3627.72 62.09 3623.07 41.75 3609.76 57.81 3588.97 55.95 3600.14 73.58 3591.95 92.77 3612.16 87.6 3627.88 101.32"/>
      <polygon class="cls-4" points="3393.77 210.43 3417.98 179.69 3457.04 182.22 3435.29 149.68 3449.76 113.32 3412.09 123.96 3381.98 98.96 3380.46 138.06 3347.38 158.98 3384.1 172.51 3393.77 210.43"/>
      <polygon class="cls-4" points="3868.32 471.44 3868.41 465.18 3873.61 461.7 3867.68 459.69 3865.98 453.67 3862.24 458.68 3855.99 458.44 3859.6 463.55 3857.43 469.42 3863.41 467.56 3868.32 471.44"/>
      <polygon class="cls-52" points="3651.74 395.68 3637.72 394.42 3630.81 382.16 3625.28 395.1 3611.48 397.89 3622.08 407.15 3620.46 421.13 3632.55 413.91 3645.35 419.77 3642.21 406.05 3651.74 395.68"/>
      <polygon class="cls-18" points="3318.07 1337.89 3366.08 1332.83 3396.76 1369.13 3407.59 1322.35 3452.41 1303.97 3411.1 1280.11 3408.13 1232.45 3371.76 1264.49 3325.1 1253.42 3343.93 1297.07 3318.07 1337.89"/>
      <polygon class="cls-19" points="3452.41 1483.26 3427.89 1454.52 3390.31 1458.43 3410.07 1426.23 3394.74 1391.7 3431.47 1400.53 3459.57 1375.28 3462.52 1412.95 3495.21 1431.87 3460.31 1446.31 3452.41 1483.26"/>
      <polygon class="cls-52" points="3341.3 931.78 3329.3 933.73 3324.11 944.72 3318.55 933.92 3306.49 932.38 3315.05 923.75 3312.79 911.81 3323.64 917.28 3334.3 911.44 3332.45 923.45 3341.3 931.78"/>
      <polygon class="cls-2" points="3207.8 247 3188.59 244.84 3175.93 259.44 3172.05 240.51 3154.25 232.97 3171.06 223.43 3172.73 204.18 3186.99 217.21 3205.82 212.85 3197.83 230.45 3207.8 247"/>
      <polygon class="cls-79" points="3074.71 88.78 3090.67 58.03 3074.38 27.45 3108.56 33.13 3132.6 8.19 3137.77 42.45 3168.91 57.61 3137.93 73.11 3133.13 107.42 3108.82 82.74 3074.71 88.78"/>
    </g>
  </g>
</svg>