<svg width="1744" height="644" viewBox="0 0 1744 644" fill="none" xmlns="http://www.w3.org/2000/svg">
<path d="M1020.86 75.32C1015.23 80.47 981.71 95.75 952.09 178.98C925 255.12 980.87 361.2 997.18 394.7C998.12 396.62 999.15 398.48 1000.05 400.41C1008.13 417.62 1052.57 507.83 1119.57 558.38C1193.86 614.43 1262.55 622.72 1262.55 622.72C1262.55 622.72 1407.97 659.12 1559.49 589.46C1566.13 586.41 1572.2 582.43 1577.55 577.46C1589.54 566.33 1612.09 546.15 1624.08 521.1C1641.44 484.84 1663.91 400.59 1660.34 296.42C1656.77 192.25 1615.91 113.61 1535.23 63.57C1454.55 13.53 1280.93 17.1 1280.93 17.1C1280.93 17.1 1149.88 20.99 1076.67 48.76C1076.67 48.76 1034.97 62.38 1020.84 75.31L1020.86 75.32Z" stroke="#1D1D1B" stroke-width="2" stroke-miterlimit="10"/>
<path d="M629.48 62.74C629.48 62.74 706.01 81.97 739.12 217.33C772.23 352.69 584.59 546.48 584.59 546.48C584.59 546.48 555.16 584.94 489.67 607.87C424.18 630.8 303.5 648.55 197.54 607.87C91.58 567.19 73.18 385.23 73.18 385.23C73.18 385.23 61.41 238.04 112.18 163.33C162.95 88.62 222.56 73.09 276.27 59.04C329.99 44.99 528.66 22.8 629.47 62.74H629.48Z" stroke="#1D1D1B" stroke-width="2" stroke-miterlimit="10"/>
<path d="M1125.2 576.77C1125.2 576.77 1196.18 634.47 1314.65 641.11C1433.12 647.75 1504.1 632.43 1570.48 596.17C1636.86 559.91 1660.86 450.13 1660.86 450.13C1660.86 450.13 1683.33 337.79 1670.05 255.58C1656.77 173.37 1611.84 94.73 1566.9 69.2C1521.96 43.67 1496.43 26.82 1387.67 14.56C1278.9 2.30001 1177.29 19.16 1097.12 33.96C1016.95 48.77 988.35 88.09 988.35 88.09C988.35 88.09 943.41 125.37 936.78 183.58C930.14 241.79 936.27 268.35 950.57 313.28C964.87 358.22 988.36 407.24 1023.08 463.92C1057.8 520.6 1106.67 564.12 1125.21 576.77H1125.2Z" fill="url(#paint0_linear_2_97)" stroke="#1D1D1B" stroke-width="2" stroke-miterlimit="10"/>
<path d="M639.36 51.56C642.28 52.71 725.17 81.78 755.76 206.18C790.23 346.35 596.7 554.04 596.7 554.04C596.7 554.04 566.06 593.87 497.89 617.61C429.72 641.35 304.1 659.74 193.8 617.61C83.5 575.48 64.3499 387.06 64.3499 387.06C64.3499 387.06 52.0899 234.63 104.95 157.27C157.8 79.91 219.84 63.82 275.76 49.27C330.96 34.9 534.06 10.17 639.36 51.55V51.56Z" fill="url(#paint1_linear_2_97)" stroke="#1D1D1B" stroke-width="2" stroke-miterlimit="10"/>
<path d="M599.03 39.68C599.03 39.68 935.52 47.1 1126.11 28.73C1126.11 28.73 1222.2 13.45 1259.47 11.95C1259.47 11.95 1246.99 2.55 1231.67 1.79C1216.35 1.03 664.86 44.99 472.61 21.48C472.61 21.48 446.57 24.62 431.25 30.44C431.25 30.44 532.61 22.43 599.04 39.69L599.03 39.68Z" fill="#916B3F" stroke="#1D1D1B" stroke-width="2" stroke-miterlimit="10"/>
<path d="M1670.05 255.57C1670.05 255.57 1719.33 253.02 1731.07 257.61C1751.34 265.54 1738.75 302.38 1731.58 302.42C1727.84 302.44 1684.18 295.74 1674.05 300.76C1674.05 300.76 1674.25 280.76 1670.05 255.57Z" fill="#916B3F" stroke="#1D1D1B" stroke-width="2" stroke-miterlimit="10"/>
<path d="M68.1 270.69C68.1 270.69 17.8 266.09 7.07997 272.73C-3.64003 279.37 2.86996 317.03 6.56996 317.54C10.27 318.05 53.76 311.7 63.88 316.73C63.88 316.73 64.73 295.91 68.1 270.69Z" fill="#916B3F" stroke="#1D1D1B" stroke-width="2" stroke-miterlimit="10"/>
<path d="M759.87 223.4C759.87 223.4 760.1 212.17 764.86 211.49C769.62 210.81 850.65 204 923.16 207.75C923.16 207.75 929.97 210.47 929.63 223.41C929.29 236.35 934.58 240.44 934.58 240.44C934.58 240.44 934.24 220.17 935.85 192.34C935.85 192.34 931.67 184.26 926.9 184.26C922.13 184.26 878.56 180.86 845.54 181.54C812.52 182.22 762.36 187.67 759.86 188.69C757.36 189.71 752.73 194.62 753.79 198.61C754.85 202.6 758.2 213.63 758.98 224.78L759.86 223.41L759.87 223.4Z" fill="url(#paint2_linear_2_97)" stroke="#1D1D1B" stroke-width="2" stroke-miterlimit="10"/>
<path d="M1536.27 599.36C1536.27 599.36 1539.91 513.59 1560.59 465.33C1581.27 417.07 1595.56 374.83 1547.43 358.75C1499.3 342.67 1512 323.12 1552.85 261.84C1596.05 197.04 1636.14 165.49 1596.46 115.65C1556.79 65.81 1484.31 40.58 1472.47 38.09C1472.47 38.09 1500.08 60.99 1449.01 105.93C1397.95 150.87 1357.44 239.04 1349.27 254.02C1341.1 269 1323.06 325.85 1319.99 340.83C1316.92 355.81 1309.78 404.49 1357.1 398.02C1404.42 391.55 1422.12 381.68 1442.89 420.49C1442.89 420.49 1464.34 444.32 1453.44 470.87C1442.55 497.42 1418.38 534.19 1433.01 564.15C1447.65 594.11 1462.08 606.64 1473.72 617.42C1473.72 617.42 1515.79 608 1536.27 599.37V599.36Z" fill="#F6A031" stroke="#1D1D1B" stroke-width="2" stroke-miterlimit="10"/>
<path d="M1439.53 30.43C1439.53 30.43 1443.75 39.66 1429.29 70.72C1416.01 99.23 1381.71 133.33 1346.65 196.17C1328.61 228.51 1301.88 279.03 1293.71 328.71C1285.54 378.39 1296.12 402.12 1318.15 422.55C1340.18 442.98 1359.07 439.91 1382.56 437.87C1406.05 435.83 1397.88 468.51 1397.88 468.51C1397.88 468.51 1375.41 529.28 1390.22 563.74C1403.18 593.9 1447.26 614.87 1465.21 620.84L1473.72 617.41C1473.72 617.41 1446.14 593.11 1434.9 563.49C1423.67 533.87 1431.41 521.62 1453.88 472.26C1476.35 422.9 1425.04 381.43 1386.57 393.01C1386.57 393.01 1383.85 394.91 1359.85 397.63C1335.85 400.35 1312.01 394.73 1322.82 344.09C1333.63 293.45 1346.99 260.6 1349.71 255.41C1352.43 250.22 1399.92 148.77 1449.45 107.32C1498.98 65.87 1478.67 39.74 1474.66 38.64C1470.65 37.54 1439.52 30.43 1439.52 30.43H1439.53Z" fill="#D45A14" stroke="#1D1D1B" stroke-width="2" stroke-miterlimit="10"/>
<path d="M1132.45 33.48C1132.45 33.48 1060.04 143.3 1054.22 185.28C1049.37 220.26 1079.75 270.9 1162.99 310.22C1198.84 327.16 1214.61 351.58 1220.94 373.89C1227.55 397.18 1224.43 422.12 1213.12 443.52C1205.88 457.22 1189.54 480.39 1193.37 487.41C1199.5 498.64 1219.92 509.88 1243.41 515.5C1266.9 521.12 1305.4 533.66 1344.74 632.07C1344.74 632.07 1414.06 634.8 1465.2 620.85C1465.2 620.85 1406.89 600.26 1392.77 560.95C1392.77 560.95 1382.61 543.02 1397.88 468.52C1397.88 468.52 1405.54 436.18 1382.56 437.88C1359.58 439.58 1341.4 443.67 1318.15 422.56C1294.9 401.45 1268.6 342.3 1346.65 196.18C1346.65 196.18 1377 137.63 1434.04 74.65C1435.86 72.64 1437.4 70.38 1438.56 67.93C1442.67 59.3 1450.65 38.98 1439.53 30.44C1439.53 30.44 1307.45 0.839977 1132.45 33.49V33.48Z" fill="#E9560D" stroke="#1D1D1B" stroke-width="2" stroke-miterlimit="10"/>
<path d="M951.24 181.48C951.24 181.48 945.28 290.81 993.96 318.73C993.96 318.73 1029.36 343.92 1084.17 365.71C1133.32 385.25 1141.95 401.84 1133.39 442.38C1131.93 449.27 1130.02 456.07 1127.63 462.69C1123.26 474.77 1115.91 503.87 1142.39 512.43C1176.09 523.32 1249.24 530.94 1276.33 625.51C1276.33 625.51 1292.8 629.48 1344.75 632.06C1344.75 632.06 1310.57 523.32 1242.65 511.91C1174.73 500.5 1208.6 453.37 1213.12 443.51C1217.65 433.65 1255.75 354.46 1162.99 310.21C1070.23 265.96 1057.74 225.69 1061.06 186.04C1062.35 170.59 1078.03 134.91 1093.72 105.27C1109.04 76.33 1118.65 56.85 1132.46 33.47C1132.46 33.47 1036.97 52.13 998.4 92.67C982.93 108.93 969.86 125.2 962.66 140.33C951.9 162.93 951.26 181.47 951.26 181.47L951.24 181.48Z" fill="#7E1432" stroke="#1D1D1B" stroke-width="2" stroke-miterlimit="10"/>
<path d="M1276.33 625.51C1276.33 625.51 1269.12 534.38 1142.39 512.43C1142.39 512.43 1111.69 503.08 1127.63 462.69C1143.18 423.32 1147.65 385.36 1088.84 367.08C1084.96 365.87 1081.17 364.39 1077.45 362.73C1067.22 358.15 1047.15 348.98 1030.38 340.17C1010.17 329.56 996.12 320.82 988.67 313.96C972 298.63 955.06 263.13 955.06 160.49C955.06 160.49 932.68 229.19 951.01 287.06C968.75 343.09 969.86 338.63 1000.06 400.41C1033.23 468.28 1073.12 523.15 1119.58 558.38C1166.05 593.61 1209.41 612.46 1276.33 625.51Z" fill="#D40F37" stroke="#1D1D1B" stroke-width="2" stroke-miterlimit="10"/>
<path d="M1536.27 599.36C1536.27 599.36 1588.42 587.59 1624.1 521.11C1659.78 454.63 1660.81 326.2 1660.73 317.36C1660.65 308.52 1665.74 187.08 1592.66 111.11C1592.66 111.11 1629.26 151.15 1579.02 221.15C1541.34 273.65 1529 288.16 1524.69 292.68C1522.26 295.23 1520.04 297.98 1518.05 300.89C1509.08 313.99 1492.14 344.34 1521.82 352.59C1560.44 363.32 1596.35 369.62 1570.48 437.37C1559.76 465.44 1556.91 473.95 1551.08 491.5C1542.48 517.36 1538.11 552 1536.27 599.37V599.36Z" fill="#FECB40" stroke="#1D1D1B" stroke-width="2" stroke-miterlimit="10"/>
<path d="M1678.69 299.5C1678.69 299.5 1685.36 270.98 1697.45 254.08L1709.4 254.16C1709.4 254.16 1691 276.48 1689.98 298.58C1689.98 298.58 1687.15 298.31 1678.68 299.49L1678.69 299.5Z" fill="#E9560D" stroke="#1D1D1B" stroke-width="2" stroke-miterlimit="10"/>
<path d="M1709.4 254.17C1709.4 254.17 1714.9 254.27 1717.64 254.55C1717.64 254.55 1701.55 283.82 1704.78 299.87C1704.78 299.87 1695.87 299.15 1689.98 298.6C1689.98 298.6 1692.38 275.94 1709.4 254.18V254.17Z" fill="#D40F37" stroke="#1D1D1B" stroke-width="2" stroke-miterlimit="10"/>
<path d="M1704.78 299.87C1704.78 299.87 1703.44 280.47 1717.64 254.55C1717.64 254.55 1724.14 255.37 1724.93 255.53C1725.72 255.69 1715.37 272.93 1719.97 301.4L1704.78 299.86V299.87Z" fill="#7E1432" stroke="#1D1D1B" stroke-width="2" stroke-miterlimit="10"/>
<path d="M50.6899 270.13C51.7199 270.64 47.12 291.05 60.01 315.57C60.01 315.57 49.7899 314.69 45.7099 314.82C41.6299 314.95 45.7099 314.3 45.7099 314.3C45.7099 314.3 35.75 299.74 38.05 269.17C38.05 269.17 49.1499 269.37 50.6899 270.13Z" fill="#337ABE" stroke="#1D1D1B" stroke-width="2" stroke-miterlimit="10"/>
<path d="M35.6701 314.88C35.6701 314.88 24.01 289.59 29.76 269.2C29.76 269.2 37.4101 269.15 38.0601 269.17C38.0601 269.17 34.49 292.86 45.72 314.3L35.6701 314.88Z" fill="#76C6C3" stroke="#1D1D1B" stroke-width="2" stroke-miterlimit="10"/>
<path d="M13.66 270.57C13.66 270.57 6.28994 290.58 21.8599 316.35C21.8599 316.35 32.02 315.09 35.67 314.88C35.67 314.88 25.03 290.99 29.76 269.2C29.76 269.2 18.21 269.36 13.66 270.57Z" fill="#8EBF22" stroke="#1D1D1B" stroke-width="2" stroke-miterlimit="10"/>
<path d="M552.23 575.74C552.23 575.74 524.69 524.93 582.13 478.98C639.57 433.03 682.47 392.8 632.68 330.57C582.89 268.34 619.66 266.81 660.25 235.4C700.85 204 722.15 184.12 723.37 168.01C723.37 168.01 735.7 196.01 739.1 217.32C742.5 238.63 755.32 274.9 710.46 369.66C665.6 464.42 581.28 553.77 552.21 575.73L552.23 575.74Z" fill="#E73635" stroke="#1D1D1B" stroke-width="2" stroke-miterlimit="10"/>
<path d="M480.74 610.85C480.74 610.85 392.44 573.19 493.04 455.74C493.04 455.74 514.49 430.21 533.89 413.36C553.29 396.51 533.89 346.47 496.61 348C459.33 349.53 413.89 334.72 416.44 293.36C418.99 252 437.38 198.89 469.55 156.51C501.72 114.13 573.76 46.4 545.64 43.99C545.64 43.99 605.36 48.34 632.78 62.38C661.38 77.02 697.46 97.44 723.39 168.02C723.39 168.02 734.06 180 660.27 235.41C660.27 235.41 625.29 258.39 620.7 262.47C616.11 266.55 590.83 283.53 632.7 330.57C674.57 377.62 658.74 423.83 582.15 478.98C582.15 478.98 530.77 514.72 552.25 575.74C552.25 575.74 511.64 602.38 480.75 610.85H480.74Z" fill="#FCBF2D" stroke="#1D1D1B" stroke-width="2" stroke-miterlimit="10"/>
<path d="M471.34 613.71C471.67 613.61 480.74 610.86 480.74 610.86C466.66 600.78 440.19 590.31 446.39 539C452.59 487.69 533.89 413.37 533.89 413.37C533.89 413.37 550.23 399.33 535.52 371.89C520.81 344.45 496.61 348.01 496.61 348.01C415.42 348.52 416.35 295.92 416.35 295.92C423.92 193.79 490.61 130.97 529.87 85.67C569.13 40.37 545.64 44 545.64 44L501.71 40.77C457.79 101.7 388.36 270.9 376.1 331.01C363.84 391.12 395.12 393.27 400.42 394.22C416.66 397.15 436.87 392.43 445.55 399.58C454.23 406.73 436.74 443.15 426.83 460.01C418.87 473.53 409.9 482.25 401.3 511.41C399.18 518.6 395.59 531 396.19 542.73C399.01 597.4 471.01 613.81 471.01 613.81L471.34 613.71Z" fill="#C6D543" stroke="#1D1D1B" stroke-width="2" stroke-miterlimit="10"/>
<path d="M293.12 55.29C293.12 55.29 227.33 185.61 243.67 236C243.67 236 248.78 266.3 289.97 281.96C331.16 297.62 315.5 363.32 300.52 382.73C285.54 402.13 268.52 446.73 274.31 464.43C280.1 482.13 286.91 490.64 312.78 494.39C338.65 498.14 347.5 497.45 360.78 544.43C360.78 544.43 362.14 563.83 353.63 584.94C345.12 606.05 355.7 623.82 364.54 631.44C364.54 631.44 424.99 628.54 471.01 613.8C471.66 612.74 338.89 590.12 426.82 460C426.82 460 441.23 434.19 446.73 416.26C449.95 405.78 448.63 396.49 437.88 394.3C433.9 393.49 422.22 393.59 415.79 392.68C397.19 390.04 361.03 394.29 376.73 327.42C392.55 260.04 479.56 66.8 501.69 40.76C501.69 40.76 453.8 37.58 390.55 42.13C360.29 44.3 328.08 48.26 293.1 55.3L293.12 55.29Z" fill="#8EBF22" stroke="#1D1D1B" stroke-width="2" stroke-miterlimit="10"/>
<path d="M293.12 55.29C293.12 55.29 230.74 179.14 243.67 236C243.67 236 248.78 266.64 289.97 281.96C331.16 297.28 316.18 359.24 300.52 382.73C284.86 406.22 269.54 446.05 274.31 464.43C279.08 482.81 290.31 491.66 312.78 494.39C335.25 497.12 355.33 496.77 360.78 544.43C360.78 544.43 363.4 566.49 354.38 586.02C351.91 591.37 350.91 597.18 351.27 603.07C351.8 611.6 354.35 623.07 364.54 631.45C364.54 631.45 344.74 632.4 334.23 632.18C334.23 632.18 333.21 529.29 236.19 526.22C139.17 523.16 217.81 445.54 223.42 415.41C229.04 385.28 229.04 323.19 191.25 327.43C153.46 331.67 84.7999 362.22 93.5999 200.39C93.5999 200.39 106.11 153.59 155 113.12C185.19 88.13 228.9 68.13 293.13 55.31L293.12 55.29Z" fill="#76C6C3" stroke="#1D1D1B" stroke-width="2" stroke-miterlimit="10"/>
<path d="M93.59 200.38C93.59 200.38 84.34 313.46 130.47 328.86C130.47 328.86 145.5 337.97 181.48 328.86C217.13 319.83 237.4 335.81 225.96 404.51L223.18 416.84C217.79 434.13 220.37 428.41 201.27 459.38C178.64 496.08 181.7 525.02 236.17 526.21C290.64 527.4 329.11 555.49 334.21 632.17C334.21 632.17 305.88 632.4 282.56 628.76C282.56 628.76 303.91 590.38 257.61 577.1C211.31 563.82 198.72 568.25 193.61 566.55C188.5 564.85 123.48 554.29 162.29 447.74C162.29 447.74 175.91 420.51 183.74 405.87C191.57 391.23 189.53 350.38 146.63 346.98C103.74 343.58 83.12 332.36 75.22 284.69C75.22 284.69 83.07 217.19 93.58 200.38H93.59Z" fill="#337ABE" stroke="#1D1D1B" stroke-width="2" stroke-miterlimit="10"/>
<path d="M282.58 628.76C282.58 628.76 321.29 563.83 193.63 566.55C193.63 566.55 124.18 558.04 162.31 447.74C162.31 447.74 179.57 412.56 185.07 402.92C190.57 393.28 189.54 349.36 146.65 346.98C103.76 344.6 85.19 331.34 75.24 284.69C75.24 284.69 69.37 338.76 72.01 374.04C73.7 396.55 81.3 468.66 114.39 528.76C133.16 562.85 157.58 592.95 192.26 607.02C192.26 607.02 248.28 628.67 282.57 628.76H282.58Z" fill="#514A99" stroke="#1D1D1B" stroke-width="2" stroke-miterlimit="10"/>
<defs>
<linearGradient id="paint0_linear_2_97" x1="1304.18" y1="642.62" x2="1304.18" y2="10.33" gradientUnits="userSpaceOnUse">
<stop stop-color="#DC922B"/>
<stop offset="0.79" stop-color="#975718"/>
<stop offset="1" stop-color="#975918"/>
</linearGradient>
<linearGradient id="paint1_linear_2_97" x1="1.04519e+06" y1="642194" x2="1.04519e+06" y2="265134" gradientUnits="userSpaceOnUse">
<stop stop-color="#DC922B"/>
<stop offset="0.79" stop-color="#975718"/>
<stop offset="1" stop-color="#975918"/>
</linearGradient>
<linearGradient id="paint2_linear_2_97" x1="353021" y1="38137.9" x2="353021" y2="34657.5" gradientUnits="userSpaceOnUse">
<stop stop-color="#DC922B"/>
<stop offset="0.79" stop-color="#975718"/>
<stop offset="1" stop-color="#975918"/>
</linearGradient>
</defs>
</svg>
