<svg width="3896" height="1468" viewBox="0 0 3896 1468" fill="none" xmlns="http://www.w3.org/2000/svg">
<g clip-path="url(#clip0_2_2)">
<path d="M2710.24 679.8L3839.78 -81.43C3839.78 -81.43 3989.43 -42.62 3983.03 -38.54C3976.63 -34.46 3911.62 81.97 3911.62 81.97L2710.25 715.37V679.78L2710.24 679.8Z" fill="#E94C45" stroke="#1D1D1B" stroke-width="2" stroke-miterlimit="10"/>
<path d="M2739.53 738.76L3971.31 265.89L3895.57 90.44L2689.98 720.41L2739.53 738.76Z" fill="#6FB52C" stroke="#1D1D1B" stroke-width="2" stroke-miterlimit="10"/>
<path d="M2726.56 850.36L3938.35 1360.7L3924.78 1101.77L2710.24 814.47L2726.56 850.36Z" fill="#F18618" stroke="#1D1D1B" stroke-width="2" stroke-miterlimit="10"/>
<path d="M2744.4 757.88L3938.35 865.24L3895.57 1094.86L2671.91 803.64L2744.4 757.88Z" fill="#FFDE29" stroke="#1D1D1B" stroke-width="2" stroke-miterlimit="10"/>
<path d="M1199.74 540.73L-111.24 -51.72C-111.24 -51.72 -141.39 220.96 -129.38 217.9C-117.37 214.84 1229.18 594.96 1229.18 594.96L1199.74 540.74V540.73Z" fill="#9159A0" stroke="#1D1D1B" stroke-width="2" stroke-miterlimit="10"/>
<path d="M1149.01 840.39L-59.67 1276.97L-123.28 989.2L1181.82 800.53L1149.01 840.39Z" fill="#EF791A" stroke="#1D1D1B" stroke-width="2" stroke-miterlimit="10"/>
<path d="M1229.18 800.53L-59.67 1276.97V1444.45L1181.82 865.24L1229.18 800.53Z" fill="#D43116" stroke="#1D1D1B" stroke-width="2" stroke-miterlimit="10"/>
<path d="M1199.74 552.09C1199.74 552.09 1165.86 587.88 1074.97 424.84C984.08 261.8 946.29 125.97 666.46 108.61C666.46 108.61 574.55 87.16 563.31 167.84C552.07 248.52 605.18 312.53 605.18 312.53C605.18 312.53 643.93 370.05 561.75 380.26C479.57 390.47 416.25 318.98 363.14 234.22C310.03 149.46 249.78 91.24 172.16 118.82C94.5399 146.4 190.54 204.61 172.16 213.8C153.78 222.99 109.94 222.99 92.0299 133.12C74.1199 43.25 -31.0701 13.64 -31.0701 13.64L0.569931 143.34C0.569931 143.34 120.07 338.33 215.05 341.43C310.03 344.53 225.26 213.81 225.26 213.81C225.26 213.81 215.05 183.17 263.05 183.17C311.05 183.17 362.11 322.06 368.24 332.28C374.37 342.49 383.56 410.47 535.73 469.42C535.73 469.42 642.96 506.92 713.43 365.99C713.43 365.99 729.09 327.18 686.54 259.78C643.99 192.38 770.11 186.25 827.56 213.82C885.01 241.39 951.39 293.99 982.03 410.16C1012.67 526.33 1170.01 612.04 1170.01 612.04" fill="#74C9E1"/>
<path d="M1199.74 552.09C1199.74 552.09 1165.86 587.88 1074.97 424.84C984.08 261.8 946.29 125.97 666.46 108.61C666.46 108.61 574.55 87.16 563.31 167.84C552.07 248.52 605.18 312.53 605.18 312.53C605.18 312.53 643.93 370.05 561.75 380.26C479.57 390.47 416.25 318.98 363.14 234.22C310.03 149.46 249.78 91.24 172.16 118.82C94.5399 146.4 190.54 204.61 172.16 213.8C153.78 222.99 109.94 222.99 92.0299 133.12C74.1199 43.25 -31.0701 13.64 -31.0701 13.64L0.569931 143.34C0.569931 143.34 120.07 338.33 215.05 341.43C310.03 344.53 225.26 213.81 225.26 213.81C225.26 213.81 215.05 183.17 263.05 183.17C311.05 183.17 362.11 322.06 368.24 332.28C374.37 342.49 383.56 410.47 535.73 469.42C535.73 469.42 642.96 506.92 713.43 365.99C713.43 365.99 729.09 327.18 686.54 259.78C643.99 192.38 770.11 186.25 827.56 213.82C885.01 241.39 951.39 293.99 982.03 410.16C1012.67 526.33 1170.01 612.04 1170.01 612.04" stroke="#1D1D1B" stroke-width="2" stroke-miterlimit="10"/>
<path d="M0.570099 143.34C0.570099 143.34 122.12 335.26 215.05 341.43C307.99 347.6 225.26 213.81 225.26 213.81C225.26 213.81 214.03 178.07 263.05 183.17C312.07 188.27 356.19 305.77 368.24 332.28C380.29 358.79 514.79 538.58 658.54 441.05C658.54 441.05 761.77 403.77 686.54 259.77C686.54 259.77 640.92 194.57 758.37 198.58C875.82 202.58 934.71 296.38 963.78 356.83C992.85 417.28 982.16 494.51 1170.01 612.04C1357.86 729.57 1168.18 618.14 1168.18 618.14C1168.18 618.14 1143.56 654.62 1137.86 648.69C1132.16 642.76 1017.77 649.23 873.77 492.29C729.77 335.35 698.73 478.42 698.73 478.42C698.73 478.42 682.79 565.06 522.45 519.66C362.11 474.26 368.24 386.94 295.73 410.17C295.73 410.17 290.62 418.08 285.86 432.04C281.09 446 243.65 497.74 -12.6899 236.3C-269.03 -25.14 0.570099 143.34 0.570099 143.34Z" fill="#E9C501" stroke="#1D1D1B" stroke-width="2" stroke-miterlimit="10"/>
<path d="M1099.45 640.51C1099.45 640.51 1008.58 629.81 873.78 492.28C738.97 354.75 699.48 475.6 699.48 475.6C699.48 475.6 650.23 632.06 361.79 426.51C361.79 426.51 300.82 367.02 284.36 435.31C284.36 435.31 270.11 475.88 145.69 382.51C145.69 382.51 28.68 277.64 -12.69 236.28C-51.83 197.15 -43.07 293.73 -43.07 293.73L0.499973 344.28C0.499973 344.28 50.2 387.17 92.03 444.62C133.86 502.07 219.65 604.71 253.35 580.19C287.05 555.68 211.99 502.06 238.8 493.64C265.61 485.22 336.84 485.34 411.91 535.06C486.98 584.78 539.82 680.35 663.91 665.89C663.91 665.89 718.29 663.78 707.57 612.03C696.85 560.28 784.93 555.68 814.8 581.73C844.67 607.77 950.45 707.89 1090.2 674.3" fill="#D43616"/>
<path d="M1099.45 640.51C1099.45 640.51 1008.58 629.81 873.78 492.28C738.97 354.75 699.48 475.6 699.48 475.6C699.48 475.6 650.23 632.06 361.79 426.51C361.79 426.51 300.82 367.02 284.36 435.31C284.36 435.31 270.11 475.88 145.69 382.51C145.69 382.51 28.68 277.64 -12.69 236.28C-51.83 197.15 -43.07 293.73 -43.07 293.73L0.499973 344.28C0.499973 344.28 50.2 387.17 92.03 444.62C133.86 502.07 219.65 604.71 253.35 580.19C287.05 555.68 211.99 502.06 238.8 493.64C265.61 485.22 336.84 485.34 411.91 535.06C486.98 584.78 539.82 680.35 663.91 665.89C663.91 665.89 718.29 663.78 707.57 612.03C696.85 560.28 784.93 555.68 814.8 581.73C844.67 607.77 950.45 707.89 1090.2 674.3" stroke="#1D1D1B" stroke-width="2" stroke-miterlimit="10"/>
<path d="M-10.98 330.96C-10.16 331.91 19.31 354.81 53.95 393.81C69.65 411.49 85.16 435.41 102.97 456.36C160.06 523.53 224.25 597.81 253.35 580.19C282.46 562.57 221.69 508.45 227.31 497.72C232.93 486.99 301.96 470.99 378.76 516.02C378.76 516.02 437.5 544.74 478.7 590.42C492.27 605.46 511.59 617.45 530.29 629.12C568.38 652.91 613.86 673.38 663.74 664.18C738.74 650.35 692.04 598.31 710.38 581.97C710.38 581.97 726.52 563.73 755.54 561.15C775.4 559.39 796.53 563.46 811.15 577.03C817.78 583.19 828.34 592.59 841.45 600.86C934.73 659.74 968.09 695.01 1083.14 675.87C1196.98 656.93 1149.03 718.56 1149.03 718.56C1149.03 718.56 1131.76 753.32 1048.09 750.31C972.9 747.61 913.27 747.84 854.03 680.85C844.46 670.03 836.81 657.71 830.63 644.65C826.53 635.97 817.61 625.68 798.65 628.44C767.06 633.04 751.74 638.14 751.23 663.16C750.72 688.18 752.76 734.14 717.02 742.31C681.28 750.48 600.59 735.99 522.47 690.22C522.47 690.22 420.85 630.48 378.98 587.07C337.11 543.67 285.53 556.3 285.53 556.3C285.53 556.3 275.32 557.96 285.02 572.77C294.72 587.58 325.36 617.2 278.89 638.64C232.42 660.09 80.76 510.08 47.57 453.34C14.38 396.6 -208.26 330.94 -208.26 330.94H-10.98V330.96Z" fill="#77AA2C" stroke="#1D1D1B" stroke-width="2" stroke-miterlimit="10"/>
<path d="M15.6601 957.96C15.6601 957.96 63.4801 934.38 269.83 1010.96C269.83 1010.96 342.7 1114.31 392.49 977.96C442.28 841.62 785.43 796.59 848.74 822.17C912.05 847.75 915.49 866.17 970.97 810.49C1026.45 754.81 1054.26 794.61 1060.15 790.56C1066.03 786.51 1142.09 785.59 1156.98 757.95C1156.98 757.95 1158.75 708.18 1148.49 719.32C1138.23 730.46 1119.3 757.68 996.67 746.76C874.04 735.84 843.55 661.35 831.56 643.1C819.57 624.85 806.38 625.9 779.05 632.66C751.72 639.42 753.76 648.95 750.7 663.93C747.64 678.91 757.7 733.34 714.45 742.16C671.2 750.98 569.95 717.72 523.47 688.71C476.99 659.7 413.68 618.07 378.79 583.52C343.9 548.97 298.61 551.67 284.99 557.07C271.37 562.47 292.82 582.56 296.22 589.37C299.62 596.18 316.31 614.56 288.39 633.28C260.47 652 194.5 632.34 55.8701 460.94C51.7701 455.87 47.8501 450.63 44.2501 445.2C38.0701 435.86 19.6401 414.31 -24.4699 401.85C-81.9099 385.62 -129.4 639.92 -129.4 639.92L-66.5899 914.13L-3.77991 960.85L15.6401 957.96H15.6601Z" fill="#EAD900" stroke="#1D1D1B" stroke-width="2" stroke-miterlimit="10"/>
<path d="M1152.12 764.24C1151.12 765.18 1122.29 791.85 1040.92 786.4C959.56 780.95 970.97 810.48 970.97 810.48C970.97 810.48 935.37 851.71 914.63 846.84C893.89 841.97 867.99 826.79 848.74 822.16C829.49 817.53 805.35 811.25 778.45 807.5C751.55 803.75 628.32 836.1 628.32 836.1C628.32 836.1 444.3 866.36 392.48 977.95C340.66 1089.54 304.95 1036.87 289.49 1031.8C274.03 1026.73 286.05 1033.69 286.05 1033.69L269.82 1010.94C269.82 1010.94 99.66 912.13 15.65 957.94C-68.36 1003.75 -43.92 1073.45 -43.92 1073.45C-43.92 1073.45 143.04 999.15 273.26 1097.96C403.47 1196.77 417.26 1054.08 455.56 1019.34C493.86 984.6 662.37 811.41 797.94 859.71C933.51 908.01 909.77 924.86 944.24 896.52C978.71 868.18 1037.69 816.31 1120.41 819.26C1203.13 822.22 1177.86 764.22 1177.86 764.22H1152.12V764.24Z" fill="#2A4899" stroke="#1D1D1B" stroke-width="2" stroke-miterlimit="10"/>
<path d="M-43.91 1073.47C-43.91 1073.47 88.04 1022.87 170.78 1052.04C253.52 1081.21 214.5 1060.47 282.01 1104.38C349.52 1148.29 388.19 1140.02 422.81 1072.39C457.43 1004.77 472.76 1000.53 472.76 1000.53C472.76 1000.53 626.55 840.77 760.51 851.8C894.47 862.83 892.66 935.86 944.25 896.53C995.84 857.2 1046.41 814.79 1107.16 819.27C1167.91 823.76 1181.51 842.14 1181.51 842.14L1164.99 850.92C1164.99 850.92 1093.62 841.37 977.19 940.94C860.76 1040.51 798.56 971.58 772.98 934.81C747.4 898.04 666.53 870.47 564.88 993.02C463.23 1115.57 414.97 1247.32 287.06 1207.49C287.06 1207.49 248 1192.57 215.06 1132.24C182.12 1071.91 22.8 1158.46 -5.54004 1186.04C-33.88 1213.61 -43.91 1073.44 -43.91 1073.44V1073.47Z" fill="#EB599B" stroke="#1D1D1B" stroke-width="2" stroke-miterlimit="10"/>
<path d="M880.86 358.71C880.86 358.71 887.31 290.79 957.52 295.51C957.52 295.51 990.2 296.28 1005.78 339.68C1005.78 339.68 1011.91 355.25 995.57 364.45C979.23 373.64 976.93 394.07 976.93 394.07L899.57 410.16L880.86 358.72V358.71Z" fill="#E73452" stroke="#1D1D1B" stroke-width="2" stroke-miterlimit="10"/>
<path d="M798.9 401.66C798.9 401.66 752.8 351.68 767.84 326.92C782.88 302.16 799.48 278.41 825.52 281.47C851.56 284.53 860.5 289.13 872.5 302.92C884.5 316.71 872.5 365.47 872.5 365.47L798.9 401.66Z" fill="#E73452" stroke="#1D1D1B" stroke-width="2" stroke-miterlimit="10"/>
<path d="M698.74 478.4C698.74 478.4 693.53 475.51 675.14 473.72C656.75 471.93 658.54 441.04 658.54 441.04C658.54 441.04 659.05 380.27 701.18 364.44C701.18 364.44 744.45 348.46 786.13 385.94C827.82 423.42 827.56 433.89 827.56 433.89C827.56 433.89 754.28 470.66 752.24 471.68L698.73 478.4" fill="#E73452"/>
<path d="M698.74 478.4C698.74 478.4 693.53 475.51 675.14 473.72C656.75 471.93 658.54 441.04 658.54 441.04C658.54 441.04 659.05 380.27 701.18 364.44C701.18 364.44 744.45 348.46 786.13 385.94C827.82 423.42 827.56 433.89 827.56 433.89C827.56 433.89 754.28 470.66 752.24 471.68L698.73 478.4" stroke="#1D1D1B" stroke-width="2" stroke-miterlimit="10"/>
<path d="M890.46 361.44C890.46 361.44 895.61 309.08 951.66 312.72C951.66 312.72 977.75 313.31 990.18 346.77C990.18 346.77 995.07 358.78 982.03 365.86C968.99 372.95 967.15 388.69 967.15 388.69L905.39 401.09L890.46 361.43V361.44Z" fill="#FCC009" stroke="#1D1D1B" stroke-width="2" stroke-miterlimit="10"/>
<path d="M808.72 396.3C808.72 396.3 773.51 355.05 785 334.61C796.49 314.17 809.17 294.57 829.06 297.1C848.37 299.55 855.78 303.42 864.94 314.8C874.11 326.18 864.94 366.43 864.94 366.43L808.72 396.3Z" fill="#FCC009" stroke="#1D1D1B" stroke-width="2" stroke-miterlimit="10"/>
<path d="M716.27 469.41C716.27 469.41 712.42 467.21 698.84 465.86C685.26 464.5 686.58 441.04 686.58 441.04C686.58 441.04 686.96 394.88 718.08 382.86C718.08 382.86 750.05 370.72 780.85 399.19C811.65 427.66 811.46 435.61 811.46 435.61C811.46 435.61 757.32 463.54 755.81 464.31L716.28 469.42" fill="#FCC009"/>
<path d="M716.27 469.41C716.27 469.41 712.42 467.21 698.84 465.86C685.26 464.5 686.58 441.04 686.58 441.04C686.58 441.04 686.96 394.88 718.08 382.86C718.08 382.86 750.05 370.72 780.85 399.19C811.65 427.66 811.46 435.61 811.46 435.61C811.46 435.61 757.32 463.54 755.81 464.31L716.28 469.42" stroke="#1D1D1B" stroke-width="2" stroke-miterlimit="10"/>
<path d="M820.21 463.56C820.21 463.56 785.26 413.98 804.33 386.4C823.39 358.83 854.37 354.4 875.82 357.8C897.27 361.2 923.82 370.4 922.46 397.29C921.1 424.18 889.77 459.5 889.77 459.5L869.35 492.27L844.16 482.74L821.69 464.36L820.21 463.56Z" fill="#4677BB" stroke="#1D1D1B" stroke-width="2" stroke-miterlimit="10"/>
<path d="M776.57 535.06C776.57 535.06 765.18 523.93 727.05 530.74C688.92 537.55 696.07 486.48 699.48 475.59C702.88 464.7 713.78 420.44 749.86 417.72C785.94 415 809.77 435.42 810.46 436.44C811.15 437.46 839.06 485.12 839.06 485.12C839.06 485.12 837.7 519.16 836.34 520.18C834.98 521.2 776.58 535.05 776.58 535.05" fill="#4677BB"/>
<path d="M776.57 535.06C776.57 535.06 765.18 523.93 727.05 530.74C688.92 537.55 696.07 486.48 699.48 475.59C702.88 464.7 713.78 420.44 749.86 417.72C785.94 415 809.77 435.42 810.46 436.44C811.15 437.46 839.06 485.12 839.06 485.12C839.06 485.12 837.7 519.16 836.34 520.18C834.98 521.2 776.58 535.05 776.58 535.05" stroke="#1D1D1B" stroke-width="2" stroke-miterlimit="10"/>
<path d="M902.5 484.19C903.27 482.95 936.75 459.6 963.31 457.21C989.87 454.82 1001.78 434.4 989.86 409.55C977.95 384.7 959.56 368.36 938.8 380.27C918.04 392.18 896.93 430.24 896.93 430.24C896.93 430.24 879.58 458.72 880.94 462.05C882.3 465.38 902.51 484.19 902.51 484.19" fill="#4677BB"/>
<path d="M902.5 484.19C903.27 482.95 936.75 459.6 963.31 457.21C989.87 454.82 1001.78 434.4 989.86 409.55C977.95 384.7 959.56 368.36 938.8 380.27C918.04 392.18 896.93 430.24 896.93 430.24C896.93 430.24 879.58 458.72 880.94 462.05C882.3 465.38 902.51 484.19 902.51 484.19" stroke="#1D1D1B" stroke-width="2" stroke-miterlimit="10"/>
<path d="M1168.18 618.13C1168.18 618.13 1105.09 560.28 1055.31 570.24C1055.31 570.24 1026.97 572.96 1027.74 603.39C1027.74 603.39 1033.87 625.81 1060.68 603.39C1087.49 580.97 1130.81 605.99 1132.51 612.8C1134.21 619.61 1146.47 636.29 1069.87 645.14C993.27 653.99 918.72 596.8 918.72 596.8C918.72 596.8 874.12 556.29 862.21 531.78C862.21 531.78 864.25 514.08 878.89 504.55C893.53 495.02 910.21 482.08 904.42 470.51C898.63 458.94 883.31 447.36 858.12 487.19C858.12 487.19 861.86 440.89 833.95 451.45C806.04 462 824.76 490.94 828.84 500.81C828.84 500.81 789.01 475.96 777.1 504.9C765.19 533.84 782.89 540.3 782.89 540.3C782.89 540.3 798.21 544.39 821.02 537.92C843.83 531.45 846.55 543.37 846.55 543.37C846.55 543.37 858.46 583.54 926.89 628.48C995.32 673.42 1067.32 679.22 1109.19 672.23C1151.06 665.24 1144.42 718.27 1085.7 720.61C1085.7 720.61 1064.76 726.52 1021.36 702.01C977.96 677.5 971.83 690.65 972.34 695.05C972.85 699.45 982.1 731.47 1056.08 738.78C1107.65 743.88 1117.17 734.02 1153.1 706.6C1153.1 706.6 1176.63 618.55 1168.19 618.15" fill="#6EB52C"/>
<path d="M1168.18 618.13C1168.18 618.13 1105.09 560.28 1055.31 570.24C1055.31 570.24 1026.97 572.96 1027.74 603.39C1027.74 603.39 1033.87 625.81 1060.68 603.39C1087.49 580.97 1130.81 605.99 1132.51 612.8C1134.21 619.61 1146.47 636.29 1069.87 645.14C993.27 653.99 918.72 596.8 918.72 596.8C918.72 596.8 874.12 556.29 862.21 531.78C862.21 531.78 864.25 514.08 878.89 504.55C893.53 495.02 910.21 482.08 904.42 470.51C898.63 458.94 883.31 447.36 858.12 487.19C858.12 487.19 861.86 440.89 833.95 451.45C806.04 462 824.76 490.94 828.84 500.81C828.84 500.81 789.01 475.96 777.1 504.9C765.19 533.84 782.89 540.3 782.89 540.3C782.89 540.3 798.21 544.39 821.02 537.92C843.83 531.45 846.55 543.37 846.55 543.37C846.55 543.37 858.46 583.54 926.89 628.48C995.32 673.42 1067.32 679.22 1109.19 672.23C1151.06 665.24 1144.42 718.27 1085.7 720.61C1085.7 720.61 1064.76 726.52 1021.36 702.01C977.96 677.5 971.83 690.65 972.34 695.05C972.85 699.45 982.1 731.47 1056.08 738.78C1107.65 743.88 1117.17 734.02 1153.1 706.6C1153.1 706.6 1176.63 618.55 1168.19 618.15" stroke="#1D1D1B" stroke-width="2" stroke-miterlimit="10"/>
<path d="M0.570023 519.68C0.570023 519.68 43.99 516.11 45.01 574.32C45.01 574.32 98.63 541.13 116.5 570.23C116.5 570.23 173.15 663.68 0.570023 699.93C-172.01 736.18 0.570023 519.68 0.570023 519.68Z" fill="white" stroke="#1D1D1B" stroke-width="2" stroke-miterlimit="10"/>
<path d="M0.570076 900.62C0.570076 903.17 35.6601 951.4 64.0701 938.75C69.7801 936.21 74.6101 934.57 78.9601 930.84C94.1501 917.82 89.8101 905.08 72.0701 868.45C72.0701 868.45 120.07 906.75 153.26 876.11C186.45 845.47 96.5801 762.75 96.5801 762.75C96.5801 762.75 -13.2099 745.39 -14.7399 748.45C-16.2699 751.51 -47.4199 816.36 -47.4199 816.36L0.570076 900.62Z" fill="white" stroke="#1D1D1B" stroke-width="2" stroke-miterlimit="10"/>
<path d="M0.570068 760.19C0.570068 762.04 109.65 834.37 169.62 819.38C180.61 816.63 189.26 808.21 192.36 797.32C198.07 777.25 198.82 741.27 141.52 722.41C141.52 722.41 198.88 696.7 161.43 657.56C123.98 618.42 -35.6799 721.39 -35.6799 721.39L0.570068 760.19Z" fill="white" stroke="#1D1D1B" stroke-width="2" stroke-miterlimit="10"/>
<path d="M-1.92995 552.12C-1.92995 552.12 30.7501 549.55 31.5201 591.4C31.5201 591.4 71.8801 567.54 85.3301 588.46C85.3301 588.46 127.98 655.65 -1.92995 681.71C-131.84 707.78 -1.92995 552.11 -1.92995 552.11V552.12Z" fill="#DB398D" stroke="#1D1D1B" stroke-width="2" stroke-miterlimit="10"/>
<path d="M118.42 816.84C107.62 814.63 95.7901 810.9 85.9901 805.87C85.5101 805.69 81.8301 803.93 81.3501 803.75C74.6201 801.23 71.8401 800.53 63.7301 796.96C61.1401 795.82 56.3801 793.19 53.9701 791.78C44.9401 788.14 37.1601 782.15 28.2001 778.32C22.4401 775.86 17.7801 771.97 12.5201 768.58C9.2101 766.44 3.5901 762.94 0.560104 760.19C-0.429896 759.73 -0.119895 761.22 -1.0999 760.76C-2.5399 760.08 -3.3199 759.03 -3.5699 757.89C-10.4799 757.2 -15.0299 756.95 -15.2999 757.46C-16.5299 759.77 -41.5199 808.71 -41.5199 808.71L-3.0199 872.29C-3.0199 874.22 25.1401 910.61 47.9301 901.06C52.5101 899.14 56.3801 897.91 59.8801 895.09C72.0701 885.26 68.5801 875.65 54.3501 848.01C54.3501 848.01 92.8601 876.91 119.49 853.79C129.63 844.99 125.45 830.5 116.4 815.92C115.57 815.64 119.24 817.13 118.41 816.83L118.42 816.84Z" fill="#DB398D" stroke="#1D1D1B" stroke-width="2" stroke-miterlimit="10"/>
<path d="M8.32007 754.78C8.32007 756.16 95.9901 810.2 144.19 799C153.02 796.95 159.98 790.66 162.47 782.52C167.06 767.52 167.66 740.64 121.61 726.55C121.61 726.55 167.72 707.34 137.62 678.1C107.52 648.86 -20.7999 725.79 -20.7999 725.79L8.33007 754.78H8.32007Z" fill="#DB398D" stroke="#1D1D1B" stroke-width="2" stroke-miterlimit="10"/>
<path d="M1155.96 808.4C1155.96 808.4 757.87 667.26 500.76 933.3C500.76 933.3 316.93 1156.96 583.48 1203.68C583.48 1203.68 645.52 1201.38 625.61 1170.74C605.7 1140.1 589.61 1170.74 571.23 1166.14C552.85 1161.54 424.93 1143.93 495.4 999.16C565.87 854.39 775.74 821.41 775.74 821.41C775.74 821.41 987.28 783.12 1162.62 841.35C1162.62 841.35 1157.27 816.68 1155.96 808.38" fill="#6EB52C"/>
<path d="M1155.96 808.4C1155.96 808.4 757.87 667.26 500.76 933.3C500.76 933.3 316.93 1156.96 583.48 1203.68C583.48 1203.68 645.52 1201.38 625.61 1170.74C605.7 1140.1 589.61 1170.74 571.23 1166.14C552.85 1161.54 424.93 1143.93 495.4 999.16C565.87 854.39 775.74 821.41 775.74 821.41C775.74 821.41 987.28 783.12 1162.62 841.35C1162.62 841.35 1157.27 816.68 1155.96 808.38" stroke="#1D1D1B" stroke-width="2" stroke-miterlimit="10"/>
<path d="M0.570072 987.34C0.570072 987.34 92.5001 1143.17 234.2 1062.75C375.9 982.32 468.58 937.9 500.75 933.3C500.75 933.3 542.02 894.91 544.79 892.66C547.56 890.41 364.41 949.39 245.69 1025.21C126.97 1101.04 41.9401 994.57 41.9401 994.57L0.570072 935.6L-53.7999 947.86L0.570072 987.34Z" fill="#6EB52C" stroke="#1D1D1B" stroke-width="2" stroke-miterlimit="10"/>
<path d="M2825.95 689.72C2825.95 689.72 2917.35 645.18 2940.33 681.23C2952.78 700.76 2955.34 716.46 2951.17 730.88C2947 745.3 2957.48 760.46 2972.81 760.66C2996.68 760.96 3021.48 768.09 3023.05 796C3026.11 850.57 2984.75 859.76 2975.56 859.76C2966.37 859.76 3154.21 917.41 3392.66 796.56C3393.43 796.17 3394.18 795.74 3394.9 795.26C3409.29 785.87 3555.42 688.29 3481.09 643.42C3481.09 643.42 3446.6 619 3396.91 690.44C3395.57 692.36 3393.95 694.06 3392.09 695.48C3382.27 702.98 3351.5 720.92 3321.77 679.79C3285.77 629.97 3385.34 525.04 3455.81 508.95C3525.79 492.98 3583.68 478.51 3617.49 563.83C3618 565.13 3618.39 566.47 3618.66 567.84C3621.46 582.11 3633.93 662.48 3573.72 722.52C3559.49 736.7 3568.52 760.95 3588.57 762.16C3628.08 764.54 3684.19 755.27 3736.14 701.25C3736.54 700.83 3736.97 700.44 3737.4 700.06C3740.13 697.67 3753.39 682.75 3756.82 616.19C3760.65 541.89 3852.56 469.89 3926.86 466.06C3993.96 462.6 3914.32 576.6 3898.26 598.71C3896.55 601.07 3894.4 603.08 3891.94 604.64C3873.91 616.11 3795.41 669.1 3821.92 705.8C3843.02 735.01 3888.95 711.12 3914.11 694.56C3924.22 687.91 3937.73 690.09 3945.18 699.63L3952.26 708.69C3962.81 722.2 3955.56 742.1 3938.78 745.65L3901.38 753.57C3897.42 754.41 3893.76 756.26 3890.74 758.95C3876.65 771.5 3838.97 808.16 3880.9 806.89C3881.41 806.87 3881.91 806.86 3882.41 806.84C3902.6 806.09 3914.01 829.74 3900.87 845.09L3898.59 847.75C3896.07 850.7 3892.86 852.99 3889.23 854.34C3878.26 858.44 3855.6 861.54 3842.63 825.41C3840.1 818.36 3834.37 812.96 3827.17 810.88C3802.57 803.77 3740.46 793.21 3633.49 820.67C3490.26 857.44 3473.4 861.27 3468.04 860.5C3462.68 859.73 3568.27 884.04 3520.73 1037.81C3520.41 1038.85 3520.14 1039.91 3519.96 1040.98C3518.31 1050.91 3501.53 1116.43 3347.79 1098.71C3347.79 1098.71 3261.62 1088.82 3281.23 1028.35C3283.02 1022.84 3286.8 1018.22 3291.81 1015.32C3299.36 1010.97 3312.29 1005.56 3329.41 1006.02C3357.75 1006.79 3491.03 1029 3482.6 953.93C3474.17 878.87 3444.82 839.04 3400.52 839.8C3356.22 840.56 3222.94 892.65 3174.69 911.8C3126.43 930.95 2826.28 1046.84 2759.03 811.2C2705.25 622.75 2731.56 652.57 2744.25 672.07C2748.03 677.88 2754.22 681.68 2761.11 682.45L2825.93 689.67" fill="#6EB52C"/>
<path d="M2825.95 689.72C2825.95 689.72 2917.35 645.18 2940.33 681.23C2952.78 700.76 2955.34 716.46 2951.17 730.88C2947 745.3 2957.48 760.46 2972.81 760.66C2996.68 760.96 3021.48 768.09 3023.05 796C3026.11 850.57 2984.75 859.76 2975.56 859.76C2966.37 859.76 3154.21 917.41 3392.66 796.56C3393.43 796.17 3394.18 795.74 3394.9 795.26C3409.29 785.87 3555.42 688.29 3481.09 643.42C3481.09 643.42 3446.6 619 3396.91 690.44C3395.57 692.36 3393.95 694.06 3392.09 695.48C3382.27 702.98 3351.5 720.92 3321.77 679.79C3285.77 629.97 3385.34 525.04 3455.81 508.95C3525.79 492.98 3583.68 478.51 3617.49 563.83C3618 565.13 3618.39 566.47 3618.66 567.84C3621.46 582.11 3633.93 662.48 3573.72 722.52C3559.49 736.7 3568.52 760.95 3588.57 762.16C3628.08 764.54 3684.19 755.27 3736.14 701.25C3736.54 700.83 3736.97 700.44 3737.4 700.06C3740.13 697.67 3753.39 682.75 3756.82 616.19C3760.65 541.89 3852.56 469.89 3926.86 466.06C3993.96 462.6 3914.32 576.6 3898.26 598.71C3896.55 601.07 3894.4 603.08 3891.94 604.64C3873.91 616.11 3795.41 669.1 3821.92 705.8C3843.02 735.01 3888.95 711.12 3914.11 694.56C3924.22 687.91 3937.73 690.09 3945.18 699.63L3952.26 708.69C3962.81 722.2 3955.56 742.1 3938.78 745.65L3901.38 753.57C3897.42 754.41 3893.76 756.26 3890.74 758.95C3876.65 771.5 3838.97 808.16 3880.9 806.89C3881.41 806.87 3881.91 806.86 3882.41 806.84C3902.6 806.09 3914.01 829.74 3900.87 845.09L3898.59 847.75C3896.07 850.7 3892.86 852.99 3889.23 854.34C3878.26 858.44 3855.6 861.54 3842.63 825.41C3840.1 818.36 3834.37 812.96 3827.17 810.88C3802.57 803.77 3740.46 793.21 3633.49 820.67C3490.26 857.44 3473.4 861.27 3468.04 860.5C3462.68 859.73 3568.27 884.04 3520.73 1037.81C3520.41 1038.85 3520.14 1039.91 3519.96 1040.98C3518.31 1050.91 3501.53 1116.43 3347.79 1098.71C3347.79 1098.71 3261.62 1088.82 3281.23 1028.35C3283.02 1022.84 3286.8 1018.22 3291.81 1015.32C3299.36 1010.97 3312.29 1005.56 3329.41 1006.02C3357.75 1006.79 3491.03 1029 3482.6 953.93C3474.17 878.87 3444.82 839.04 3400.52 839.8C3356.22 840.56 3222.94 892.65 3174.69 911.8C3126.43 930.95 2826.28 1046.84 2759.03 811.2C2705.25 622.75 2731.56 652.57 2744.25 672.07C2748.03 677.88 2754.22 681.68 2761.11 682.45L2825.93 689.67" stroke="#1D1D1B" stroke-width="2" stroke-miterlimit="10"/>
<path d="M2813.93 658.53C2813.93 658.53 2926.54 444.61 3085.86 341.46C3245.18 238.31 3194.12 354.74 3171.65 408.86C3149.18 462.99 3155.31 525.29 3218.63 522.22C3281.95 519.15 3382.03 290.39 3382.03 290.39C3382.03 290.39 3452.53 103.99 3604.81 60.85C3618.3 57.03 3632.62 56.81 3646.1 60.66C3664.39 65.88 3684.76 79.25 3684.21 112.96C3683.97 127.76 3679.66 142.22 3672.12 154.96C3649.73 192.81 3585.89 310.6 3652.66 320.01C3732.32 331.24 3838.53 221.97 3887.55 221.97C3936.57 221.97 3895.49 282.23 3895.49 282.23C3895.49 282.23 3662.87 394.57 3588.32 365.97C3513.77 337.37 3595.47 278.14 3583.21 218.91C3573.81 173.45 3529.87 168.37 3482.78 210.4C3468.51 223.14 3452.48 249.55 3438.52 281.55C3416.86 331.2 3358.52 503.85 3207.37 600.87C3207.37 600.87 3139.77 641.09 3104.74 573.74C3095.79 556.53 3091.65 537.24 3092.09 517.85C3092.87 483.63 3088.04 411.61 3028.39 459.94C2951.79 521.98 2894.99 561.67 2826.18 679.8C2801.17 722.73 2838.73 660.29 2825.56 672.86C2825.56 672.86 2825.04 658.84 2813.91 658.54" fill="#FFDE07"/>
<path d="M2813.93 658.53C2813.93 658.53 2926.54 444.61 3085.86 341.46C3245.18 238.31 3194.12 354.74 3171.65 408.86C3149.18 462.99 3155.31 525.29 3218.63 522.22C3281.95 519.15 3382.03 290.39 3382.03 290.39C3382.03 290.39 3452.53 103.99 3604.81 60.85C3618.3 57.03 3632.62 56.81 3646.1 60.66C3664.39 65.88 3684.76 79.25 3684.21 112.96C3683.97 127.76 3679.66 142.22 3672.12 154.96C3649.73 192.81 3585.89 310.6 3652.66 320.01C3732.32 331.24 3838.53 221.97 3887.55 221.97C3936.57 221.97 3895.49 282.23 3895.49 282.23C3895.49 282.23 3662.87 394.57 3588.32 365.97C3513.77 337.37 3595.47 278.14 3583.21 218.91C3573.81 173.45 3529.87 168.37 3482.78 210.4C3468.51 223.14 3452.48 249.55 3438.52 281.55C3416.86 331.2 3358.52 503.85 3207.37 600.87C3207.37 600.87 3139.77 641.09 3104.74 573.74C3095.79 556.53 3091.65 537.24 3092.09 517.85C3092.87 483.63 3088.04 411.61 3028.39 459.94C2951.79 521.98 2894.99 561.67 2826.18 679.8C2801.17 722.73 2838.73 660.29 2825.56 672.86C2825.56 672.86 2825.04 658.84 2813.91 658.54" stroke="#1D1D1B" stroke-width="2" stroke-miterlimit="10"/>
<path d="M2831.07 671.53C2831.07 671.53 2848.22 640.77 2877.1 602.95C2920.51 546.12 2988.58 471.12 3050.11 442.91C3050.11 442.91 3084.81 424.67 3091.2 490.6C3097.6 556.53 3093.04 573.01 3129.02 602.52C3159.81 627.77 3229.84 593.86 3282.86 539.76C3291.8 530.63 3301.67 519.52 3309.94 508.65C3367.29 433.3 3363.5 423.64 3384.06 389.47C3393.62 373.58 3409.84 342.52 3421.85 314.92C3435.66 283.18 3450.68 256.12 3450.96 255.6C3451.47 254.64 3476.47 170.5 3553.09 179.09C3553.09 179.09 3613.44 191.81 3571.98 284.28C3530.52 376.75 3626.2 376.14 3672.96 363.88C3719.73 351.61 3844.61 312.04 3899.48 275.78C3954.35 239.52 3935.04 305.73 3935.04 305.73L3895.49 342.5C3895.49 342.5 3682.08 445.53 3614.36 429.82C3515.3 406.84 3540.83 377.22 3538.79 349.65C3536.75 322.08 3515.81 319.52 3486.19 356.8C3456.57 394.08 3412.15 465.57 3403.47 480.37C3394.79 495.17 3348.32 630.5 3214.53 676.97C3080.74 723.44 3053.17 653.99 3053.17 653.99C3053.17 653.99 3032.52 587.02 3005.17 570.25C2973.77 550.99 2902.02 622.68 2893.33 668.19C2893.33 668.19 2871.27 672.12 2831.07 687.38C2831.07 687.38 2832.62 679.57 2831.07 671.55V671.53Z" fill="#F49623" stroke="#1D1D1B" stroke-width="2" stroke-miterlimit="10"/>
<path d="M3910.4 330.06C3753.75 405.46 3649.61 440.78 3615.9 429.81C3582.2 418.83 3541.6 399.43 3541.64 361.65C3541.67 323.88 3519.47 326.05 3519.47 326.05C3485.84 318.55 3404.25 474.49 3404.25 474.49C3330.78 649.05 3216.08 676.96 3216.08 676.96C3080.93 722.75 3054.72 653.98 3054.72 653.98C3029.87 581.47 3011.83 544.7 2957.43 582.46C2903.03 620.21 2894.88 668.18 2894.88 668.18C2927.55 660.93 2941.87 681.24 2941.87 681.24C2967.91 724.84 2929.61 766.32 2929.61 766.32C2947.48 762.23 2969.96 760.69 2969.96 760.69C2987.84 708.08 3002.12 699.43 3002.12 699.43C3032.76 675.94 3026.12 727 3030.72 764.28C3035.32 801.56 3038.89 831.68 3175.23 791.34C3311.57 751 3343.71 699.63 3343.71 699.63C3334.1 692.24 3290.64 665.21 3337.64 598.33C3384.64 531.45 3454.12 509.75 3454.12 509.75C3502.22 430.25 3510.73 482.71 3511.33 493.8C3511.7 495.22 3511.93 496.66 3512.1 498.18C3512.15 498.17 3512.2 498.16 3512.26 498.15C3577.63 484.37 3605.25 536.29 3605.25 536.29C3671.93 585.84 3897.06 438.38 3897.06 438.38L3921.55 410.15C3921.55 410.15 4067.08 254.66 3910.43 330.06H3910.4Z" fill="#E83D35" stroke="#1D1D1B" stroke-width="2" stroke-miterlimit="10"/>
<path d="M3895.61 472.88C3895.61 472.88 3796.8 495.08 3760.79 595.08C3760.79 595.08 3658.68 638.95 3620.88 621.44C3620.88 621.44 3622.88 558.39 3602.93 532.58C3602.93 532.58 3631.38 595.29 3895.61 439.91C3895.61 439.91 4020.44 394.06 4018.14 396.36C4015.84 398.66 3895.61 472.88 3895.61 472.88Z" fill="#E60D7D" stroke="#1D1D1B" stroke-width="2" stroke-miterlimit="10"/>
<path d="M2975.67 859.51C2975.67 859.51 3112.29 902.45 3299.04 836.17C3299.04 836.17 3427.68 725.12 3450.74 642.57C3450.74 642.57 3421.38 652.62 3400.9 683.54C3394.51 693.19 3384.85 700.32 3373.56 702.88C3364.72 704.88 3353.86 704.91 3342.27 699.38C3342.27 699.38 3306.56 759.73 3121.2 804.64C3121.2 804.64 3033.01 828.61 3033.77 760.95C3034.54 693.29 3011.94 646.79 2968.52 760.42C2968.52 760.42 3020.85 757.25 3023.15 795.73C3025.45 834.22 2997.11 855.66 2975.66 859.49L2975.67 859.51Z" fill="#E60D7D" stroke="#1D1D1B" stroke-width="2" stroke-miterlimit="10"/>
<path d="M3454.47 509.11C3454.47 509.11 3496.21 498.87 3512.44 497.54C3512.44 497.54 3510.83 466.56 3494.99 465.99C3494.99 465.99 3478.79 466.25 3454.46 509.11H3454.47Z" fill="#E60D7D" stroke="#1D1D1B" stroke-width="2" stroke-miterlimit="10"/>
<path d="M3117.55 931.93C3117.55 931.93 3105.03 1013.8 3241.61 967C3314.63 941.98 3418.24 872.95 3431.65 848.11C3431.65 848.11 3415.02 824.98 3319.59 858.8C3224.16 892.62 3211.26 898.24 3170.18 913.64C3129.1 929.04 3118.78 931.56 3117.55 931.93Z" fill="#7E3B8F" stroke="#1D1D1B" stroke-width="2" stroke-miterlimit="10"/>
<path d="M3300.47 836.43C3300.47 836.43 3428.34 717.47 3446.55 644.37C3446.55 644.37 3488.25 622.39 3503.31 671.38C3518.37 720.37 3398.65 814.11 3300.47 836.43Z" fill="#7E3B8F" stroke="#1D1D1B" stroke-width="2" stroke-miterlimit="10"/>
<path d="M3595.51 695.08C3594.8 695.97 3631.27 717.97 3751.36 663.25C3751.36 663.25 3755.29 641.47 3756.9 611.73C3756.9 611.73 3758 599.86 3760.4 593.55C3760.4 593.55 3652.42 637.42 3620.49 619.91C3620.49 619.91 3617.08 668.11 3595.5 695.08H3595.51Z" fill="#7E3B8F" stroke="#1D1D1B" stroke-width="2" stroke-miterlimit="10"/>
<path d="M3830.7 658.7C3830.7 658.7 3866.12 707.84 3908.5 658.7C3950.88 609.56 3897.1 602.41 3897.1 602.41C3897.1 602.41 3841.38 639.31 3830.69 658.7H3830.7Z" fill="#334A9A" stroke="#1D1D1B" stroke-width="2" stroke-miterlimit="10"/>
<path d="M3471.15 900.45C3471.15 900.45 3458.45 859.76 3431.65 848.1C3431.65 848.1 3413.64 869.67 3372.08 897.55C3335.6 922.02 3276.52 952.53 3256.34 961.53C3256.34 961.53 3144.08 1008.96 3121.1 956.06C3121.1 956.06 3115.54 944.01 3117.55 931.93C3117.55 931.93 3071.4 947.14 3033.4 951.6C3033.4 951.6 3142.04 1110.83 3229.52 1059.77C3229.52 1059.77 3265.52 1044.39 3285.31 1020.93C3285.31 1020.93 3295.91 1004.82 3329.44 1006.07C3330.8 1006.12 3467.19 960.74 3474.8 915.09C3475.65 909.98 3473.27 904.89 3471.16 900.46L3471.15 900.45Z" fill="#334A9A" stroke="#1D1D1B" stroke-width="2" stroke-miterlimit="10"/>
<path d="M3506.97 887.29C3506.97 887.29 3523.02 862.51 3545.46 843.18C3545.46 843.18 3471.22 863.51 3468.07 860.53C3468.07 860.53 3490.63 868.18 3506.97 887.29Z" fill="#334A9A" stroke="#1D1D1B" stroke-width="2" stroke-miterlimit="10"/>
<path d="M3751.38 663.76C3751.38 663.76 3755.33 709.51 3680.72 743.45C3606.11 777.39 3564.58 773.3 3565.26 739.94C3565.26 739.94 3568.01 727.23 3575.98 717.98C3597.37 693.18 3595.37 695.47 3595.52 695.6C3595.52 695.6 3636.55 716.27 3751.37 663.77L3751.38 663.76Z" fill="#334A9A" stroke="#1D1D1B" stroke-width="2" stroke-miterlimit="10"/>
<path d="M3828.91 659.21C3829.89 657.96 3859.81 701.3 3898.24 667.85C3936.67 634.4 3895.32 706.12 3895.32 706.12C3895.32 706.12 3847.26 735.8 3824.39 709.61C3824.39 709.61 3803.2 692.18 3828.91 659.2V659.21Z" fill="#FEC803" stroke="#1D1D1B" stroke-width="2" stroke-miterlimit="10"/>
<path d="M3895.5 758.67C3893.36 759.94 3854.31 788.92 3862.08 803.1C3869.86 817.27 3881.85 805.97 3895.94 813.49C3910.03 821.01 3914.85 782.89 3914.85 782.89L3895.5 758.67Z" fill="#FEC803" stroke="#1D1D1B" stroke-width="2" stroke-miterlimit="10"/>
<path d="M3735.79 803.64C3736.41 803.6 3762.97 813.3 3769.44 857.9C3775.91 902.5 3783.06 907.85 3821.87 887.3C3860.68 866.75 3870.06 856.01 3870.06 856.01C3870.06 856.01 3854.61 858.03 3842.67 825.45C3830.73 792.87 3735.8 803.64 3735.8 803.64H3735.79Z" fill="#FEC803" stroke="#1D1D1B" stroke-width="2" stroke-miterlimit="10"/>
<path d="M2751.31 841.24C2751.31 841.24 2788.84 1007.68 2829.69 1039.85C2870.54 1072.02 2898.63 1070.49 2914.46 1060.79C2930.29 1051.09 2896.59 1028.01 2899.65 1003.21C2900.7 994.67 2904.25 958.96 2941.01 982.3C2977.78 1005.64 3005.6 1047.45 3035.86 1070.71C3066.12 1093.97 3126.52 1152.43 3194.29 1133.8C3202.06 1131.66 3257.1 1114.87 3287.95 1072.76C3287.95 1072.76 3268.48 1056.4 3280.41 1029.23C3280.41 1029.23 3228.51 1068.95 3192.76 1070.48C3157.02 1072.01 3107.04 1041.29 3074.44 1003.2C3041.85 965.11 3032.55 952.44 3032.55 952.44C3032.55 952.44 2929.27 973.46 2849.61 932.61C2849.61 932.61 2779.65 900.95 2757.7 809.04L2756.55 806.74C2756.55 806.74 2751.83 838.26 2751.32 841.24" fill="#24204D"/>
<path d="M2751.31 841.24C2751.31 841.24 2788.84 1007.68 2829.69 1039.85C2870.54 1072.02 2898.63 1070.49 2914.46 1060.79C2930.29 1051.09 2896.59 1028.01 2899.65 1003.21C2900.7 994.67 2904.25 958.96 2941.01 982.3C2977.78 1005.64 3005.6 1047.45 3035.86 1070.71C3066.12 1093.97 3126.52 1152.43 3194.29 1133.8C3202.06 1131.66 3257.1 1114.87 3287.95 1072.76C3287.95 1072.76 3268.48 1056.4 3280.41 1029.23C3280.41 1029.23 3228.51 1068.95 3192.76 1070.48C3157.02 1072.01 3107.04 1041.29 3074.44 1003.2C3041.85 965.11 3032.55 952.44 3032.55 952.44C3032.55 952.44 2929.27 973.46 2849.61 932.61C2849.61 932.61 2779.65 900.95 2757.7 809.04L2756.55 806.74C2756.55 806.74 2751.83 838.26 2751.32 841.24" stroke="#1D1D1B" stroke-width="2" stroke-miterlimit="10"/>
<path d="M3328.59 1006.91C3328.59 1006.91 3451.31 967.17 3473.95 915.93C3473.95 915.93 3500.63 985.59 3458.53 998.93C3416.42 1012.27 3415.91 1011.25 3328.59 1006.91Z" fill="#24204D" stroke="#1D1D1B" stroke-width="2" stroke-miterlimit="10"/>
<path d="M3528.51 932.55C3528.51 932.55 3573.69 873.29 3616.59 888.14C3659.48 902.99 3652.44 966.31 3657.75 988.78C3663.06 1011.25 3677.36 1072.52 3740.68 1055.67C3804 1038.82 3837.38 1014.82 3894.73 957.63C3952.08 900.44 3927.06 888.14 3927.06 888.14L3894.89 895.85C3894.89 895.85 3822.38 977.04 3765.19 967.85C3708 958.66 3716.68 939.67 3699.32 888.14C3681.96 836.61 3683.07 839.44 3643.45 818.88C3643.45 818.88 3553.34 841.68 3544.62 844.03C3535.9 846.38 3508.52 879.41 3506.13 888.14C3506.13 888.14 3525 907.44 3528.52 932.55H3528.51Z" fill="#24204D" stroke="#1D1D1B" stroke-width="2" stroke-miterlimit="10"/>
<path d="M3911.62 843.19L3897.27 852.62C3897.27 852.62 3880.13 858.62 3871.17 857.06C3871.15 857.07 3871.14 857.09 3871.13 857.1C3870.71 857.45 3870.28 857.8 3869.8 858.08C3869.95 858.18 3870.05 858.24 3870.05 858.24C3870.05 858.24 3798.97 906.88 3784.67 895.39C3770.37 883.9 3771.28 867.64 3769.44 857.9C3767.6 848.16 3760.19 810.58 3735.79 803.64C3735.79 803.64 3688.48 806.83 3644.29 818.03C3644.29 818.03 3681.78 834.53 3690.97 860.91C3700.16 887.29 3706.08 931.47 3718.2 946.91C3730.63 962.74 3755.74 978.15 3802.92 964.1C3817.78 959.67 3860.5 939.42 3895.74 894.99C3930.97 850.56 3911.62 843.18 3911.62 843.18V843.19Z" fill="#334A9A" stroke="#1D1D1B" stroke-width="2" stroke-miterlimit="10"/>
<path d="M2109.86 478.32C2104.23 483.47 2070.71 498.75 2041.09 581.98C2014 658.12 2069.87 764.2 2086.18 797.7C2087.12 799.62 2088.15 801.48 2089.05 803.41C2097.13 820.62 2141.57 910.83 2208.57 961.38C2282.86 1017.43 2351.55 1025.72 2351.55 1025.72C2351.55 1025.72 2496.97 1062.12 2648.49 992.46C2655.13 989.41 2661.2 985.43 2666.55 980.46C2678.54 969.33 2701.09 949.15 2713.08 924.1C2730.44 887.84 2752.91 803.59 2749.34 699.42C2745.77 595.25 2704.91 516.61 2624.23 466.57C2543.55 416.53 2369.93 420.1 2369.93 420.1C2369.93 420.1 2238.88 423.99 2165.67 451.76C2165.67 451.76 2123.97 465.38 2109.84 478.31L2109.86 478.32Z" stroke="#1D1D1B" stroke-width="2" stroke-miterlimit="10"/>
<path d="M1718.48 465.74C1718.48 465.74 1795.01 484.97 1828.12 620.33C1861.23 755.69 1673.59 949.48 1673.59 949.48C1673.59 949.48 1644.16 987.94 1578.67 1010.87C1513.18 1033.8 1392.5 1051.55 1286.54 1010.87C1180.58 970.19 1162.18 788.23 1162.18 788.23C1162.18 788.23 1150.41 641.04 1201.18 566.33C1251.95 491.62 1311.56 476.09 1365.27 462.04C1418.99 447.99 1617.66 425.8 1718.47 465.74H1718.48Z" stroke="#1D1D1B" stroke-width="2" stroke-miterlimit="10"/>
<path d="M2214.2 979.77C2214.2 979.77 2285.18 1037.47 2403.65 1044.11C2522.12 1050.75 2593.1 1035.43 2659.48 999.17C2725.86 962.91 2749.86 853.13 2749.86 853.13C2749.86 853.13 2772.33 740.79 2759.05 658.58C2745.77 576.37 2700.84 497.73 2655.9 472.2C2610.96 446.67 2585.43 429.82 2476.67 417.56C2367.9 405.3 2266.29 422.16 2186.12 436.96C2105.95 451.77 2077.35 491.09 2077.35 491.09C2077.35 491.09 2032.41 528.37 2025.78 586.58C2019.14 644.79 2025.27 671.35 2039.57 716.28C2053.87 761.22 2077.36 810.24 2112.08 866.92C2146.8 923.6 2195.67 967.12 2214.21 979.77H2214.2Z" fill="url(#paint0_linear_2_2)" stroke="#1D1D1B" stroke-width="2" stroke-miterlimit="10"/>
<path d="M1728.36 454.56C1731.28 455.71 1814.17 484.78 1844.76 609.18C1879.23 749.35 1685.7 957.04 1685.7 957.04C1685.7 957.04 1655.06 996.87 1586.89 1020.61C1518.72 1044.35 1393.1 1062.74 1282.8 1020.61C1172.5 978.48 1153.35 790.06 1153.35 790.06C1153.35 790.06 1141.09 637.63 1193.95 560.27C1246.8 482.91 1308.84 466.82 1364.76 452.27C1419.96 437.9 1623.06 413.17 1728.36 454.55V454.56Z" fill="url(#paint1_linear_2_2)" stroke="#1D1D1B" stroke-width="2" stroke-miterlimit="10"/>
<path d="M1688.03 442.68C1688.03 442.68 2024.52 450.1 2215.11 431.73C2215.11 431.73 2311.2 416.45 2348.47 414.95C2348.47 414.95 2335.99 405.55 2320.67 404.79C2305.35 404.03 1753.86 447.99 1561.61 424.48C1561.61 424.48 1535.57 427.62 1520.25 433.44C1520.25 433.44 1621.61 425.43 1688.04 442.69L1688.03 442.68Z" fill="#916B3F" stroke="#1D1D1B" stroke-width="2" stroke-miterlimit="10"/>
<path d="M2759.05 658.57C2759.05 658.57 2808.33 656.02 2820.07 660.61C2840.34 668.54 2827.75 705.38 2820.58 705.42C2816.84 705.44 2773.18 698.74 2763.05 703.76C2763.05 703.76 2763.25 683.76 2759.05 658.57Z" fill="#916B3F" stroke="#1D1D1B" stroke-width="2" stroke-miterlimit="10"/>
<path d="M1157.1 673.69C1157.1 673.69 1106.8 669.09 1096.08 675.73C1085.36 682.37 1091.87 720.03 1095.57 720.54C1099.27 721.05 1142.76 714.7 1152.88 719.73C1152.88 719.73 1153.73 698.91 1157.1 673.69Z" fill="#916B3F" stroke="#1D1D1B" stroke-width="2" stroke-miterlimit="10"/>
<path d="M1848.87 626.4C1848.87 626.4 1849.1 615.17 1853.86 614.49C1858.62 613.81 1939.65 607 2012.16 610.75C2012.16 610.75 2018.97 613.47 2018.63 626.41C2018.29 639.35 2023.58 643.44 2023.58 643.44C2023.58 643.44 2023.24 623.17 2024.85 595.34C2024.85 595.34 2020.67 587.26 2015.9 587.26C2011.13 587.26 1967.56 583.86 1934.54 584.54C1901.52 585.22 1851.36 590.67 1848.86 591.69C1846.36 592.71 1841.73 597.62 1842.79 601.61C1843.85 605.6 1847.2 616.63 1847.98 627.78L1848.86 626.41L1848.87 626.4Z" fill="url(#paint2_linear_2_2)" stroke="#1D1D1B" stroke-width="2" stroke-miterlimit="10"/>
<path d="M2625.27 1002.36C2625.27 1002.36 2628.91 916.59 2649.59 868.33C2670.27 820.07 2684.56 777.83 2636.43 761.75C2588.3 745.67 2601 726.12 2641.85 664.84C2685.05 600.04 2725.14 568.49 2685.46 518.65C2645.79 468.81 2573.31 443.58 2561.47 441.09C2561.47 441.09 2589.08 463.99 2538.01 508.93C2486.95 553.87 2446.44 642.04 2438.27 657.02C2430.1 672 2412.06 728.85 2408.99 743.83C2405.92 758.81 2398.78 807.49 2446.1 801.02C2493.42 794.55 2511.12 784.68 2531.89 823.49C2531.89 823.49 2553.34 847.32 2542.44 873.87C2531.55 900.42 2507.38 937.19 2522.01 967.15C2536.65 997.11 2551.08 1009.64 2562.72 1020.42C2562.72 1020.42 2604.79 1011 2625.27 1002.37V1002.36Z" fill="#F6A031" stroke="#1D1D1B" stroke-width="2" stroke-miterlimit="10"/>
<path d="M2528.53 433.43C2528.53 433.43 2532.75 442.66 2518.29 473.72C2505.01 502.23 2470.71 536.33 2435.65 599.17C2417.61 631.51 2390.88 682.03 2382.71 731.71C2374.54 781.39 2385.12 805.12 2407.15 825.55C2429.18 845.98 2448.07 842.91 2471.56 840.87C2495.05 838.83 2486.88 871.51 2486.88 871.51C2486.88 871.51 2464.41 932.28 2479.22 966.74C2492.18 996.9 2536.26 1017.87 2554.21 1023.84L2562.72 1020.41C2562.72 1020.41 2535.14 996.11 2523.9 966.49C2512.67 936.87 2520.41 924.62 2542.88 875.26C2565.35 825.9 2514.04 784.43 2475.57 796.01C2475.57 796.01 2472.85 797.91 2448.85 800.63C2424.85 803.35 2401.01 797.73 2411.82 747.09C2422.63 696.45 2435.99 663.6 2438.71 658.41C2441.43 653.22 2488.92 551.77 2538.45 510.32C2587.98 468.87 2567.67 442.74 2563.66 441.64C2559.65 440.54 2528.52 433.43 2528.52 433.43H2528.53Z" fill="#D45A14" stroke="#1D1D1B" stroke-width="2" stroke-miterlimit="10"/>
<path d="M2221.45 436.48C2221.45 436.48 2149.04 546.3 2143.22 588.28C2138.37 623.26 2168.75 673.9 2251.99 713.22C2287.84 730.16 2303.61 754.58 2309.94 776.89C2316.55 800.18 2313.43 825.12 2302.12 846.52C2294.88 860.22 2278.54 883.39 2282.37 890.41C2288.5 901.64 2308.92 912.88 2332.41 918.5C2355.9 924.12 2394.4 936.66 2433.74 1035.07C2433.74 1035.07 2503.06 1037.8 2554.2 1023.85C2554.2 1023.85 2495.89 1003.26 2481.77 963.95C2481.77 963.95 2471.61 946.02 2486.88 871.52C2486.88 871.52 2494.54 839.18 2471.56 840.88C2448.58 842.58 2430.4 846.67 2407.15 825.56C2383.9 804.45 2357.6 745.3 2435.65 599.18C2435.65 599.18 2466 540.63 2523.04 477.65C2524.86 475.64 2526.4 473.38 2527.56 470.93C2531.67 462.3 2539.65 441.98 2528.53 433.44C2528.53 433.44 2396.45 403.84 2221.45 436.49V436.48Z" fill="#E9560D" stroke="#1D1D1B" stroke-width="2" stroke-miterlimit="10"/>
<path d="M2040.24 584.48C2040.24 584.48 2034.28 693.81 2082.96 721.73C2082.96 721.73 2118.36 746.92 2173.17 768.71C2222.32 788.25 2230.95 804.84 2222.39 845.38C2220.93 852.27 2219.02 859.07 2216.63 865.69C2212.26 877.77 2204.91 906.87 2231.39 915.43C2265.09 926.32 2338.24 933.94 2365.33 1028.51C2365.33 1028.51 2381.8 1032.48 2433.75 1035.06C2433.75 1035.06 2399.57 926.32 2331.65 914.91C2263.73 903.5 2297.6 856.37 2302.12 846.51C2306.65 836.65 2344.75 757.46 2251.99 713.21C2159.23 668.96 2146.74 628.69 2150.06 589.04C2151.35 573.59 2167.03 537.91 2182.72 508.27C2198.04 479.33 2207.65 459.85 2221.46 436.47C2221.46 436.47 2125.97 455.13 2087.4 495.67C2071.93 511.93 2058.86 528.2 2051.66 543.33C2040.9 565.93 2040.26 584.47 2040.26 584.47L2040.24 584.48Z" fill="#7E1432" stroke="#1D1D1B" stroke-width="2" stroke-miterlimit="10"/>
<path d="M2365.33 1028.51C2365.33 1028.51 2358.12 937.38 2231.39 915.43C2231.39 915.43 2200.69 906.08 2216.63 865.69C2232.18 826.32 2236.65 788.36 2177.84 770.08C2173.96 768.87 2170.17 767.39 2166.45 765.73C2156.22 761.15 2136.15 751.98 2119.38 743.17C2099.17 732.56 2085.12 723.82 2077.67 716.96C2061 701.63 2044.06 666.13 2044.06 563.49C2044.06 563.49 2021.68 632.19 2040.01 690.06C2057.75 746.09 2058.86 741.63 2089.06 803.41C2122.23 871.28 2162.12 926.15 2208.58 961.38C2255.05 996.61 2298.41 1015.46 2365.33 1028.51Z" fill="#D40F37" stroke="#1D1D1B" stroke-width="2" stroke-miterlimit="10"/>
<path d="M2625.27 1002.36C2625.27 1002.36 2677.42 990.59 2713.1 924.11C2748.78 857.63 2749.81 729.2 2749.73 720.36C2749.65 711.52 2754.74 590.08 2681.66 514.11C2681.66 514.11 2718.26 554.15 2668.02 624.15C2630.34 676.65 2618 691.16 2613.69 695.68C2611.26 698.23 2609.04 700.98 2607.05 703.89C2598.08 716.99 2581.14 747.34 2610.82 755.59C2649.44 766.32 2685.35 772.62 2659.48 840.37C2648.76 868.44 2645.91 876.95 2640.08 894.5C2631.48 920.36 2627.11 955 2625.27 1002.37V1002.36Z" fill="#FECB40" stroke="#1D1D1B" stroke-width="2" stroke-miterlimit="10"/>
<path d="M2767.69 702.5C2767.69 702.5 2774.36 673.98 2786.45 657.08L2798.4 657.16C2798.4 657.16 2780 679.48 2778.98 701.58C2778.98 701.58 2776.15 701.31 2767.68 702.49L2767.69 702.5Z" fill="#E9560D" stroke="#1D1D1B" stroke-width="2" stroke-miterlimit="10"/>
<path d="M2798.4 657.17C2798.4 657.17 2803.9 657.27 2806.64 657.55C2806.64 657.55 2790.55 686.82 2793.78 702.87C2793.78 702.87 2784.87 702.15 2778.98 701.6C2778.98 701.6 2781.38 678.94 2798.4 657.18V657.17Z" fill="#D40F37" stroke="#1D1D1B" stroke-width="2" stroke-miterlimit="10"/>
<path d="M2793.78 702.87C2793.78 702.87 2792.44 683.47 2806.64 657.55C2806.64 657.55 2813.14 658.37 2813.93 658.53C2814.72 658.69 2804.37 675.93 2808.97 704.4L2793.78 702.86V702.87Z" fill="#7E1432" stroke="#1D1D1B" stroke-width="2" stroke-miterlimit="10"/>
<path d="M1139.69 673.13C1140.72 673.64 1136.12 694.05 1149.01 718.57C1149.01 718.57 1138.79 717.69 1134.71 717.82C1130.63 717.95 1134.71 717.3 1134.71 717.3C1134.71 717.3 1124.75 702.74 1127.05 672.17C1127.05 672.17 1138.15 672.37 1139.69 673.13Z" fill="#337ABE" stroke="#1D1D1B" stroke-width="2" stroke-miterlimit="10"/>
<path d="M1124.67 717.88C1124.67 717.88 1113.01 692.59 1118.76 672.2C1118.76 672.2 1126.41 672.15 1127.06 672.17C1127.06 672.17 1123.49 695.86 1134.72 717.3L1124.67 717.88Z" fill="#76C6C3" stroke="#1D1D1B" stroke-width="2" stroke-miterlimit="10"/>
<path d="M1102.66 673.57C1102.66 673.57 1095.29 693.58 1110.86 719.35C1110.86 719.35 1121.02 718.09 1124.67 717.88C1124.67 717.88 1114.03 693.99 1118.76 672.2C1118.76 672.2 1107.21 672.36 1102.66 673.57Z" fill="#8EBF22" stroke="#1D1D1B" stroke-width="2" stroke-miterlimit="10"/>
<path d="M1641.23 978.74C1641.23 978.74 1613.69 927.93 1671.13 881.98C1728.57 836.03 1771.47 795.8 1721.68 733.57C1671.89 671.34 1708.66 669.81 1749.25 638.4C1789.85 607 1811.15 587.12 1812.37 571.01C1812.37 571.01 1824.7 599.01 1828.1 620.32C1831.5 641.63 1844.32 677.9 1799.46 772.66C1754.6 867.42 1670.28 956.77 1641.21 978.73L1641.23 978.74Z" fill="#E73635" stroke="#1D1D1B" stroke-width="2" stroke-miterlimit="10"/>
<path d="M1569.74 1013.85C1569.74 1013.85 1481.44 976.19 1582.04 858.74C1582.04 858.74 1603.49 833.21 1622.89 816.36C1642.29 799.51 1622.89 749.47 1585.61 751C1548.33 752.53 1502.89 737.72 1505.44 696.36C1507.99 655 1526.38 601.89 1558.55 559.51C1590.72 517.13 1662.76 449.4 1634.64 446.99C1634.64 446.99 1694.36 451.34 1721.78 465.38C1750.38 480.02 1786.46 500.44 1812.39 571.02C1812.39 571.02 1823.06 583 1749.27 638.41C1749.27 638.41 1714.29 661.39 1709.7 665.47C1705.11 669.55 1679.83 686.53 1721.7 733.57C1763.57 780.62 1747.74 826.83 1671.15 881.98C1671.15 881.98 1619.77 917.72 1641.25 978.74C1641.25 978.74 1600.64 1005.38 1569.75 1013.85H1569.74Z" fill="#FCBF2D" stroke="#1D1D1B" stroke-width="2" stroke-miterlimit="10"/>
<path d="M1560.34 1016.71C1560.67 1016.61 1569.74 1013.86 1569.74 1013.86C1555.66 1003.78 1529.19 993.31 1535.39 942C1541.59 890.69 1622.89 816.37 1622.89 816.37C1622.89 816.37 1639.23 802.33 1624.52 774.89C1609.81 747.45 1585.61 751.01 1585.61 751.01C1504.42 751.52 1505.35 698.92 1505.35 698.92C1512.92 596.79 1579.61 533.97 1618.87 488.67C1658.13 443.37 1634.64 447 1634.64 447L1590.71 443.77C1546.79 504.7 1477.36 673.9 1465.1 734.01C1452.84 794.12 1484.12 796.27 1489.42 797.22C1505.66 800.15 1525.87 795.43 1534.55 802.58C1543.23 809.73 1525.74 846.15 1515.83 863.01C1507.87 876.53 1498.9 885.25 1490.3 914.41C1488.18 921.6 1484.59 934 1485.19 945.73C1488.01 1000.4 1560.01 1016.81 1560.01 1016.81L1560.34 1016.71Z" fill="#C6D543" stroke="#1D1D1B" stroke-width="2" stroke-miterlimit="10"/>
<path d="M1382.12 458.29C1382.12 458.29 1316.33 588.61 1332.67 639C1332.67 639 1337.78 669.3 1378.97 684.96C1420.16 700.62 1404.5 766.32 1389.52 785.73C1374.54 805.13 1357.52 849.73 1363.31 867.43C1369.1 885.13 1375.91 893.64 1401.78 897.39C1427.65 901.14 1436.5 900.45 1449.78 947.43C1449.78 947.43 1451.14 966.83 1442.63 987.94C1434.12 1009.05 1444.7 1026.82 1453.54 1034.44C1453.54 1034.44 1513.99 1031.54 1560.01 1016.8C1560.66 1015.74 1427.89 993.12 1515.82 863C1515.82 863 1530.23 837.19 1535.73 819.26C1538.95 808.78 1537.63 799.49 1526.88 797.3C1522.9 796.49 1511.22 796.59 1504.79 795.68C1486.19 793.04 1450.03 797.29 1465.73 730.42C1481.55 663.04 1568.56 469.8 1590.69 443.76C1590.69 443.76 1542.8 440.58 1479.55 445.13C1449.29 447.3 1417.08 451.26 1382.1 458.3L1382.12 458.29Z" fill="#8EBF22" stroke="#1D1D1B" stroke-width="2" stroke-miterlimit="10"/>
<path d="M1382.12 458.29C1382.12 458.29 1319.74 582.14 1332.67 639C1332.67 639 1337.78 669.64 1378.97 684.96C1420.16 700.28 1405.18 762.24 1389.52 785.73C1373.86 809.22 1358.54 849.05 1363.31 867.43C1368.08 885.81 1379.31 894.66 1401.78 897.39C1424.25 900.12 1444.33 899.77 1449.78 947.43C1449.78 947.43 1452.4 969.49 1443.38 989.02C1440.91 994.37 1439.91 1000.18 1440.27 1006.07C1440.8 1014.6 1443.35 1026.07 1453.54 1034.45C1453.54 1034.45 1433.74 1035.4 1423.23 1035.18C1423.23 1035.18 1422.21 932.29 1325.19 929.22C1228.17 926.16 1306.81 848.54 1312.42 818.41C1318.04 788.28 1318.04 726.19 1280.25 730.43C1242.46 734.67 1173.8 765.22 1182.6 603.39C1182.6 603.39 1195.11 556.59 1244 516.12C1274.19 491.13 1317.9 471.13 1382.13 458.31L1382.12 458.29Z" fill="#76C6C3" stroke="#1D1D1B" stroke-width="2" stroke-miterlimit="10"/>
<path d="M1182.59 603.38C1182.59 603.38 1173.34 716.46 1219.47 731.86C1219.47 731.86 1234.5 740.97 1270.48 731.86C1306.13 722.83 1326.4 738.81 1314.96 807.51L1312.18 819.84C1306.79 837.13 1309.37 831.41 1290.27 862.38C1267.64 899.08 1270.7 928.02 1325.17 929.21C1379.64 930.4 1418.11 958.49 1423.21 1035.17C1423.21 1035.17 1394.88 1035.4 1371.56 1031.76C1371.56 1031.76 1392.91 993.38 1346.61 980.1C1300.31 966.82 1287.72 971.25 1282.61 969.55C1277.5 967.85 1212.48 957.29 1251.29 850.74C1251.29 850.74 1264.91 823.51 1272.74 808.87C1280.57 794.23 1278.53 753.38 1235.63 749.98C1192.74 746.58 1172.12 735.36 1164.22 687.69C1164.22 687.69 1172.07 620.19 1182.58 603.38H1182.59Z" fill="#337ABE" stroke="#1D1D1B" stroke-width="2" stroke-miterlimit="10"/>
<path d="M1371.58 1031.76C1371.58 1031.76 1410.29 966.83 1282.63 969.55C1282.63 969.55 1213.18 961.04 1251.31 850.74C1251.31 850.74 1268.57 815.56 1274.07 805.92C1279.57 796.28 1278.54 752.36 1235.65 749.98C1192.76 747.6 1174.19 734.34 1164.24 687.69C1164.24 687.69 1158.37 741.76 1161.01 777.04C1162.7 799.55 1170.3 871.66 1203.39 931.76C1222.16 965.85 1246.58 995.95 1281.26 1010.02C1281.26 1010.02 1337.28 1031.67 1371.57 1031.76H1371.58Z" fill="#514A99" stroke="#1D1D1B" stroke-width="2" stroke-miterlimit="10"/>
<path d="M281.14 136.44C306.545 136.44 327.14 115.845 327.14 90.4401C327.14 65.035 306.545 44.4401 281.14 44.4401C255.735 44.4401 235.14 65.035 235.14 90.4401C235.14 115.845 255.735 136.44 281.14 136.44Z" fill="#2C4B9B" stroke="#1D1D1B" stroke-width="2" stroke-miterlimit="10"/>
<path d="M114.3 1249.52C137.744 1249.52 156.75 1230.51 156.75 1207.07C156.75 1183.63 137.744 1164.62 114.3 1164.62C90.8555 1164.62 71.85 1183.63 71.85 1207.07C71.85 1230.51 90.8555 1249.52 114.3 1249.52Z" fill="#D44215" stroke="#1D1D1B" stroke-width="2" stroke-miterlimit="10"/>
<path d="M825.4 89.9C854.356 89.9 877.83 66.4263 877.83 37.47C877.83 8.51375 854.356 -14.96 825.4 -14.96C796.444 -14.96 772.97 8.51375 772.97 37.47C772.97 66.4263 796.444 89.9 825.4 89.9Z" fill="#E97D03" stroke="#1D1D1B" stroke-width="2" stroke-miterlimit="10"/>
<path d="M898.78 1397.23C930.79 1397.23 956.74 1371.28 956.74 1339.27C956.74 1307.26 930.79 1281.31 898.78 1281.31C866.77 1281.31 840.82 1307.26 840.82 1339.27C840.82 1371.28 866.77 1397.23 898.78 1397.23Z" fill="#BF3D17" stroke="#1D1D1B" stroke-width="2" stroke-miterlimit="10"/>
<path d="M453.47 1487.22C503.921 1487.22 544.82 1446.32 544.82 1395.87C544.82 1345.42 503.921 1304.52 453.47 1304.52C403.019 1304.52 362.12 1345.42 362.12 1395.87C362.12 1446.32 403.019 1487.22 453.47 1487.22Z" fill="#F8E939" stroke="#1D1D1B" stroke-width="2" stroke-miterlimit="10"/>
<path d="M75.5099 1494.63C103.605 1494.63 126.38 1471.85 126.38 1443.76C126.38 1415.67 103.605 1392.89 75.5099 1392.89C47.4152 1392.89 24.6399 1415.67 24.6399 1443.76C24.6399 1471.85 47.4152 1494.63 75.5099 1494.63Z" fill="#1D1D1B" stroke="#1D1D1B" stroke-width="2" stroke-miterlimit="10"/>
<path d="M864.27 115.19C885.732 115.19 903.13 97.7918 903.13 76.33C903.13 54.8682 885.732 37.47 864.27 37.47C842.808 37.47 825.41 54.8682 825.41 76.33C825.41 97.7918 842.808 115.19 864.27 115.19Z" fill="#1D1D1B" stroke="#1D1D1B" stroke-width="2" stroke-miterlimit="10"/>
<path d="M296.94 107.95C305.672 107.95 312.75 100.872 312.75 92.14C312.75 83.4084 305.672 76.33 296.94 76.33C288.208 76.33 281.13 83.4084 281.13 92.14C281.13 100.872 288.208 107.95 296.94 107.95Z" fill="#1D1D1B" stroke="#1D1D1B" stroke-width="2" stroke-miterlimit="10"/>
<path d="M76.1099 271.61C94.9815 271.61 110.28 256.312 110.28 237.44C110.28 218.568 94.9815 203.27 76.1099 203.27C57.2384 203.27 41.9399 218.568 41.9399 237.44C41.9399 256.312 57.2384 271.61 76.1099 271.61Z" fill="#1D1D1B" stroke="#1D1D1B" stroke-width="2" stroke-miterlimit="10"/>
<path d="M608.24 57.89C613.879 57.89 618.45 53.3189 618.45 47.68C618.45 42.0412 613.879 37.47 608.24 37.47C602.601 37.47 598.03 42.0412 598.03 47.68C598.03 53.3189 602.601 57.89 608.24 57.89Z" fill="#1D1D1B" stroke="#1D1D1B" stroke-width="2" stroke-miterlimit="10"/>
<path d="M1028.38 1101.76C1048.98 1101.76 1065.68 1085.06 1065.68 1064.46C1065.68 1043.86 1048.98 1027.16 1028.38 1027.16C1007.78 1027.16 991.08 1043.86 991.08 1064.46C991.08 1085.06 1007.78 1101.76 1028.38 1101.76Z" fill="#1D1D1B" stroke="#1D1D1B" stroke-width="2" stroke-miterlimit="10"/>
<path d="M312.97 1069.86C339.971 1069.86 361.86 1047.97 361.86 1020.97C361.86 993.969 339.971 972.08 312.97 972.08C285.969 972.08 264.08 993.969 264.08 1020.97C264.08 1047.97 285.969 1069.86 312.97 1069.86Z" fill="#1D1D1B" stroke="#1D1D1B" stroke-width="2" stroke-miterlimit="10"/>
<path d="M147.91 1231.84C166.472 1231.84 181.52 1216.79 181.52 1198.23C181.52 1179.67 166.472 1164.62 147.91 1164.62C129.348 1164.62 114.3 1179.67 114.3 1198.23C114.3 1216.79 129.348 1231.84 147.91 1231.84Z" fill="#1D1D1B" stroke="#1D1D1B" stroke-width="2" stroke-miterlimit="10"/>
<path d="M521.38 1487.72C547.569 1487.72 568.8 1466.49 568.8 1440.3C568.8 1414.11 547.569 1392.88 521.38 1392.88C495.191 1392.88 473.96 1414.11 473.96 1440.3C473.96 1466.49 495.191 1487.72 521.38 1487.72Z" fill="#1D1D1B" stroke="#1D1D1B" stroke-width="2" stroke-miterlimit="10"/>
<path d="M572.94 952.6C603.818 952.6 628.85 927.568 628.85 896.69C628.85 865.812 603.818 840.78 572.94 840.78C542.062 840.78 517.03 865.812 517.03 896.69C517.03 927.568 542.062 952.6 572.94 952.6Z" fill="#E84826" stroke="#1D1D1B" stroke-width="2" stroke-miterlimit="10"/>
<path d="M620.72 1359.89C627.612 1359.89 633.2 1354.3 633.2 1347.41C633.2 1340.52 627.612 1334.93 620.72 1334.93C613.827 1334.93 608.24 1340.52 608.24 1347.41C608.24 1354.3 613.827 1359.89 620.72 1359.89Z" fill="#1D1D1B" stroke="#1D1D1B" stroke-width="2" stroke-miterlimit="10"/>
<path d="M173.01 1412.89C177.71 1412.89 181.52 1409.08 181.52 1404.38C181.52 1399.68 177.71 1395.87 173.01 1395.87C168.31 1395.87 164.5 1399.68 164.5 1404.38C164.5 1409.08 168.31 1412.89 173.01 1412.89Z" fill="#1D1D1B" stroke="#1D1D1B" stroke-width="2" stroke-miterlimit="10"/>
<path d="M204.53 1183.89C209.854 1183.89 214.17 1179.57 214.17 1174.25C214.17 1168.93 209.854 1164.61 204.53 1164.61C199.206 1164.61 194.89 1168.93 194.89 1174.25C194.89 1179.57 199.206 1183.89 204.53 1183.89Z" fill="#1D1D1B" stroke="#1D1D1B" stroke-width="2" stroke-miterlimit="10"/>
<path d="M518.86 810.54C521.621 810.54 523.86 808.301 523.86 805.54C523.86 802.779 521.621 800.54 518.86 800.54C516.098 800.54 513.86 802.779 513.86 805.54C513.86 808.301 516.098 810.54 518.86 810.54Z" fill="#1D1D1B" stroke="#1D1D1B" stroke-width="2" stroke-miterlimit="10"/>
<path d="M998.55 1397.09C1002.68 1397.09 1006.02 1393.75 1006.02 1389.62C1006.02 1385.49 1002.68 1382.15 998.55 1382.15C994.424 1382.15 991.08 1385.49 991.08 1389.62C991.08 1393.75 994.424 1397.09 998.55 1397.09Z" fill="#1D1D1B" stroke="#1D1D1B" stroke-width="2" stroke-miterlimit="10"/>
<path d="M433.87 57.8901C436.687 57.8901 438.97 55.6067 438.97 52.7901C438.97 49.9734 436.687 47.6901 433.87 47.6901C431.053 47.6901 428.77 49.9734 428.77 52.7901C428.77 55.6067 431.053 57.8901 433.87 57.8901Z" fill="#1D1D1B" stroke="#1D1D1B" stroke-width="2" stroke-miterlimit="10"/>
<path d="M22.72 44.44C34.9918 44.44 44.94 34.4918 44.94 22.22C44.94 9.94823 34.9918 0 22.72 0C10.4482 0 0.5 9.94823 0.5 22.22C0.5 34.4918 10.4482 44.44 22.72 44.44Z" fill="#1D1D1B" stroke="#1D1D1B" stroke-width="2" stroke-miterlimit="10"/>
<path d="M292.89 571.01C319.052 571.01 340.26 549.802 340.26 523.64C340.26 497.478 319.052 476.27 292.89 476.27C266.728 476.27 245.52 497.478 245.52 523.64C245.52 549.802 266.728 571.01 292.89 571.01Z" fill="#FFD002" stroke="#1D1D1B" stroke-width="2" stroke-miterlimit="10"/>
<path d="M967.51 886.01C992.363 886.01 1012.51 865.863 1012.51 841.01C1012.51 816.157 992.363 796.01 967.51 796.01C942.657 796.01 922.51 816.157 922.51 841.01C922.51 865.863 942.657 886.01 967.51 886.01Z" fill="#FFE13F" stroke="#1D1D1B" stroke-width="2" stroke-miterlimit="10"/>
<path d="M1184.69 1126.84C1214.69 1126.84 1239.01 1102.52 1239.01 1072.52C1239.01 1042.52 1214.69 1018.2 1184.69 1018.2C1154.69 1018.2 1130.37 1042.52 1130.37 1072.52C1130.37 1102.52 1154.69 1126.84 1184.69 1126.84Z" fill="#F59C1A" stroke="#1D1D1B" stroke-width="2" stroke-miterlimit="10"/>
<path d="M848.24 1343.6C871.364 1343.6 890.11 1324.85 890.11 1301.73C890.11 1278.61 871.364 1259.86 848.24 1259.86C825.116 1259.86 806.37 1278.61 806.37 1301.73C806.37 1324.85 825.116 1343.6 848.24 1343.6Z" fill="#F2B4D3" stroke="#1D1D1B" stroke-width="2" stroke-miterlimit="10"/>
<path d="M782.09 177.92C787.127 177.92 791.21 173.837 791.21 168.8C791.21 163.763 787.127 159.68 782.09 159.68C777.053 159.68 772.97 163.763 772.97 168.8C772.97 173.837 777.053 177.92 782.09 177.92Z" fill="#1D1D1B" stroke="#1D1D1B" stroke-width="2" stroke-miterlimit="10"/>
<path d="M121.38 45.51C123.6 45.51 125.4 43.7102 125.4 41.49C125.4 39.2698 123.6 37.47 121.38 37.47C119.16 37.47 117.36 39.2698 117.36 41.49C117.36 43.7102 119.16 45.51 121.38 45.51Z" fill="#1D1D1B" stroke="#1D1D1B" stroke-width="2" stroke-miterlimit="10"/>
<path d="M530.46 424.54C550.668 424.54 567.05 408.158 567.05 387.95C567.05 367.742 550.668 351.36 530.46 351.36C510.252 351.36 493.87 367.742 493.87 387.95C493.87 408.158 510.252 424.54 530.46 424.54Z" fill="#1D1D1B" stroke="#1D1D1B" stroke-width="2" stroke-miterlimit="10"/>
<path d="M-12.7901 443.08C9.85915 443.08 28.2199 424.719 28.2199 402.07C28.2199 379.421 9.85915 361.06 -12.7901 361.06C-35.4392 361.06 -53.8 379.421 -53.8 402.07C-53.8 424.719 -35.4392 443.08 -12.7901 443.08Z" fill="#1D1D1B" stroke="#1D1D1B" stroke-width="2" stroke-miterlimit="10"/>
<path d="M1017.05 88.16C1035.26 88.16 1050.02 73.3989 1050.02 55.19C1050.02 36.9812 1035.26 22.22 1017.05 22.22C998.841 22.22 984.08 36.9812 984.08 55.19C984.08 73.3989 998.841 88.16 1017.05 88.16Z" fill="#1D1D1B" stroke="#1D1D1B" stroke-width="2" stroke-miterlimit="10"/>
<path d="M551.9 454.03C570.147 454.03 584.94 439.238 584.94 420.99C584.94 402.743 570.147 387.95 551.9 387.95C533.652 387.95 518.86 402.743 518.86 420.99C518.86 439.238 533.652 454.03 551.9 454.03Z" fill="#FDC52C" stroke="#1D1D1B" stroke-width="2" stroke-miterlimit="10"/>
<path d="M1038.76 98.6101C1050.75 98.6101 1060.47 88.8902 1060.47 76.9001C1060.47 64.91 1050.75 55.1901 1038.76 55.1901C1026.77 55.1901 1017.05 64.91 1017.05 76.9001C1017.05 88.8902 1026.77 98.6101 1038.76 98.6101Z" fill="#ED698B" stroke="#1D1D1B" stroke-width="2" stroke-miterlimit="10"/>
<path d="M43.8599 272.92C59.1472 272.92 71.5399 260.527 71.5399 245.24C71.5399 229.953 59.1472 217.56 43.8599 217.56C28.5727 217.56 16.1799 229.953 16.1799 245.24C16.1799 260.527 28.5727 272.92 43.8599 272.92Z" fill="#ED698B" stroke="#1D1D1B" stroke-width="2" stroke-miterlimit="10"/>
<path d="M406.52 1231.85C419.764 1231.85 430.5 1221.11 430.5 1207.87C430.5 1194.63 419.764 1183.89 406.52 1183.89C393.276 1183.89 382.54 1194.63 382.54 1207.87C382.54 1221.11 393.276 1231.85 406.52 1231.85Z" fill="#74CBF4" stroke="#1D1D1B" stroke-width="2" stroke-miterlimit="10"/>
<path d="M16.2099 1343.59C36.6831 1343.59 53.2799 1326.99 53.2799 1306.52C53.2799 1286.05 36.6831 1269.45 16.2099 1269.45C-4.2633 1269.45 -20.8601 1286.05 -20.8601 1306.52C-20.8601 1326.99 -4.2633 1343.59 16.2099 1343.59Z" fill="#C4D321" stroke="#1D1D1B" stroke-width="2" stroke-miterlimit="10"/>
<path d="M3304.08 39.78C3329.49 39.78 3350.08 19.1851 3350.08 -6.21997C3350.08 -31.6251 3329.49 -52.22 3304.08 -52.22C3278.67 -52.22 3258.08 -31.6251 3258.08 -6.21997C3258.08 19.1851 3278.67 39.78 3304.08 39.78Z" fill="#2C4B9B" stroke="#1D1D1B" stroke-width="2" stroke-miterlimit="10"/>
<path d="M3884.68 1221.55C3900.63 1210.97 3905.15 1189.73 3894.78 1174.1C3884.41 1158.47 3863.08 1154.37 3847.13 1164.95C3831.19 1175.53 3826.66 1196.78 3837.03 1212.41C3847.4 1228.04 3868.73 1232.13 3884.68 1221.55Z" fill="#D44215" stroke="#1D1D1B" stroke-width="2" stroke-miterlimit="10"/>
<path d="M2920.4 435.85C2949.36 435.85 2972.83 412.376 2972.83 383.42C2972.83 354.464 2949.36 330.99 2920.4 330.99C2891.44 330.99 2867.97 354.464 2867.97 383.42C2867.97 412.376 2891.44 435.85 2920.4 435.85Z" fill="#E97D03" stroke="#1D1D1B" stroke-width="2" stroke-miterlimit="10"/>
<path d="M3247.4 1283.92C3269.17 1269.48 3275.34 1240.47 3261.19 1219.14C3247.03 1197.8 3217.91 1192.21 3196.14 1206.65C3174.38 1221.09 3168.2 1250.1 3182.36 1271.43C3196.51 1292.77 3225.63 1298.36 3247.4 1283.92Z" fill="#BF3D17" stroke="#1D1D1B" stroke-width="2" stroke-miterlimit="10"/>
<path d="M3616.7 1382.21C3651.02 1359.45 3660.75 1313.74 3638.44 1280.11C3616.13 1246.48 3570.23 1237.67 3535.92 1260.44C3501.6 1283.2 3491.87 1328.91 3514.18 1362.54C3536.49 1396.17 3582.39 1404.98 3616.7 1382.21Z" fill="#F8E939" stroke="#1D1D1B" stroke-width="2" stroke-miterlimit="10"/>
<path d="M3899.73 1419.65C3918.84 1406.97 3924.26 1381.51 3911.84 1362.79C3899.42 1344.06 3873.85 1339.15 3854.75 1351.83C3835.64 1364.51 3830.22 1389.96 3842.64 1408.69C3855.06 1427.42 3880.63 1432.32 3899.73 1419.65Z" fill="#1D1D1B" stroke="#1D1D1B" stroke-width="2" stroke-miterlimit="10"/>
<path d="M2926.14 476.94C2947.6 476.94 2965 459.542 2965 438.08C2965 416.618 2947.6 399.22 2926.14 399.22C2904.68 399.22 2887.28 416.618 2887.28 438.08C2887.28 459.542 2904.68 476.94 2926.14 476.94Z" fill="#1D1D1B" stroke="#1D1D1B" stroke-width="2" stroke-miterlimit="10"/>
<path d="M3295.45 22.94C3304.18 22.94 3311.26 15.8616 3311.26 7.13001C3311.26 -1.60161 3304.18 -8.67999 3295.45 -8.67999C3286.72 -8.67999 3279.64 -1.60161 3279.64 7.13001C3279.64 15.8616 3286.72 22.94 3295.45 22.94Z" fill="#1D1D1B" stroke="#1D1D1B" stroke-width="2" stroke-miterlimit="10"/>
<path d="M3695.1 714.36C3713.97 714.36 3729.27 699.062 3729.27 680.19C3729.27 661.318 3713.97 646.02 3695.1 646.02C3676.23 646.02 3660.93 661.318 3660.93 680.19C3660.93 699.062 3676.23 714.36 3695.1 714.36Z" fill="#1D1D1B" stroke="#1D1D1B" stroke-width="2" stroke-miterlimit="10"/>
<path d="M3065 231.29C3070.64 231.29 3075.21 226.719 3075.21 221.08C3075.21 215.441 3070.64 210.87 3065 210.87C3059.36 210.87 3054.79 215.441 3054.79 221.08C3054.79 226.719 3059.36 231.29 3065 231.29Z" fill="#1D1D1B" stroke="#1D1D1B" stroke-width="2" stroke-miterlimit="10"/>
<path d="M3156.88 1040.83C3170.89 1031.53 3174.87 1012.86 3165.76 999.129C3156.65 985.396 3137.9 981.8 3123.89 991.096C3109.88 1000.39 3105.9 1019.06 3115.01 1032.8C3124.12 1046.53 3142.87 1050.12 3156.88 1040.83Z" fill="#1D1D1B" stroke="#1D1D1B" stroke-width="2" stroke-miterlimit="10"/>
<path d="M3742.93 1062.92C3761.3 1050.73 3766.51 1026.26 3754.57 1008.26C3742.63 990.263 3718.06 985.549 3699.69 997.734C3681.32 1009.92 3676.11 1034.39 3688.05 1052.39C3699.99 1070.39 3724.56 1075.1 3742.93 1062.92Z" fill="#1D1D1B" stroke="#1D1D1B" stroke-width="2" stroke-miterlimit="10"/>
<path d="M3854.39 1206.26C3867.02 1197.88 3870.6 1181.06 3862.39 1168.68C3854.18 1156.31 3837.29 1153.07 3824.66 1161.44C3812.03 1169.82 3808.45 1186.65 3816.66 1199.02C3824.87 1211.4 3841.76 1214.64 3854.39 1206.26Z" fill="#1D1D1B" stroke="#1D1D1B" stroke-width="2" stroke-miterlimit="10"/>
<path d="M3538.73 1383.88C3556.54 1372.07 3561.59 1348.34 3550.01 1330.88C3538.43 1313.43 3514.61 1308.85 3496.8 1320.67C3478.98 1332.48 3473.93 1356.21 3485.51 1373.67C3497.09 1391.13 3520.92 1395.7 3538.73 1383.88Z" fill="#1D1D1B" stroke="#1D1D1B" stroke-width="2" stroke-miterlimit="10"/>
<path d="M3546.75 950.021C3567.76 936.086 3573.72 908.106 3560.06 887.525C3546.41 866.944 3518.31 861.555 3497.31 875.49C3476.3 889.424 3470.35 917.404 3484 937.985C3497.65 958.566 3525.75 963.955 3546.75 950.021Z" fill="#E84826" stroke="#1D1D1B" stroke-width="2" stroke-miterlimit="10"/>
<path d="M3450.97 1279.26C3455.65 1276.15 3456.99 1269.9 3453.94 1265.31C3450.89 1260.72 3444.62 1259.51 3439.93 1262.63C3435.24 1265.74 3433.91 1271.98 3436.96 1276.58C3440 1281.17 3446.28 1282.37 3450.97 1279.26Z" fill="#1D1D1B" stroke="#1D1D1B" stroke-width="2" stroke-miterlimit="10"/>
<path d="M3805.65 1353.13C3808.85 1351.01 3809.76 1346.75 3807.68 1343.61C3805.6 1340.48 3801.32 1339.66 3798.12 1341.78C3794.93 1343.9 3794.02 1348.16 3796.1 1351.3C3798.18 1354.43 3802.45 1355.25 3805.65 1353.13Z" fill="#1D1D1B" stroke="#1D1D1B" stroke-width="2" stroke-miterlimit="10"/>
<path d="M3800.14 1167.14C3803.76 1164.74 3804.79 1159.92 3802.43 1156.37C3800.08 1152.82 3795.24 1151.89 3791.61 1154.29C3787.99 1156.7 3786.96 1161.52 3789.32 1165.07C3791.67 1168.62 3796.52 1169.55 3800.14 1167.14Z" fill="#1D1D1B" stroke="#1D1D1B" stroke-width="2" stroke-miterlimit="10"/>
<path d="M3575.56 846.713C3577.44 845.467 3577.97 842.965 3576.75 841.124C3575.53 839.283 3573.02 838.801 3571.14 840.047C3569.26 841.292 3568.73 843.794 3569.95 845.635C3571.17 847.476 3573.69 847.959 3575.56 846.713Z" fill="#1D1D1B" stroke="#1D1D1B" stroke-width="2" stroke-miterlimit="10"/>
<path d="M3140.33 1283.77C3143.14 1281.9 3143.93 1278.16 3142.11 1275.41C3140.28 1272.66 3136.52 1271.94 3133.72 1273.8C3130.91 1275.66 3130.11 1279.4 3131.94 1282.16C3133.77 1284.91 3137.52 1285.63 3140.33 1283.77Z" fill="#1D1D1B" stroke="#1D1D1B" stroke-width="2" stroke-miterlimit="10"/>
<path d="M3178.7 93.8801C3181.52 93.8801 3183.8 91.5967 3183.8 88.7801C3183.8 85.9634 3181.52 83.6801 3178.7 83.6801C3175.88 83.6801 3173.6 85.9634 3173.6 88.7801C3173.6 91.5967 3175.88 93.8801 3178.7 93.8801Z" fill="#1D1D1B" stroke="#1D1D1B" stroke-width="2" stroke-miterlimit="10"/>
<path d="M3843.18 537.34C3855.45 537.34 3865.4 527.392 3865.4 515.12C3865.4 502.848 3855.45 492.9 3843.18 492.9C3830.91 492.9 3820.96 502.848 3820.96 515.12C3820.96 527.392 3830.91 537.34 3843.18 537.34Z" fill="#1D1D1B" stroke="#1D1D1B" stroke-width="2" stroke-miterlimit="10"/>
<path d="M3633.35 322.9C3659.51 322.9 3680.72 301.692 3680.72 275.53C3680.72 249.368 3659.51 228.16 3633.35 228.16C3607.19 228.16 3585.98 249.368 3585.98 275.53C3585.98 301.692 3607.19 322.9 3633.35 322.9Z" fill="#FFD002" stroke="#1D1D1B" stroke-width="2" stroke-miterlimit="10"/>
<path d="M3228.26 870.945C3245.16 859.731 3249.96 837.21 3238.97 820.641C3227.98 804.073 3205.36 799.733 3188.46 810.947C3171.55 822.161 3166.76 844.683 3177.75 861.251C3188.74 877.819 3211.36 882.159 3228.26 870.945Z" fill="#FFE13F" stroke="#1D1D1B" stroke-width="2" stroke-miterlimit="10"/>
<path d="M3037.62 1047.88C3058.02 1034.34 3063.8 1007.16 3050.54 987.162C3037.27 967.165 3009.98 961.927 2989.58 975.461C2969.18 988.995 2963.39 1016.18 2976.66 1036.17C2989.92 1056.17 3017.22 1061.41 3037.62 1047.88Z" fill="#F59C1A" stroke="#1D1D1B" stroke-width="2" stroke-miterlimit="10"/>
<path d="M3284.23 1246.55C3299.96 1236.11 3304.42 1215.16 3294.19 1199.75C3283.97 1184.34 3262.93 1180.3 3247.21 1190.73C3231.48 1201.16 3227.02 1222.12 3237.25 1237.53C3247.47 1252.94 3268.51 1256.98 3284.23 1246.55Z" fill="#F2B4D3" stroke="#1D1D1B" stroke-width="2" stroke-miterlimit="10"/>
<path d="M3049.72 441.52C3054.76 441.52 3058.84 437.437 3058.84 432.4C3058.84 427.363 3054.76 423.28 3049.72 423.28C3044.68 423.28 3040.6 427.363 3040.6 432.4C3040.6 437.437 3044.68 441.52 3049.72 441.52Z" fill="#1D1D1B" stroke="#1D1D1B" stroke-width="2" stroke-miterlimit="10"/>
<path d="M3747 489.91C3749.22 489.91 3751.02 488.11 3751.02 485.89C3751.02 483.67 3749.22 481.87 3747 481.87C3744.78 481.87 3742.98 483.67 3742.98 485.89C3742.98 488.11 3744.78 489.91 3747 489.91Z" fill="#1D1D1B" stroke="#1D1D1B" stroke-width="2" stroke-miterlimit="10"/>
<path d="M3378.39 411.36C3398.6 411.36 3414.98 394.978 3414.98 374.77C3414.98 354.562 3398.6 338.18 3378.39 338.18C3358.18 338.18 3341.8 354.562 3341.8 374.77C3341.8 394.978 3358.18 411.36 3378.39 411.36Z" fill="#1D1D1B" stroke="#1D1D1B" stroke-width="2" stroke-miterlimit="10"/>
<path d="M3696.43 908.29C3719.08 908.29 3737.44 889.929 3737.44 867.28C3737.44 844.631 3719.08 826.27 3696.43 826.27C3673.78 826.27 3655.42 844.631 3655.42 867.28C3655.42 889.929 3673.78 908.29 3696.43 908.29Z" fill="#1D1D1B" stroke="#1D1D1B" stroke-width="2" stroke-miterlimit="10"/>
<path d="M2813.56 576.48C2831.77 576.48 2846.53 561.719 2846.53 543.51C2846.53 525.301 2831.77 510.54 2813.56 510.54C2795.35 510.54 2780.59 525.301 2780.59 543.51C2780.59 561.719 2795.35 576.48 2813.56 576.48Z" fill="#1D1D1B" stroke="#1D1D1B" stroke-width="2" stroke-miterlimit="10"/>
<path d="M3390.57 445.26C3408.82 445.26 3423.61 430.468 3423.61 412.22C3423.61 393.973 3408.82 379.18 3390.57 379.18C3372.32 379.18 3357.53 393.973 3357.53 412.22C3357.53 430.468 3372.32 445.26 3390.57 445.26Z" fill="#FDC52C" stroke="#1D1D1B" stroke-width="2" stroke-miterlimit="10"/>
<path d="M2816.77 595.75C2828.76 595.75 2838.48 586.03 2838.48 574.04C2838.48 562.05 2828.76 552.33 2816.77 552.33C2804.78 552.33 2795.06 562.05 2795.06 574.04C2795.06 586.03 2804.78 595.75 2816.77 595.75Z" fill="#ED698B" stroke="#1D1D1B" stroke-width="2" stroke-miterlimit="10"/>
<path d="M3719.93 729.88C3735.22 729.88 3747.61 717.487 3747.61 702.2C3747.61 686.913 3735.22 674.52 3719.93 674.52C3704.64 674.52 3692.25 686.913 3692.25 702.2C3692.25 717.487 3704.64 729.88 3719.93 729.88Z" fill="#ED698B" stroke="#1D1D1B" stroke-width="2" stroke-miterlimit="10"/>
<path d="M3640.65 1189.76C3649.66 1183.78 3652.22 1171.78 3646.36 1162.96C3640.5 1154.13 3628.46 1151.82 3619.45 1157.79C3610.44 1163.77 3607.89 1175.77 3613.74 1184.59C3619.6 1193.42 3631.65 1195.73 3640.65 1189.76Z" fill="#74CBF4" stroke="#1D1D1B" stroke-width="2" stroke-miterlimit="10"/>
<path d="M3871.68 1120.2C3889.47 1120.2 3903.9 1103.37 3903.9 1082.61C3903.9 1061.85 3889.47 1045.02 3871.68 1045.02C3853.89 1045.02 3839.46 1061.85 3839.46 1082.61C3839.46 1103.37 3853.89 1120.2 3871.68 1120.2Z" fill="#774B98" stroke="#1D1D1B" stroke-width="2" stroke-miterlimit="10"/>
<path d="M3797.1 83.68C3822.55 83.68 3843.18 63.5552 3843.18 38.73C3843.18 13.9048 3822.55 -6.21997 3797.1 -6.21997C3771.65 -6.21997 3751.02 13.9048 3751.02 38.73C3751.02 63.5552 3771.65 83.68 3797.1 83.68Z" fill="#EFC0DB" stroke="#1D1D1B" stroke-width="2" stroke-miterlimit="10"/>
<path d="M2926.36 1115.95C2935.57 1115.95 2943.03 1108.49 2943.03 1099.28C2943.03 1090.07 2935.57 1082.61 2926.36 1082.61C2917.15 1082.61 2909.69 1090.07 2909.69 1099.28C2909.69 1108.49 2917.15 1115.95 2926.36 1115.95Z" fill="#EFC0DB" stroke="#1D1D1B" stroke-width="2" stroke-miterlimit="10"/>
<path d="M3727.86 1485.31C3755.42 1485.31 3777.76 1462.97 3777.76 1435.41C3777.76 1407.85 3755.42 1385.51 3727.86 1385.51C3700.3 1385.51 3677.96 1407.85 3677.96 1435.41C3677.96 1462.97 3700.3 1485.31 3727.86 1485.31Z" fill="#78B829" stroke="#1D1D1B" stroke-width="2" stroke-miterlimit="10"/>
<path d="M3604.46 559.98C3618.51 559.98 3629.9 548.59 3629.9 534.54C3629.9 520.49 3618.51 509.1 3604.46 509.1C3590.41 509.1 3579.02 520.49 3579.02 534.54C3579.02 548.59 3590.41 559.98 3604.46 559.98Z" fill="#D52416" stroke="#1D1D1B" stroke-width="2" stroke-miterlimit="10"/>
<path d="M3822.37 259.44C3842.3 259.44 3858.46 243.282 3858.46 223.35C3858.46 203.418 3842.3 187.26 3822.37 187.26C3802.44 187.26 3786.28 203.418 3786.28 223.35C3786.28 243.282 3802.44 259.44 3822.37 259.44Z" fill="#E94462" stroke="#1D1D1B" stroke-width="2" stroke-miterlimit="10"/>
<path d="M714.46 136.44L684.81 118.26L653.04 132.38L661.16 98.57L637.92 72.71L672.59 69.99L690 39.89L703.3 72.02L737.3 79.28L710.85 101.86L714.46 136.44Z" fill="white" stroke="#1D1D1B" stroke-width="2" stroke-miterlimit="10"/>
<path d="M682.2 807.98L657.04 799.1L635.47 814.79L636.14 788.12L614.55 772.45L640.12 764.85L648.36 739.48L663.49 761.45L690.16 761.44L673.94 782.62L682.2 807.98Z" fill="white" stroke="#1D1D1B" stroke-width="2" stroke-miterlimit="10"/>
<path d="M656.71 1259.72L637.34 1255.75L623.09 1269.45L620.88 1249.8L603.45 1240.48L621.45 1232.31L624.93 1212.85L638.26 1227.45L657.84 1224.74L648.08 1241.93L656.71 1259.72Z" fill="#1D1D1B" stroke="#1D1D1B" stroke-width="2" stroke-miterlimit="10"/>
<path d="M1149.01 981.45L1138.9 977.68L1130.06 983.88L1130.51 973.09L1121.89 966.6L1132.29 963.7L1135.79 953.49L1137.42 966.84L1152.56 962.67L1145.85 971.13L1149.01 981.45Z" fill="#E8490F" stroke="#1D1D1B" stroke-width="2" stroke-miterlimit="10"/>
<path d="M986.73 1236.19L1003.92 1215.05L996.26 1188.91L1021.67 1198.73L1044.17 1183.35L1042.69 1210.56L1064.26 1227.21L1037.93 1234.2L1028.76 1259.86L1013.97 1236.98L986.73 1236.19Z" fill="#E8490F" stroke="#1D1D1B" stroke-width="2" stroke-miterlimit="10"/>
<path d="M79.6099 968.69L50.7799 962.3L29.1799 982.43L26.3499 953.04L0.529907 938.72L27.5999 926.94L33.2399 897.96L52.8099 920.07L82.1199 916.48L67.1399 941.92L79.6099 968.69Z" fill="#D41116" stroke="#1D1D1B" stroke-width="2" stroke-miterlimit="10"/>
<path d="M160.62 410.15L143.6 398.08L124.01 405.25L130.23 385.34L117.35 368.92L138.22 368.68L149.85 351.36L156.53 371.13L176.59 376.84L159.85 389.3L160.62 410.15Z" fill="#1D1D1B" stroke="#1D1D1B" stroke-width="2" stroke-miterlimit="10"/>
<path d="M392.76 296.87L353.62 296.35L331.01 328.29L319.41 290.91L282.05 279.27L314.02 256.69L313.54 217.56L344.89 240.99L381.96 228.44L369.37 265.49L392.76 296.87Z" fill="#E72481" stroke="#1D1D1B" stroke-width="2" stroke-miterlimit="10"/>
<path d="M296.94 829.93L292.03 826.06L286.05 827.91L288.22 822.04L284.61 816.93L290.86 817.17L294.61 812.16L296.3 818.18L302.23 820.2L297.03 823.67L296.94 829.93Z" fill="#E72481" stroke="#1D1D1B" stroke-width="2" stroke-miterlimit="10"/>
<path d="M374.37 613.94L382.22 602.25L377.03 589.16L390.58 593.01L401.42 584.03L401.95 598.1L413.83 605.64L400.62 610.49L397.12 624.13L388.42 613.05L374.37 613.94Z" fill="#1D1D1B" stroke="#1D1D1B" stroke-width="2" stroke-miterlimit="10"/>
<path d="M767.84 1443.76L709.53 1432.45L667.15 1474.08L659.88 1415.12L607.2 1387.68L661.02 1362.56L670.84 1303.97L711.37 1347.39L770.12 1338.62L741.35 1390.59L767.84 1443.76Z" fill="#FBB90F" stroke="#1D1D1B" stroke-width="2" stroke-miterlimit="10"/>
<path d="M3067.13 359.48L3071.66 325L3102.63 309.19L3071.24 294.23L3065.77 259.89L3041.84 285.12L3007.49 279.71L3024.09 310.27L3008.33 341.26L3042.52 334.91L3067.13 359.48Z" fill="white" stroke="#1D1D1B" stroke-width="2" stroke-miterlimit="10"/>
<path d="M3441.29 833.91L3462.33 828.52L3478.42 842.58L3480.12 821.15L3498.86 810.06L3478.87 802.21L3474.37 781.3L3460.31 797.88L3438.78 796.03L3450.09 814.13L3441.29 833.91Z" fill="white" stroke="#1D1D1B" stroke-width="2" stroke-miterlimit="10"/>
<path d="M3423.76 1197.94L3439.72 1196.09L3450.06 1208.06L3453.5 1192.45L3468.35 1186.18L3454.52 1178.39L3453.35 1162.54L3441.36 1173.33L3425.79 1169.81L3432.22 1184.27L3423.76 1197.94Z" fill="#1D1D1B" stroke="#1D1D1B" stroke-width="2" stroke-miterlimit="10"/>
<path d="M3050.01 940.91L3058.49 938.58L3065.1 944.16L3065.64 935.48L3073.15 930.87L3065 927.83L3063.03 919.4L3060.6 929.99L3048.73 925.61L3053.43 932.85L3050.01 940.91Z" fill="#E8490F" stroke="#1D1D1B" stroke-width="2" stroke-miterlimit="10"/>
<path d="M3159.46 1156.37L3147.37 1138.23L3155.77 1117.79L3134.43 1123.92L3117.58 1110.04L3116.48 1131.96L3097.67 1143.83L3118.33 1151.25L3123.56 1172.46L3137.42 1155.13L3159.46 1156.37Z" fill="#E8490F" stroke="#1D1D1B" stroke-width="2" stroke-miterlimit="10"/>
<path d="M3816.05 913.38L3829.23 886.96L3858.46 882.84L3837.41 862.14L3842.53 833.06L3816.33 846.69L3790.26 832.84L3795.13 861.96L3773.89 882.48L3803.09 886.85L3816.05 913.38Z" fill="#D41116" stroke="#1D1D1B" stroke-width="2" stroke-miterlimit="10"/>
<path d="M3628.38 101.32L3629.71 80.5L3647.62 69.79L3628.22 62.09L3623.57 41.75L3610.26 57.81L3589.47 55.95L3600.64 73.58L3592.45 92.77L3612.66 87.6L3628.38 101.32Z" fill="#1D1D1B" stroke="#1D1D1B" stroke-width="2" stroke-miterlimit="10"/>
<path d="M3394.27 210.43L3418.48 179.69L3457.54 182.22L3435.79 149.68L3450.26 113.32L3412.59 123.96L3382.48 98.96L3380.96 138.06L3347.88 158.98L3384.6 172.51L3394.27 210.43Z" fill="#E72481" stroke="#1D1D1B" stroke-width="2" stroke-miterlimit="10"/>
<path d="M3868.82 471.44L3868.91 465.18L3874.11 461.7L3868.18 459.69L3866.48 453.67L3862.74 458.68L3856.49 458.44L3860.1 463.55L3857.93 469.42L3863.91 467.56L3868.82 471.44Z" fill="#E72481" stroke="#1D1D1B" stroke-width="2" stroke-miterlimit="10"/>
<path d="M3652.24 395.68L3638.22 394.42L3631.31 382.16L3625.78 395.1L3611.98 397.89L3622.58 407.15L3620.96 421.13L3633.05 413.91L3645.85 419.77L3642.71 406.05L3652.24 395.68Z" fill="#1D1D1B" stroke="#1D1D1B" stroke-width="2" stroke-miterlimit="10"/>
<path d="M3318.57 1337.89L3366.58 1332.83L3397.26 1369.13L3408.09 1322.35L3452.91 1303.97L3411.6 1280.11L3408.63 1232.45L3372.26 1264.49L3325.6 1253.42L3344.43 1297.07L3318.57 1337.89Z" fill="#FBB90F" stroke="#1D1D1B" stroke-width="2" stroke-miterlimit="10"/>
<path d="M3452.91 1483.26L3428.39 1454.52L3390.81 1458.43L3410.57 1426.23L3395.24 1391.7L3431.97 1400.53L3460.07 1375.28L3463.02 1412.95L3495.71 1431.87L3460.81 1446.31L3452.91 1483.26Z" fill="#4FA6DD" stroke="#1D1D1B" stroke-width="2" stroke-miterlimit="10"/>
<path d="M3341.8 931.78L3329.8 933.73L3324.61 944.72L3319.05 933.92L3306.99 932.38L3315.55 923.75L3313.29 911.81L3324.14 917.28L3334.8 911.44L3332.95 923.45L3341.8 931.78Z" fill="#1D1D1B" stroke="#1D1D1B" stroke-width="2" stroke-miterlimit="10"/>
<path d="M3208.3 247L3189.09 244.84L3176.43 259.44L3172.55 240.51L3154.75 232.97L3171.56 223.43L3173.23 204.18L3187.49 217.21L3206.32 212.85L3198.33 230.45L3208.3 247Z" fill="#FDEB19" stroke="#1D1D1B" stroke-width="2" stroke-miterlimit="10"/>
<path d="M3075.21 88.78L3091.17 58.03L3074.88 27.45L3109.06 33.13L3133.1 8.19L3138.27 42.45L3169.41 57.61L3138.43 73.11L3133.63 107.42L3109.32 82.74L3075.21 88.78Z" fill="#774B98" stroke="#1D1D1B" stroke-width="2" stroke-miterlimit="10"/>
</g>
<defs>
<linearGradient id="paint0_linear_2_2" x1="2393.18" y1="1045.62" x2="2393.18" y2="413.33" gradientUnits="userSpaceOnUse">
<stop stop-color="#DC922B"/>
<stop offset="0.79" stop-color="#975718"/>
<stop offset="1" stop-color="#975918"/>
</linearGradient>
<linearGradient id="paint1_linear_2_2" x1="1.04628e+06" y1="642597" x2="1.04628e+06" y2="265537" gradientUnits="userSpaceOnUse">
<stop stop-color="#DC922B"/>
<stop offset="0.79" stop-color="#975718"/>
<stop offset="1" stop-color="#975918"/>
</linearGradient>
<linearGradient id="paint2_linear_2_2" x1="354110" y1="38540.9" x2="354110" y2="35060.5" gradientUnits="userSpaceOnUse">
<stop stop-color="#DC922B"/>
<stop offset="0.79" stop-color="#975718"/>
<stop offset="1" stop-color="#975918"/>
</linearGradient>
<clipPath id="clip0_2_2">
<rect width="3895" height="1468" fill="white" transform="translate(0.5)"/>
</clipPath>
</defs>
</svg>
